<?xml version="1.0" encoding="utf-8"?>
<!-- Generator: Adobe Adobe Illustrator 24.2.0, SVG Export Plug-In . SVG Version: 6.00 Build 0)  -->
<svg version="1.1" id="Layer_1" xmlns="http://www.w3.org/2000/svg" xmlns:xlink="http://www.w3.org/1999/xlink" x="0px" y="0px"
	 width="500px" height="500px" viewBox="0 0 500 500" style="enable-background:new 0 0 500 500;" xml:space="preserve">
<style type="text/css">
	.st0{fill:#060018;}
	.st1{fill:none;stroke:#000000;stroke-width:7;stroke-miterlimit:10;}
	.st2{stroke:#FFFFFF;stroke-miterlimit:10;}
	.st3{fill:#FF9A2C;}
	.st4{fill:#606060;}
	.st5{fill:#810000;}
	.st6{fill:#800000;}
	.st7{fill:#FF9930;}
	.st8{fill:#FF9930;stroke:#800000;stroke-width:0.512;stroke-miterlimit:10;}
	.st9{fill:#FF9930;stroke:#800000;stroke-width:0.183;stroke-miterlimit:10;}
	.st10{fill:#FF9930;stroke:#800000;stroke-width:0.512;stroke-linecap:round;stroke-linejoin:round;stroke-miterlimit:10;}
	.st11{fill:#FF9930;stroke:#800000;stroke-width:0.155;stroke-miterlimit:10;}
	.st12{fill:#FF9930;stroke:#800000;stroke-width:0.127;stroke-miterlimit:10;}
	.st13{fill:#5B2A5D;}
	.st14{fill:#001754;}
	.st15{fill:none;stroke:#001754;stroke-width:3;stroke-miterlimit:10;}
	.st16{fill:#E4E4E4;}
</style>
<g>
	<g>
		<path class="st13" d="M278.13,120.8c0,6.54-2.99,12.49-7.85,16.87c-5.12,4.62-12.32,7.49-20.28,7.49
			c-7.96,0-15.16-2.87-20.28-7.49c-4.86-4.38-7.85-10.33-7.85-16.87c0-11.19,8.75-20.63,20.62-23.49h0.01
			c2.39-0.57,4.9-0.88,7.5-0.88c2.6,0,5.11,0.3,7.5,0.88h0.01C269.38,100.17,278.13,109.61,278.13,120.8z"/>
	</g>
	<g>
		<path class="st13" d="M264.23,85.23c0,4.06-1.7,7.72-4.42,10.3c-3.08-0.92-6.37-1.42-9.8-1.42s-6.73,0.5-9.8,1.42
			c-2.73-2.58-4.42-6.24-4.42-10.3c0-7.86,6.37-14.23,14.23-14.23C257.86,71,264.23,77.37,264.23,85.23z"/>
	</g>
	<g>
		<path class="st13" d="M365.69,276.25c3.15,5.24,4.75,11.41,4.11,17.5c-1.09,12.08-11.42,22.18-23.5,23.36
			c-19.39,2.18-33.68-20.46-21.58-36.43c2-2.63,4.65-4.78,7.64-6.25c1.99-1.23,4.3-2.02,6.8-2.22c8.3-0.64,15.55,5.57,16.19,13.87
			c0.64,8.3-5.57,15.55-13.87,16.19c-0.58,0.05-1.15,0.05-1.72,0.03c4.91,3.62,12.61,1.57,16.54-3.01
			c3.81-4.07,4.73-10.14,3.29-15.44c-1.15-4.52-3.64-8.33-6.95-11.16c-23.57-7.25-65.48-7.99-87.75-7.82
			c-0.17,22.27,0.57,64.18,7.82,87.75c2.83,3.31,6.64,5.8,11.16,6.95c5.3,1.44,11.37,0.52,15.44-3.29
			c4.59-3.94,6.63-11.63,3.01-16.54c0.02,0.57,0.02,1.14-0.03,1.72c-0.64,8.3-7.9,14.51-16.19,13.87
			c-8.3-0.64-14.51-7.89-13.87-16.19c0.19-2.5,0.98-4.8,2.22-6.8c1.47-2.99,3.62-5.64,6.25-7.64c15.97-12.1,38.6,2.19,36.43,21.58
			c-1.19,12.08-11.28,22.41-23.36,23.5c-6.09,0.64-12.26-0.96-17.5-4.11c-0.8-1.18-1.69-2.3-2.67-3.36
			c-1.92-2.06-4.18-3.86-6.7-5.33c-4.84-2.84-10.64-4.49-16.88-4.49c-6.24,0-12.04,1.65-16.88,4.49c-2.53,1.47-4.78,3.27-6.7,5.33
			c-0.98,1.05-1.88,2.18-2.67,3.36c-5.24,3.15-11.41,4.75-17.5,4.11c-12.08-1.09-22.18-11.42-23.36-23.5
			c-2.18-19.39,20.45-33.68,36.43-21.58c2.65,2.01,4.8,4.67,6.27,7.68c0,0.01,0.01,0.02,0.02,0.02c1.22,1.98,1.99,4.26,2.19,6.73
			c0.64,8.3-5.57,15.55-13.87,16.19c-8.3,0.64-15.55-5.57-16.19-13.87c-0.05-0.57-0.05-1.15-0.04-1.71
			c-3.61,4.91-1.57,12.6,3.02,16.54c4.07,3.81,10.14,4.73,15.44,3.29c4.53-1.16,8.35-3.65,11.17-6.97
			c7.24-23.57,7.99-65.46,7.81-87.73c-22.27-0.17-64.18,0.57-87.75,7.82c-3.31,2.83-5.8,6.64-6.95,11.16
			c-1.44,5.3-0.52,11.37,3.29,15.44c3.94,4.59,11.63,6.63,16.54,3.01c-0.57,0.02-1.14,0.02-1.72-0.03
			c-8.3-0.64-14.51-7.9-13.87-16.19c0.64-8.3,7.89-14.51,16.19-13.87c2.5,0.19,4.8,0.98,6.8,2.22c2.99,1.47,5.64,3.62,7.64,6.25
			c12.1,15.97-2.19,38.6-21.58,36.43c-12.08-1.19-22.41-11.28-23.5-23.36c-0.64-6.09,0.96-12.26,4.11-17.5
			c1.18-0.8,2.3-1.69,3.36-2.67c2.06-1.92,3.86-4.18,5.33-6.7c2.84-4.84,4.49-10.64,4.49-16.88c0-6.24-1.65-12.04-4.49-16.88
			c-1.47-2.53-3.27-4.78-5.33-6.7c-1.05-0.98-2.18-1.88-3.36-2.67c-3.15-5.24-4.75-11.41-4.11-17.5
			c1.09-12.08,11.42-22.18,23.5-23.36c19.39-2.18,33.68,20.45,21.58,36.43c-2.01,2.65-4.67,4.8-7.68,6.27
			c-0.01,0-0.02,0.01-0.02,0.02c-1.98,1.22-4.26,1.99-6.73,2.19c-8.3,0.64-15.55-5.57-16.19-13.87c-0.64-8.3,5.57-15.55,13.87-16.19
			c0.57-0.05,1.15-0.05,1.71-0.04c-4.91-3.61-12.6-1.57-16.54,3.02c-3.81,4.07-4.73,10.14-3.29,15.44
			c1.16,4.53,3.65,8.35,6.97,11.17c23.57,7.25,65.47,7.99,87.74,7.81c0.18-22.27-0.57-64.17-7.81-87.74
			c-2.83-3.32-6.65-5.8-11.17-6.97c-5.3-1.44-11.37-0.52-15.44,3.29c-4.59,3.94-6.63,11.62-3.02,16.54
			c-0.02-0.57-0.01-1.14,0.04-1.71c0.64-8.3,7.9-14.51,16.19-13.87c8.3,0.64,14.51,7.89,13.87,16.19c-0.19,2.47-0.97,4.76-2.19,6.73
			c-0.01,0.01-0.02,0.02-0.02,0.02c-1.47,3.01-3.62,5.67-6.27,7.68c-15.98,12.1-38.6-2.19-36.43-21.58
			c1.19-12.08,11.28-22.41,23.36-23.5c6.09-0.64,12.26,0.96,17.5,4.11c0.8,1.18,1.69,2.3,2.67,3.36c1.92,2.06,4.18,3.86,6.7,5.33
			c4.84,2.84,10.64,4.49,16.88,4.49c6.24,0,12.04-1.65,16.88-4.49c2.53-1.47,4.78-3.27,6.7-5.33c0.98-1.05,1.88-2.18,2.67-3.36
			c5.24-3.15,11.41-4.75,17.5-4.11c12.08,1.09,22.18,11.42,23.36,23.5c2.18,19.39-20.46,33.68-36.43,21.58
			c-2.63-2-4.78-4.65-6.25-7.64c-1.23-1.99-2.02-4.3-2.22-6.8c-0.64-8.3,5.57-15.55,13.87-16.19c8.3-0.64,15.55,5.57,16.19,13.87
			c0.05,0.58,0.05,1.15,0.03,1.72c3.62-4.91,1.57-12.61-3.01-16.54c-4.07-3.81-10.14-4.73-15.44-3.29
			c-4.52,1.15-8.33,3.64-11.16,6.95c-7.25,23.57-7.99,65.48-7.82,87.75c22.27,0.18,64.16-0.57,87.73-7.81
			c3.32-2.83,5.8-6.65,6.97-11.17c1.44-5.3,0.52-11.37-3.29-15.44c-3.94-4.59-11.62-6.63-16.54-3.02c0.57-0.02,1.14-0.01,1.71,0.04
			c8.3,0.64,14.51,7.9,13.87,16.19c-0.64,8.3-7.89,14.51-16.19,13.87c-2.47-0.19-4.76-0.97-6.73-2.19
			c-0.01-0.01-0.02-0.02-0.02-0.02c-3.01-1.47-5.67-3.62-7.68-6.27c-12.1-15.98,2.19-38.6,21.58-36.43
			c12.08,1.19,22.41,11.28,23.5,23.36c0.64,6.09-0.96,12.26-4.11,17.5c-1.18,0.8-2.3,1.69-3.36,2.67c-2.06,1.92-3.86,4.18-5.33,6.7
			c-2.84,4.84-4.49,10.64-4.49,16.88c0,6.24,1.65,12.04,4.49,16.88c1.47,2.53,3.27,4.78,5.33,6.7
			C363.39,274.56,364.51,275.45,365.69,276.25z"/>
	</g>
	<g>
		<path class="st13" d="M278.13,379.2c0-6.54-2.99-12.49-7.85-16.87c-5.12-4.62-12.32-7.49-20.28-7.49
			c-7.96,0-15.16,2.87-20.28,7.49c-4.86,4.38-7.85,10.33-7.85,16.87c0,11.19,8.75,20.63,20.62,23.49h0.01
			c2.39,0.57,4.9,0.88,7.5,0.88c2.6,0,5.11-0.3,7.5-0.88h0.01C269.38,399.83,278.13,390.39,278.13,379.2z"/>
	</g>
	<g>
		<path class="st13" d="M264.23,414.77c0-4.06-1.7-7.72-4.42-10.3c-3.08,0.92-6.37,1.42-9.8,1.42s-6.73-0.5-9.8-1.42
			c-2.73,2.58-4.42,6.24-4.42,10.3c0,7.86,6.37,14.23,14.23,14.23C257.86,429,264.23,422.63,264.23,414.77z"/>
	</g>
	<g>
		<g>
			<g>
				<path class="st13" d="M379.2,278.13c-6.54,0-12.49-2.99-16.87-7.85c-4.62-5.12-7.49-12.32-7.49-20.28
					c0-7.96,2.87-15.16,7.49-20.28c4.38-4.86,10.33-7.85,16.87-7.85c11.19,0,20.63,8.75,23.49,20.62v0.01
					c0.57,2.39,0.88,4.9,0.88,7.5c0,2.6-0.3,5.11-0.88,7.5v0.01C399.83,269.38,390.39,278.13,379.2,278.13z"/>
			</g>
			<g>
				<path class="st13" d="M414.77,264.23c-4.06,0-7.72-1.7-10.3-4.42c0.92-3.08,1.42-6.37,1.42-9.8s-0.5-6.73-1.42-9.8
					c2.58-2.73,6.24-4.42,10.3-4.42c7.86,0,14.23,6.37,14.23,14.23C429,257.86,422.63,264.23,414.77,264.23z"/>
			</g>
		</g>
		<g>
			<g>
				<path class="st13" d="M120.8,278.13c6.54,0,12.49-2.99,16.87-7.85c4.62-5.12,7.49-12.32,7.49-20.28
					c0-7.96-2.87-15.16-7.49-20.28c-4.38-4.86-10.33-7.85-16.87-7.85c-11.19,0-20.63,8.75-23.49,20.62v0.01
					c-0.57,2.39-0.88,4.9-0.88,7.5c0,2.6,0.3,5.11,0.88,7.5v0.01C100.17,269.38,109.61,278.13,120.8,278.13z"/>
			</g>
			<g>
				<path class="st13" d="M85.23,264.23c4.06,0,7.72-1.7,10.3-4.42c-0.92-3.08-1.42-6.37-1.42-9.8s0.5-6.73,1.42-9.8
					c-2.58-2.73-6.24-4.42-10.3-4.42C77.37,235.77,71,242.14,71,250C71,257.86,77.37,264.23,85.23,264.23z"/>
			</g>
		</g>
	</g>
</g>
</svg>
