<?xml version="1.0" encoding="utf-8"?>
<!-- Generator: Adobe Illustrator 26.5.0, SVG Export Plug-In . SVG Version: 6.00 Build 0)  -->
<svg version="1.1" id="Layer_1" xmlns="http://www.w3.org/2000/svg" xmlns:xlink="http://www.w3.org/1999/xlink" x="0px" y="0px"
	 viewBox="0 0 727.1 345.4" style="enable-background:new 0 0 727.1 345.4;" xml:space="preserve">
<style type="text/css">
	.st0{fill:#5B2A5D;}
</style>
<g>
	<g>
		<g>
			<path class="st0" d="M199.9,48c0,6.3-2.9,12.1-7.6,16.3c-4.9,4.5-11.9,7.2-19.6,7.2c-7.7,0-14.6-2.8-19.6-7.2
				c-4.7-4.2-7.6-10-7.6-16.3c0-10.8,8.4-19.9,19.9-22.7h0c2.3-0.6,4.7-0.8,7.2-0.8c2.5,0,4.9,0.3,7.2,0.8h0
				C191.4,28.1,199.9,37.3,199.9,48z"/>
		</g>
		<g>
			<path class="st0" d="M186.4,13.7c0,3.9-1.6,7.4-4.3,9.9c-3-0.9-6.1-1.4-9.5-1.4s-6.5,0.5-9.5,1.4c-2.6-2.5-4.3-6-4.3-9.9
				C159,6.2,165.1,0,172.7,0C180.3,0,186.4,6.1,186.4,13.7z"/>
		</g>
		<g>
			<path class="st0" d="M284.3,198c3,5,4.6,11,4,16.9c-1,11.7-11,21.4-22.7,22.5c-18.7,2.1-32.5-19.7-20.8-35.1
				c1.9-2.5,4.5-4.6,7.4-6c1.9-1.2,4.1-2,6.6-2.1c8-0.6,15,5.4,15.6,13.4c0.6,8-5.4,15-13.4,15.6c-0.6,0-1.1,0-1.7,0
				c4.7,3.5,12.2,1.5,16-2.9c3.7-3.9,4.6-9.8,3.2-14.9c-1.1-4.4-3.5-8-6.7-10.8c-22.7-7-63.2-7.7-84.7-7.5
				c-0.2,21.5,0.6,61.9,7.5,84.7c2.7,3.2,6.4,5.6,10.8,6.7c5.1,1.4,11,0.5,14.9-3.2c4.4-3.8,6.4-11.2,2.9-16c0,0.5,0,1.1,0,1.7
				c-0.6,8-7.6,14-15.6,13.4c-8-0.6-14-7.6-13.4-15.6c0.2-2.4,0.9-4.6,2.1-6.6c1.4-2.9,3.5-5.4,6-7.4c15.4-11.7,37.3,2.1,35.2,20.8
				c-1.1,11.7-10.9,21.6-22.5,22.7c-5.9,0.6-11.8-0.9-16.9-4c-0.8-1.1-1.6-2.2-2.6-3.2c-1.9-2-4-3.7-6.5-5.1
				c-4.7-2.7-10.3-4.3-16.3-4.3c-6,0-11.6,1.6-16.3,4.3c-2.4,1.4-4.6,3.2-6.5,5.1c-0.9,1-1.8,2.1-2.6,3.2c-5.1,3-11,4.6-16.9,4
				c-11.7-1-21.4-11-22.5-22.7c-2.1-18.7,19.7-32.5,35.1-20.8c2.6,1.9,4.6,4.5,6.1,7.4c0,0,0,0,0,0c1.2,1.9,1.9,4.1,2.1,6.5
				c0.6,8-5.4,15-13.4,15.6c-8,0.6-15-5.4-15.6-13.4c0-0.5-0.1-1.1,0-1.6c-3.5,4.7-1.5,12.2,2.9,16c3.9,3.7,9.8,4.6,14.9,3.2
				c4.4-1.1,8.1-3.5,10.8-6.7c7-22.7,7.7-63.2,7.5-84.7c-21.5-0.2-61.9,0.5-84.7,7.5c-3.2,2.7-5.6,6.4-6.7,10.8
				c-1.4,5.1-0.5,11,3.2,14.9c3.8,4.4,11.2,6.4,16,2.9c-0.6,0-1.1,0-1.7,0c-8-0.6-14-7.6-13.4-15.6c0.6-8,7.6-14,15.6-13.4
				c2.4,0.2,4.6,1,6.6,2.1c2.9,1.4,5.4,3.5,7.4,6c11.7,15.4-2.1,37.2-20.8,35.1c-11.7-1.1-21.6-10.9-22.7-22.5
				c-0.6-5.9,0.9-11.8,4-16.9c1.1-0.8,2.2-1.6,3.2-2.6c2-1.9,3.7-4,5.1-6.5c2.7-4.7,4.3-10.3,4.3-16.3c0-6-1.6-11.6-4.3-16.3
				c-1.4-2.4-3.2-4.6-5.1-6.5c-1-0.9-2.1-1.8-3.2-2.6c-3-5.1-4.6-11-4-16.9c1.1-11.7,11-21.4,22.7-22.5
				c18.7-2.1,32.5,19.7,20.8,35.1c-1.9,2.6-4.5,4.6-7.4,6.1c0,0,0,0,0,0c-1.9,1.2-4.1,1.9-6.5,2.1c-8,0.6-15-5.4-15.6-13.4
				c-0.6-8,5.4-15,13.4-15.6c0.6,0,1.1-0.1,1.6,0c-4.7-3.5-12.2-1.5-16,2.9c-3.7,3.9-4.6,9.8-3.2,14.9c1.1,4.4,3.5,8.1,6.7,10.8
				c22.7,7,63.2,7.7,84.7,7.5c0.2-21.5-0.6-61.9-7.5-84.7c-2.7-3.2-6.4-5.6-10.8-6.7c-5.1-1.4-11-0.5-14.9,3.2
				c-4.4,3.8-6.4,11.2-2.9,16c0-0.6,0-1.1,0-1.6c0.6-8,7.6-14,15.6-13.4c8,0.6,14,7.6,13.4,15.6c-0.2,2.4-0.9,4.6-2.1,6.5
				c0,0,0,0,0,0c-1.4,2.9-3.5,5.5-6.1,7.4c-15.4,11.7-37.2-2.1-35.1-20.8c1.1-11.7,10.9-21.6,22.5-22.7c5.9-0.6,11.8,0.9,16.9,4
				c0.8,1.1,1.6,2.2,2.6,3.2c1.9,2,4,3.7,6.5,5.1c4.7,2.7,10.3,4.3,16.3,4.3c6,0,11.6-1.6,16.3-4.3c2.4-1.4,4.6-3.2,6.5-5.1
				c0.9-1,1.8-2.1,2.6-3.2c5.1-3,11-4.6,16.9-4c11.7,1.1,21.4,11,22.5,22.7c2.1,18.7-19.7,32.5-35.1,20.8c-2.5-1.9-4.6-4.5-6-7.4
				c-1.2-1.9-1.9-4.1-2.1-6.6c-0.6-8,5.4-15,13.4-15.6c8-0.6,15,5.4,15.6,13.4c0,0.6,0,1.1,0,1.7c3.5-4.7,1.5-12.2-2.9-16
				c-3.9-3.7-9.8-4.6-14.9-3.2c-4.4,1.1-8,3.5-10.8,6.7c-7,22.7-7.7,63.2-7.5,84.7c21.5,0.2,61.9-0.6,84.7-7.5
				c3.2-2.7,5.6-6.4,6.7-10.8c1.4-5.1,0.5-11-3.2-14.9c-3.8-4.4-11.2-6.4-16-2.9c0.5,0,1.1,0,1.6,0c8,0.6,14,7.6,13.4,15.6
				c-0.6,8-7.6,14-15.6,13.4c-2.4-0.2-4.6-0.9-6.5-2.1c0,0,0,0,0,0c-2.9-1.4-5.5-3.5-7.4-6.1c-11.7-15.4,2.1-37.2,20.8-35.1
				c11.7,1.1,21.6,10.9,22.7,22.5c0.6,5.9-0.9,11.8-4,16.9c-1.1,0.8-2.2,1.6-3.2,2.6c-2,1.9-3.7,4-5.1,6.5
				c-2.7,4.7-4.3,10.3-4.3,16.3c0,6,1.6,11.6,4.3,16.3c1.4,2.4,3.2,4.6,5.1,6.5C282.1,196.4,283.2,197.3,284.3,198z"/>
		</g>
		<g>
			<path class="st0" d="M199.9,297.4c0-6.3-2.9-12-7.6-16.3c-4.9-4.5-11.9-7.2-19.6-7.2c-7.7,0-14.6,2.8-19.6,7.2
				c-4.7,4.2-7.6,10-7.6,16.3c0,10.8,8.4,19.9,19.9,22.7h0c2.3,0.5,4.7,0.8,7.2,0.8c2.5,0,4.9-0.3,7.2-0.8h0
				C191.4,317.3,199.9,308.2,199.9,297.4z"/>
		</g>
		<g>
			<path class="st0" d="M186.4,331.7c0-3.9-1.6-7.5-4.3-9.9c-3,0.9-6.1,1.4-9.5,1.4s-6.5-0.5-9.5-1.4c-2.6,2.5-4.3,6-4.3,9.9
				c0,7.6,6.1,13.7,13.7,13.7C180.3,345.4,186.4,339.3,186.4,331.7z"/>
		</g>
		<g>
			<g>
				<g>
					<path class="st0" d="M297.4,199.9c-6.3,0-12-2.9-16.3-7.6c-4.5-4.9-7.2-11.9-7.2-19.6s2.8-14.6,7.2-19.6
						c4.2-4.7,10-7.6,16.3-7.6c10.8,0,19.9,8.4,22.7,19.9v0c0.5,2.3,0.8,4.7,0.8,7.2c0,2.5-0.3,4.9-0.8,7.2v0
						C317.3,191.4,308.2,199.9,297.4,199.9z"/>
				</g>
				<g>
					<path class="st0" d="M331.7,186.4c-3.9,0-7.5-1.6-9.9-4.3c0.9-3,1.4-6.1,1.4-9.5s-0.5-6.5-1.4-9.5c2.5-2.6,6-4.3,9.9-4.3
						c7.6,0,13.7,6.1,13.7,13.7C345.4,180.3,339.3,186.4,331.7,186.4z"/>
				</g>
			</g>
			<g>
				<g>
					<path class="st0" d="M48,199.9c6.3,0,12.1-2.9,16.3-7.6c4.5-4.9,7.2-11.9,7.2-19.6s-2.8-14.6-7.2-19.6
						c-4.2-4.7-10-7.6-16.3-7.6c-10.8,0-19.9,8.4-22.7,19.9v0c-0.6,2.3-0.8,4.7-0.8,7.2c0,2.5,0.3,4.9,0.8,7.2v0
						C28.1,191.4,37.2,199.9,48,199.9z"/>
				</g>
				<g>
					<path class="st0" d="M13.7,186.4c3.9,0,7.5-1.6,9.9-4.3c-0.9-3-1.4-6.1-1.4-9.5s0.5-6.5,1.4-9.5c-2.5-2.6-6-4.3-9.9-4.3
						C6.2,159,0,165.1,0,172.7C0,180.3,6.1,186.4,13.7,186.4z"/>
				</g>
			</g>
		</g>
	</g>
	<g>
		<g>
			<g>
				<path class="st0" d="M453.1,173.3c-7.9,0-14.7-1-20.4-3c-5.7-2-10.2-3.8-13.5-5.4c0.7-4,1.1-8.2,1-12.6s-0.6-8.7-1.7-13h4.8
					c0.5,5.7,1.9,10.8,4.3,15.2c2.4,4.5,5.8,7.9,10.1,10.5c4.3,2.5,9.4,3.8,15.4,3.8c2.7,0,5.4-0.5,8.3-1.6c2.9-1.1,5.3-2.8,7.2-5.2
					c2-2.4,3-5.5,3-9.4c0-3.4-0.7-6.2-2.1-8.4c-1.4-2.2-4-4.2-7.6-6.1c-3.6-1.9-8.8-3.9-15.4-6.1c-8.4-2.9-14.8-6.3-19.2-10.3
					s-6.6-9.7-6.6-17c0-4.8,1.2-9.2,3.5-13.3s5.8-7.4,10.5-9.9s10.3-3.8,17-3.8c3.7,0,6.7,0.4,9,1.1c2.3,0.7,4.3,1.5,6,2.3
					c1.4,0.6,2.6,1.2,3.7,1.7c1.1,0.5,2.2,0.8,3.5,0.8l4.4-0.8l0.4,0.3c-0.2,0.9-0.3,2-0.4,3.3c-0.1,1.3-0.1,2.5-0.1,3.6
					c0,2.9,0.2,5.6,0.6,8.3c0.4,2.7,1,5.8,1.9,9.2h-3.7c-1.4-5.3-3.3-9.9-5.9-13.6c-2.5-3.7-5.4-6.6-8.8-8.6s-6.9-3-10.9-3
					c-3.6,0-6.6,0.8-9.2,2.3c-2.5,1.6-4.4,3.5-5.7,5.9s-1.9,4.9-1.9,7.4c0,3.2,0.6,5.8,1.8,7.9s3.5,3.9,6.8,5.5s8.2,3.5,14.5,5.6
					c6.7,2.2,12,4.6,15.8,7.2c3.9,2.6,6.6,5.5,8.3,8.8c1.7,3.3,2.5,7.3,2.5,11.9c0,5.8-1.3,10.8-3.9,15.1c-2.6,4.3-6.3,7.6-11,9.9
					C464.9,172.1,459.4,173.3,453.1,173.3z"/>
			</g>
			<g>
				<path class="st0" d="M554.4,172.6l-33.9-74.7l-4,61.2c-0.1,2.3,0.5,4,1.8,5.2c1.3,1.1,3.2,1.9,5.7,2.4l10.1,2.1v3h-37.9v-3
					l8-1.8c1.7-0.4,3-0.9,4.1-1.4c1.1-0.6,1.9-1.4,2.4-2.4c0.5-1,0.9-2.3,1-4l4.1-67.4c0.2-2.9-0.2-4.9-1.2-5.8s-3.1-1.7-6.3-2.3
					l-7-1.5v-3l32.4,0.1l29.1,63.8L588.5,79h33.3v3l-7,1.5c-3.1,0.6-5.2,1.4-6.1,2.3c-1,0.9-1.4,2.9-1.3,5.8l2.8,67.4
					c0.1,1.9,0.3,3.4,0.7,4.4c0.4,1,1.1,1.8,2.1,2.3c1,0.5,2.6,1,4.7,1.4l7,1.5v3h-48.2v-3l7-1.5c3.2-0.7,5.3-1.6,6.3-2.5
					c1-0.9,1.3-2.8,1.2-5.6l-3-64.4l-31.3,77.9L554.4,172.6L554.4,172.6z"/>
			</g>
			<g>
				<path class="st0" d="M688.7,173.2c-8,0-15.3-1.2-22-3.6c-6.7-2.4-12.4-5.7-17.2-10c-4.8-4.3-8.6-9.2-11.2-14.9
					c-2.7-5.6-4-11.7-4-18.3c0-7,1.3-13.4,4-19.4c2.7-5.9,6.4-11.1,11.3-15.5s10.6-7.8,17.2-10.3c6.6-2.4,13.7-3.6,21.4-3.6
					c5.2,0,9.3,0.4,12.3,1.2c3,0.8,5.5,1.6,7.5,2.6c1.7,0.7,3.2,1.4,4.8,2c1.5,0.6,3.3,0.9,5.3,0.9c1,0,1.9-0.1,2.7-0.2
					s1.6-0.3,2.5-0.5l0.6,0.4c-1,3.9-1.2,8.1-0.6,12.4c0.6,4.3,1.3,8.7,2.3,13.2h-3.7c-2.2-5.3-4.9-10-8.1-14.1
					c-3.2-4.1-6.9-7.3-11.2-9.6c-4.3-2.3-9.3-3.4-15-3.4c-6,0-11.4,1.8-16.3,5.4c-4.9,3.6-8.8,8.7-11.6,15.2
					c-2.9,6.6-4.3,14.4-4.3,23.4c0,8.3,1.3,15.6,4.1,21.9c2.7,6.3,6.5,11.3,11.4,14.8c4.9,3.5,10.7,5.3,17.3,5.3
					c4.3,0,8.3-0.7,11.8-2.1c3.6-1.4,6.8-3.4,9.7-5.9c2.9-2.5,5.4-5.4,7.7-8.8c2.2-3.3,4-6.9,5.5-10.8h4.3c-1.3,4.4-2.3,8.9-3,13.5
					c-0.7,4.6-1.2,9.1-1.2,13.4h-1c-2.5,0-4.8,0.2-7.1,0.8s-4.4,1-6.6,1.6c-2.6,0.7-5.3,1.4-8.3,2.1
					C696.9,172.8,693.2,173.2,688.7,173.2z"/>
			</g>
		</g>
		<g>
			<g>
				<g>
					<path class="st0" d="M439.8,271.7l-15.6-37c-0.2-0.4-0.4-0.8-0.9-1s-0.9-0.4-1.3-0.5l-3.2-0.7v-1.3H440v1.3l-3,0.6
						c-1,0.2-1.7,0.5-2.2,0.8c-0.5,0.3-0.7,0.8-0.7,1.3c0,0.2,0,0.4,0.1,0.6s0.1,0.5,0.2,0.7l10.5,27.1h-1.6l11.1-27.3
						c0.1-0.2,0.1-0.4,0.2-0.5c0-0.2,0.1-0.3,0.1-0.5c0-0.5-0.2-0.9-0.6-1.2c-0.4-0.3-1.1-0.5-1.9-0.7l-4.4-1v-1.3h16.4v1.3
						l-3.7,0.8c-0.8,0.2-1.4,0.4-1.9,0.7c-0.5,0.3-0.9,0.8-1.2,1.4l-14.7,36.3L439.8,271.7L439.8,271.7z"/>
				</g>
				<g>
					<path class="st0" d="M477.9,270.9v-1.3l3-0.7c1.4-0.3,2.2-0.7,2.6-1.1c0.4-0.4,0.6-1.2,0.6-2.4v-28.8c0-1.3-0.2-2.1-0.6-2.5
						s-1.2-0.7-2.6-1l-3-0.6v-1.3h20.6v1.3l-3,0.6c-1.3,0.3-2.2,0.6-2.6,1s-0.6,1.2-0.6,2.5v28.8c0,1.2,0.2,2,0.6,2.4
						s1.2,0.8,2.6,1.1l3,0.7v1.3H477.9z"/>
				</g>
				<g>
					<path class="st0" d="M513.8,270.9v-1.3l3-0.7c1.4-0.3,2.2-0.7,2.6-1.1c0.4-0.4,0.6-1.2,0.6-2.4v-28.8c0-1.3-0.2-2.1-0.6-2.5
						s-1.2-0.7-2.6-1l-3-0.6v-1.3h33.7c-0.1,0.5-0.2,1.1-0.2,1.6c0,0.5-0.1,1.1-0.1,1.6c0,1.2,0.1,2.4,0.3,3.6
						c0.2,1.2,0.4,2.4,0.6,3.6h-1.3c-0.6-1.6-1.5-3-2.5-4.3c-1-1.3-2.2-2.3-3.6-3.1c-1.4-0.8-2.9-1.1-4.7-1.1h-7.8V249h7.5
						c2,0,3.4-0.4,4.2-1.2c0.8-0.8,1.4-1.9,1.6-3.3l0.5-2.7h1.3v16.3h-1.3l-0.5-2.8c-0.2-1.4-0.8-2.4-1.6-3.2
						c-0.8-0.8-2.2-1.1-4.1-1.1h-7.7v12.9c0,1.1,0.1,2.1,0.2,2.9s0.5,1.3,1,1.7c0.6,0.3,1.5,0.5,2.8,0.5h4.3c1.4,0,2.7-0.2,3.8-0.6
						c1.1-0.4,2.1-1,3-1.8s1.7-1.7,2.5-2.7l2.5-3.5h1.3c-0.4,1.7-0.7,3.5-1,5.2c-0.3,1.8-0.4,3.5-0.4,5.3H513.8z"/>
				</g>
				<g>
					<path class="st0" d="M603.6,271.9l-29.9-33.1v26.7c0,1,0.3,1.7,0.8,2.2s1.3,0.8,2.4,1l4.3,0.9v1.3H565v-1.3l3.4-0.8
						c1.1-0.2,1.8-0.6,2.4-1.1c0.5-0.5,0.8-1.2,0.8-2.3v-28.8c0-0.8-0.1-1.5-0.2-1.9c-0.2-0.4-0.5-0.8-0.9-1c-0.4-0.2-1.1-0.4-2-0.6
						l-3-0.6v-1.3h12.5l24.7,27.2v-21.8c0-1-0.3-1.7-0.8-2.2c-0.5-0.5-1.3-0.8-2.4-1l-4.3-0.9v-1.3h16.2v1.3l-3.4,0.8
						c-1.1,0.2-1.8,0.6-2.4,1.1s-0.8,1.2-0.8,2.3v35.2L603.6,271.9L603.6,271.9z"/>
				</g>
				<g>
					<path class="st0" d="M664.3,271.9l-29.9-33.1v26.7c0,1,0.3,1.7,0.8,2.2s1.3,0.8,2.4,1l4.3,0.9v1.3h-16.2v-1.3l3.4-0.8
						c1.1-0.2,1.8-0.6,2.4-1.1c0.5-0.5,0.8-1.2,0.8-2.3v-28.8c0-0.8-0.1-1.5-0.2-1.9c-0.2-0.4-0.5-0.8-0.9-1c-0.4-0.2-1.1-0.4-2-0.6
						l-3-0.6v-1.3h12.5l24.7,27.2v-21.8c0-1-0.3-1.7-0.8-2.2c-0.5-0.5-1.3-0.8-2.4-1l-4.3-0.9v-1.3h16.2v1.3l-3.4,0.8
						c-1.1,0.2-1.8,0.6-2.4,1.1s-0.8,1.2-0.8,2.3v35.2L664.3,271.9L664.3,271.9z"/>
				</g>
				<g>
					<path class="st0" d="M682.5,270.9v-1.3l3.4-0.8c0.9-0.2,1.5-0.5,2-0.9s0.8-0.9,1.1-1.5l12-28.4l-1.8-4.5c1.2,0,2.3-0.3,3.2-0.7
						c0.9-0.5,1.5-1,1.9-1.5c0.4-0.6,0.7-1,0.7-1.4h0.8l15.4,37.4c0.2,0.5,0.5,0.8,0.9,1.1c0.4,0.2,1.1,0.5,2.1,0.7l3,0.6v1.3h-20.6
						v-1.3l3-0.6c0.9-0.2,1.5-0.4,1.9-0.7c0.4-0.3,0.6-0.7,0.6-1.2c0-0.2,0-0.4-0.1-0.6c-0.1-0.2-0.1-0.4-0.2-0.7l-10.5-26.2h1.3
						l-11.4,27c0,0.1-0.1,0.2-0.1,0.3c0,0.1,0,0.2,0,0.3c0,0.3,0.1,0.7,0.4,0.9c0.3,0.3,0.7,0.5,1.3,0.6l5.1,0.9v1.3L682.5,270.9
						L682.5,270.9z M694.9,257.6v-1.9h16.8v1.9H694.9z"/>
				</g>
			</g>
		</g>
	</g>
</g>
</svg>
