<?xml version="1.0" encoding="utf-8"?>
<!-- Generator: Adobe Illustrator 26.5.0, SVG Export Plug-In . SVG Version: 6.00 Build 0)  -->
<svg version="1.1" id="Layer_1" xmlns="http://www.w3.org/2000/svg" xmlns:xlink="http://www.w3.org/1999/xlink" x="0px" y="0px"
	 viewBox="0 0 328.9 407.3" style="enable-background:new 0 0 328.9 407.3;" xml:space="preserve">
<style type="text/css">
	.st0{fill:#5B2A5D;}
</style>
<g>
	<g>
		<g>
			<g>
				<path class="st0" d="M256.6,208.6c2.5,4.2,3.8,9.1,3.3,13.9c-0.9,9.6-9.1,17.7-18.7,18.6c-15.5,1.7-26.8-16.3-17.2-29
					c1.6-2.1,3.7-3.8,6.1-5c1.6-1,3.4-1.6,5.4-1.8c6.6-0.5,12.4,4.4,12.9,11c0.5,6.6-4.4,12.4-11,12.9c-0.5,0-0.9,0-1.4,0
					c3.9,2.9,10,1.2,13.2-2.4c3-3.2,3.8-8.1,2.6-12.3c-0.9-3.6-2.9-6.6-5.5-8.9c-18.8-5.8-52.1-6.4-69.9-6.2
					c-0.3,25.8-0.1,86.4,6.2,107c2.2,2.6,5.3,4.6,8.9,5.5c4.2,1.1,9.1,0.4,12.3-2.6c3.6-3.1,5.3-9.3,2.4-13.2c0,0.5,0,0.9,0,1.4
					c-0.5,6.6-6.3,11.6-12.9,11s-11.6-6.3-11-12.9c0.1-2,0.8-3.8,1.8-5.4c1.2-2.4,2.9-4.5,5-6.1c12.7-9.6,30.8,1.8,29,17.2
					c-0.9,9.6-9,17.9-18.6,18.7c-4.9,0.5-9.8-0.8-13.9-3.3c-0.6-0.9-1.4-1.8-2.1-2.7c-1.5-1.6-3.3-3.1-5.3-4.2
					c-3.9-2.3-8.5-3.6-13.4-3.6s-9.6,1.3-13.4,3.6c-2,1.2-3.8,2.6-5.3,4.2c-0.8,0.8-1.5,1.7-2.1,2.7c-4.2,2.5-9.1,3.8-13.9,3.3
					c-9.6-0.9-17.7-9.1-18.6-18.7c-1.7-15.5,16.3-26.8,29-17.2c2.1,1.6,3.8,3.7,5,6.1c0,0,0,0,0,0c1,1.6,1.6,3.4,1.7,5.4
					c0.5,6.6-4.4,12.4-11.1,12.9c-6.6,0.5-12.4-4.4-12.9-11c0-0.5,0-0.9,0-1.4c-2.9,3.9-1.2,10,2.4,13.2c3.2,3,8.1,3.8,12.3,2.6
					c3.6-0.9,6.6-2.9,8.9-5.5c6.3-20.6,6.4-81.1,6.2-106.9c-17.8-0.1-51.1,0.5-69.9,6.2c-2.6,2.2-4.6,5.3-5.5,8.9
					c-1.1,4.2-0.4,9.1,2.6,12.3c3.1,3.6,9.3,5.3,13.2,2.4c-0.4,0-0.9,0-1.4,0c-6.6-0.5-11.6-6.3-11.1-12.9s6.3-11.6,12.9-11
					c2,0.1,3.8,0.8,5.4,1.8c2.4,1.2,4.5,2.9,6.1,5c9.6,12.7-1.8,30.8-17.2,29c-9.6-0.9-17.9-9-18.7-18.6c-0.5-4.9,0.8-9.8,3.3-13.9
					c0.9-0.6,1.8-1.4,2.7-2.1c1.6-1.5,3.1-3.3,4.2-5.3c2.3-3.9,3.6-8.5,3.6-13.4s-1.3-9.6-3.6-13.5c-1.2-2-2.6-3.8-4.2-5.3
					c-0.8-0.8-1.7-1.5-2.7-2.1c-2.5-4.2-3.8-9.1-3.3-13.9c0.9-9.6,9.1-17.7,18.7-18.6c15.4-1.7,26.8,16.3,17.2,29
					c-1.6,2.1-3.7,3.8-6.1,5c0,0,0,0,0,0c-1.6,1-3.4,1.6-5.4,1.7c-6.6,0.5-12.4-4.4-12.9-11.1C80,152.3,85,146.6,91.6,146
					c0.5,0,0.9,0,1.4,0c-3.9-2.9-10-1.2-13.2,2.4c-3,3.2-3.8,8.1-2.6,12.3c0.9,3.6,2.9,6.6,5.6,8.9c18.8,5.8,52.2,6.4,69.9,6.2
					c0.1-17.7-0.4-51.1-6.2-69.9c-2.2-2.6-5.3-4.6-8.9-5.6c-4.2-1.1-9.1-0.4-12.3,2.6c-3.6,3.1-5.3,9.3-2.4,13.2c0-0.4,0-0.9,0-1.4
					c0.5-6.6,6.3-11.6,12.9-11.1s11.6,6.3,11.1,12.9c-0.1,2-0.8,3.8-1.7,5.4c0,0,0,0,0,0c-1.2,2.4-2.9,4.5-5,6.1
					c-12.7,9.6-30.8-1.7-29-17.2c0.9-9.6,9-17.9,18.6-18.7c4.9-0.5,9.8,0.8,13.9,3.3c0.6,0.9,1.4,1.8,2.1,2.7
					c1.5,1.6,3.3,3.1,5.3,4.2c3.9,2.3,8.5,3.6,13.4,3.6s9.6-1.3,13.5-3.6c2-1.2,3.8-2.6,5.3-4.2c0.8-0.8,1.5-1.7,2.1-2.7
					c4.2-2.5,9.1-3.8,13.9-3.3c9.6,0.9,17.7,9.1,18.6,18.7c1.7,15.4-16.3,26.8-29,17.2c-2.1-1.6-3.8-3.7-5-6.1
					c-1-1.6-1.6-3.4-1.8-5.4c-0.5-6.6,4.4-12.4,11-12.9s12.4,4.4,12.9,11.1c0,0.5,0,0.9,0,1.4c2.9-3.9,1.2-10-2.4-13.2
					c-3.2-3-8.1-3.8-12.3-2.6c-3.6,0.9-6.6,2.9-8.9,5.5c-5.8,18.8-6.4,52.2-6.2,69.9c17.7,0.1,51.1-0.5,69.9-6.2
					c2.6-2.2,4.6-5.3,5.5-8.9c1.1-4.2,0.4-9.1-2.6-12.3c-3.1-3.6-9.3-5.3-13.2-2.4c0.5,0,0.9,0,1.4,0c6.6,0.5,11.6,6.3,11,12.9
					c-0.5,6.6-6.3,11.6-12.9,11.1c-2-0.1-3.8-0.8-5.4-1.7c0,0,0,0,0,0c-2.4-1.2-4.5-2.9-6.1-5c-9.6-12.7,1.8-30.8,17.2-29
					c9.6,0.9,17.9,9,18.7,18.6c0.5,4.9-0.8,9.8-3.3,13.9c-0.9,0.6-1.8,1.4-2.7,2.1c-1.6,1.5-3.1,3.3-4.2,5.3
					c-2.3,3.9-3.6,8.5-3.6,13.5s1.3,9.6,3.6,13.4c1.2,2,2.6,3.8,4.2,5.3C254.8,207.3,255.7,208,256.6,208.6z"/>
			</g>
			<g>
				<path class="st0" d="M186.9,84.8c0,5.2-2.4,9.9-6.2,13.4c-4.1,3.7-9.8,6-16.2,6s-12.1-2.3-16.2-6c-3.9-3.5-6.2-8.2-6.2-13.4
					c0-8.9,7-16.4,16.4-18.7h0c1.9-0.5,3.9-0.7,6-0.7c2.1,0,4.1,0.2,6,0.7h0C179.9,68.3,186.9,75.9,186.9,84.8z"/>
			</g>
			<g>
				<path class="st0" d="M175.8,56.5c0,3.2-1.4,6.2-3.5,8.2c-2.4-0.7-5.1-1.1-7.8-1.1s-5.4,0.4-7.8,1.1c-2.2-2.1-3.5-5-3.5-8.2
					c0-6.3,5.1-11.3,11.3-11.3C170.7,45.1,175.8,50.2,175.8,56.5z"/>
			</g>
			<g>
				<g>
					<path class="st0" d="M186.9,327.7c0-5.2-2.4-10-6.2-13.4c-4.1-3.7-9.8-6-16.2-6s-12.1,2.3-16.2,6c-3.9,3.5-6.2,8.2-6.2,13.4
						c0,8.9,7,16.4,16.4,18.7h0c1.9,0.5,3.9,0.7,6,0.7c2.1,0,4.1-0.2,6-0.7h0C179.9,344.1,186.9,336.6,186.9,327.7z"/>
				</g>
				<g>
					<path class="st0" d="M175.8,356c0-3.2-1.4-6.1-3.5-8.2c-2.4,0.7-5.1,1.1-7.8,1.1s-5.4-0.4-7.8-1.1c-2.2,2.1-3.5,5-3.5,8.2
						c0,6.3,5.1,11.3,11.3,11.3C170.7,367.4,175.8,362.3,175.8,356z"/>
				</g>
			</g>
			<g>
				<g>
					<path class="st0" d="M267.4,210.1c-5.2,0-10-2.4-13.4-6.2c-3.7-4.1-6-9.8-6-16.2s2.3-12.1,6-16.2c3.5-3.9,8.2-6.2,13.4-6.2
						c8.9,0,16.4,7,18.7,16.4v0c0.5,1.9,0.7,3.9,0.7,6c0,2.1-0.2,4.1-0.7,6v0C283.8,203.2,276.3,210.1,267.4,210.1z"/>
				</g>
				<g>
					<path class="st0" d="M295.7,199c-3.2,0-6.1-1.4-8.2-3.5c0.7-2.4,1.1-5.1,1.1-7.8s-0.4-5.4-1.1-7.8c2.1-2.2,5-3.5,8.2-3.5
						c6.3,0,11.3,5.1,11.3,11.3C307.1,194,302,199,295.7,199z"/>
				</g>
			</g>
			<g>
				<path class="st0" d="M61.5,210.1c5.2,0,10-2.4,13.4-6.2c3.7-4.1,6-9.8,6-16.2s-2.3-12.1-6-16.2c-3.5-3.9-8.2-6.2-13.4-6.2
					c-8.9,0-16.4,7-18.7,16.4v0c-0.5,1.9-0.7,3.9-0.7,6c0,2.1,0.2,4.1,0.7,6v0C45.1,203.2,52.6,210.1,61.5,210.1z"/>
			</g>
			<g>
				<path class="st0" d="M33.2,199c3.2,0,6.2-1.4,8.2-3.5c-0.7-2.4-1.1-5.1-1.1-7.8s0.4-5.4,1.1-7.8c-2.1-2.2-5-3.5-8.2-3.5
					c-6.3,0-11.3,5.1-11.3,11.3C21.9,194,26.9,199,33.2,199z"/>
			</g>
		</g>
	</g>
	<g>
		<g>
			<g>
				<g>
					<g>
						<g>
							<g>
								<path class="st0" d="M145.2,344.5l0.8,3.3c0,0-21.6,0-23.4-0.1c-8.3-0.3-26.6-1.5-39.8-6.3c-17.6-6.4-32.9-22-29.7-38.7
									c3.7,5.5,5.8,7.1,11.1,10.3c2.6-4.8,5.9-6.9,10-7.6c4.5-0.8,9.2,2,10.8,6.2c2.7,6.8-4.1,14.3-11.1,11.5
									c-1.1-0.5-2.2-1.2-3-2.1c0,0,0,0,0,0c-0.6-0.6-1.2-1.4-1.5-2.2c-1.1-3,0.5-6.2,3.4-7.3c2.9-1.1,6.2,0.5,7.3,3.4
									c0.1,0.2,0.1,0.4,0.2,0.6c0.8-2.1-0.7-4.7-2.7-5.7c-1.9-1-4.2-0.7-5.9,0.3c-1.7,1-2.9,2.5-3.6,4.2c-2.2,6.3,1.8,17,18.3,23
									c15,5.4,29.2,6.8,36.2,7.1C124.5,344.5,145.2,344.5,145.2,344.5z"/>
							</g>
						</g>
					</g>
				</g>
				<g>
					<path class="st0" d="M77.5,268.6c-7.7-5.5-19.2-5-26.4,0.8c-1.3,1-2.4,2.1-3.4,3.3c0.6-1.6,1-3.3,1.2-5.1
						c1.6-11.2-4.9-23.5-15.5-28.2c-10.1-4.6-22.9-1-29.3,8.1c-10.6,14.5,1,36.2,19.2,33.8c3.1-0.4,6-1.6,8.6-3.3
						c1.8-1,3.5-2.5,4.7-4.3c4.3-6.3,2.6-14.9-3.7-19.2c-6.3-4.3-14.9-2.6-19.2,3.7c-0.3,0.4-0.6,0.9-0.8,1.4
						c-0.6-5.6,4.5-10.8,9.9-11.8c5-1.2,10.2,0.8,13.8,4.4c7.7,7.5,12,26.3-11,33.3c11.1,4.5,7.1,15.6,13.4,31.7
						c-5.4-14.8,6-19.2,13.3-15.4c-9.4-9.6-5.4-19.2-5.4-19.2c3-8.4,11.8-13.3,20.4-10.9c4,1,7.6,3.9,8.9,7.9c1.5,4.3,0,10.1-4.2,12
						c0.2-0.4,0.4-0.7,0.6-1.1c2.7-5.7,0.3-12.5-5.4-15.2c-5.7-2.7-12.5-0.3-15.2,5.4c-0.8,1.7-1.1,3.4-1.1,5.2
						c-0.2,2.5,0.2,5.1,1.2,7.5c5.9,13.9,26.1,13,32-0.5C87.8,284.4,85,273.9,77.5,268.6z"/>
				</g>
				<g>
					<path class="st0" d="M144.4,360c-9,0-21.3-0.1-22.6-0.1c-13.3-0.3-49.2,1.1-68,21.7c-6.7,7.3-11.3,14.5-14.5,21.3
						c-1.3,2.7-4,4.4-7,4.4h-7.5c4.2-10.5,9.9-21.5,17.6-31c9.5-11.8,27.5-17.6,44.4-20.4c-16.9-2-34.9-6.1-44.4-14.4
						c-19.9-17.5-26.6-42.4-29-48.9c-1.8-4.9-4.3-6.4-5.3-6.9c-0.3-0.1-0.5-0.4-0.5-0.8v-2.8c0-0.6,0.6-1,1.2-0.8
						c3.7,1.5,15.5,3.7,19.8,10.4c5.1,8.1,1.9,27.8,25.3,45.9c18.8,14.6,54.6,15.5,68,15.4c1.2,0,13.6,0,22.5-0.1
						c0,0.2-0.1,0.3-0.1,0.5c-0.2,1-0.2,2-0.2,3c0,0.4,0,0.8,0,1.1C144.1,358.4,144.2,359.2,144.4,360z"/>
				</g>
				<g>
					<path class="st0" d="M145.2,349.7c-0.3,0.8-0.5,1.6-0.7,2.4c-8.9,0-22.3,0-23,0.1c-21.5,0.5-50-4.2-63.9-14.2
						c-14.6-10.5-18.7-27.5-16.7-30.4c1.6-2.2,5-5.3,7.4-3.2c0.4,6.1,3.1,21.4,21.1,32.5c18.1,11.1,43.2,12.7,52.8,12.9
						C123.1,349.7,136.4,349.7,145.2,349.7z"/>
				</g>
			</g>
			<g>
				<g>
					<path class="st0" d="M145.8,364.6c-8.8,0-22.7,0-23.6,0c-9.6,0.2-34.7,2.5-52.8,18.2c-7.1,6.2-11.8,13.3-15,20.2
						c-1.2,2.5-3.7,4.2-6.5,4.2h-5c2.6-8.5,7.3-18.5,14.8-26.1c13.9-14.1,42.4-20.7,63.9-20c0.7,0,14.3,0.1,23.1,0.1
						C144.9,362.4,145.3,363.6,145.8,364.6z"/>
				</g>
				<g>
					<path class="st0" d="M151.1,371.9c-7.8,0-26.4,0-28.6,0.1c-7,0.5-21.2,2.3-36.2,10c-9.7,4.9-14.3,12.8-16.4,19.9
						c-1,3.2-3.8,5.4-7.1,5.4h-4.1c4.3-9.8,12.6-25.1,24.1-31c13.2-6.8,31.4-8.5,39.8-8.9c1.9-0.1,15.7-0.1,24.6-0.1
						C148.2,369,149.6,370.5,151.1,371.9z"/>
				</g>
			</g>
		</g>
		<g>
			<g>
				<g>
					<g>
						<g>
							<g>
								<path class="st0" d="M183.7,344.5l-0.8,3.3c0,0,21.6,0,23.4-0.1c8.3-0.3,26.6-1.5,39.8-6.3c17.5-6.4,32.9-22,29.7-38.7
									c-3.7,5.5-5.8,7.1-11.1,10.3c-2.6-4.8-5.9-6.9-10-7.6c-4.5-0.8-9.2,2-10.8,6.2c-2.7,6.8,4.1,14.3,11.1,11.5
									c1.1-0.5,2.2-1.2,3-2.1c0,0,0,0,0,0c0.6-0.6,1.2-1.4,1.5-2.2c1.1-3-0.5-6.2-3.4-7.3c-3-1.1-6.2,0.5-7.3,3.4
									c-0.1,0.2-0.1,0.4-0.2,0.6c-0.8-2.1,0.7-4.7,2.7-5.7c1.9-1,4.2-0.7,5.9,0.3c1.7,1,3,2.5,3.6,4.2c2.2,6.3-1.8,17-18.3,23
									c-15,5.4-29.2,6.8-36.2,7.1C204.4,344.5,183.7,344.5,183.7,344.5z"/>
							</g>
						</g>
					</g>
				</g>
				<g>
					<path class="st0" d="M324.9,247.7c-6.5-9.1-19.2-12.7-29.3-8.1c-10.6,4.6-17.1,17-15.5,28.2c0.2,1.8,0.6,3.5,1.2,5.1
						c-1-1.2-2.1-2.4-3.4-3.3c-7.2-5.8-18.7-6.4-26.4-0.8c-7.5,5.2-10.3,15.8-6.5,24.2c5.8,13.5,26,14.5,32,0.5
						c1-2.3,1.4-4.9,1.2-7.5c0.1-1.7-0.3-3.5-1.1-5.2c-2.7-5.7-9.5-8.1-15.2-5.4c-5.7,2.7-8.1,9.5-5.4,15.2c0.2,0.4,0.4,0.8,0.6,1.1
						c-4.2-1.9-5.8-7.7-4.2-12c1.2-4,4.9-6.9,8.9-7.9c8.6-2.4,17.3,2.5,20.4,10.9c0,0,4,9.7-5.4,19.2c7.2-3.8,18.6,0.7,13.3,15.4
						c6.3-16.1,2.3-27.1,13.4-31.7c-23-7-18.8-25.8-11-33.3c3.6-3.6,8.8-5.6,13.8-4.4c5.5,1,10.6,6.2,9.9,11.8
						c-0.2-0.5-0.5-0.9-0.8-1.4c-4.3-6.3-12.9-8-19.2-3.7c-6.3,4.3-8,12.9-3.7,19.2c1.3,1.9,2.9,3.3,4.7,4.3
						c2.6,1.8,5.5,2.9,8.6,3.3C323.9,283.8,335.4,262.1,324.9,247.7z"/>
				</g>
				<g>
					<path class="st0" d="M184.5,360c9,0,21.3-0.1,22.6-0.1c13.3-0.3,49.2,1.1,68,21.7c6.7,7.3,11.3,14.5,14.5,21.3
						c1.3,2.7,4,4.4,7,4.4h7.5c-4.2-10.5-10-21.5-17.6-31c-9.5-11.8-27.5-17.6-44.4-20.4c17-2,34.9-6.1,44.4-14.4
						c19.9-17.5,26.6-42.4,29-48.9c1.8-4.9,4.3-6.4,5.3-6.9c0.3-0.1,0.5-0.4,0.5-0.8v-2.8c0-0.6-0.6-1-1.2-0.8
						c-3.7,1.5-15.5,3.7-19.8,10.4c-5.1,8.1-1.9,27.8-25.3,45.9c-18.8,14.6-54.6,15.5-68,15.4c-1.2,0-13.6,0-22.5-0.1
						c0,0.2,0.1,0.3,0.1,0.5c0.2,1,0.2,2,0.2,3c0,0.4,0,0.8,0,1.1C184.8,358.4,184.7,359.2,184.5,360z"/>
				</g>
				<g>
					<path class="st0" d="M183.7,349.7c0.3,0.8,0.5,1.6,0.7,2.4c8.9,0,22.3,0,23,0.1c21.5,0.5,50-4.2,63.9-14.2
						c14.6-10.5,18.7-27.5,16.7-30.4c-1.6-2.2-5-5.3-7.4-3.2c-0.4,6.1-3.1,21.4-21.1,32.5c-18.1,11.1-43.2,12.7-52.8,12.9
						C205.8,349.7,192.5,349.7,183.7,349.7z"/>
				</g>
			</g>
			<g>
				<g>
					<path class="st0" d="M183.2,364.6c8.8,0,22.7,0,23.6,0c9.6,0.2,34.7,2.5,52.8,18.2c7.1,6.2,11.8,13.3,15,20.2
						c1.2,2.5,3.7,4.2,6.5,4.2h5c-2.6-8.5-7.3-18.5-14.8-26.1c-13.9-14.1-42.4-20.7-63.9-20c-0.7,0-14.3,0.1-23.1,0.1
						C184,362.4,183.6,363.6,183.2,364.6z"/>
				</g>
				<g>
					<path class="st0" d="M177.8,371.9c7.8,0,26.4,0,28.6,0.1c7,0.5,21.2,2.3,36.2,10c9.7,4.9,14.3,12.8,16.4,19.9
						c1,3.2,3.8,5.4,7.1,5.4h4.1c-4.3-9.8-12.6-25.1-24.1-31c-13.2-6.8-31.4-8.5-39.8-8.9c-1.9-0.1-15.7-0.1-24.6-0.1
						C180.7,369,179.3,370.5,177.8,371.9z"/>
				</g>
			</g>
		</g>
	</g>
	<g>
		<rect x="124.2" y="377.2" class="st0" width="80.4" height="7.7"/>
	</g>
	<g>
		<rect x="107.3" y="388.4" class="st0" width="114.4" height="7.7"/>
	</g>
	<g>
		<rect x="89" y="399.6" class="st0" width="151" height="7.7"/>
	</g>
	<g>
		<path class="st0" d="M187.9,11.1c-0.3-1.4-2.1-1.9-3.1-0.9c-3.9,3.7-8,5.3-12.4,5.7c-0.6-1.2-1.3-2.4-2.1-3.3
			c0.4-3.2,1.6-6.1,3.4-8.3c0.6-0.7,0.4-1.8-0.5-2.2c-2.5-1.3-5.5-2.1-8.8-2.1c-3.3,0-6.3,0.8-8.8,2.1c-0.8,0.4-1.1,1.5-0.5,2.2
			c1.7,2.2,2.9,5,3.4,8.3c-0.8,0.9-1.5,2-2.1,3.3c-4.3-0.4-8.5-2-12.4-5.7c-1-1-2.8-0.5-3.1,0.9c-2.1,9.1,7.6,24.4,11.1,23.2
			c1.8-0.6,4.2-0.6,6.5-0.5c0.7,0.7,1.4,1.4,2.2,1.8c-0.3,0.8-0.5,1.7-0.5,2.6c0,2.3,1.2,4.3,2.8,5l0.8,3.1c0.1,0.6,1,0.6,1.2,0
			l0.8-3.1c1.6-0.7,2.8-2.7,2.8-5c0-0.9-0.2-1.8-0.5-2.6c0.8-0.5,1.5-1.1,2.2-1.8c2.2-0.1,4.7-0.1,6.5,0.5
			C180.3,35.5,190,20.2,187.9,11.1z"/>
	</g>
</g>
</svg>
