<?xml version="1.0" encoding="utf-8"?>
<!-- Generator: Adobe Adobe Illustrator 24.2.0, SVG Export Plug-In . SVG Version: 6.00 Build 0)  -->
<svg version="1.1" id="Layer_1" xmlns="http://www.w3.org/2000/svg" xmlns:xlink="http://www.w3.org/1999/xlink" x="0px" y="0px"
	 width="839.04px" height="500px" viewBox="0 0 839.04 500" style="enable-background:new 0 0 839.04 500;" xml:space="preserve">
<style type="text/css">
	.st0{fill:#060018;}
	.st1{fill:none;stroke:#000000;stroke-width:7;stroke-miterlimit:10;}
	.st2{stroke:#FFFFFF;stroke-miterlimit:10;}
	.st3{fill:#FF9A2C;}
	.st4{fill:#606060;}
	.st5{fill:#810000;}
	.st6{fill:#800000;}
	.st7{fill:#FF9930;}
	.st8{fill:#FF9930;stroke:#800000;stroke-width:0.512;stroke-miterlimit:10;}
	.st9{fill:#FF9930;stroke:#800000;stroke-width:0.183;stroke-miterlimit:10;}
	.st10{fill:#FF9930;stroke:#800000;stroke-width:0.512;stroke-linecap:round;stroke-linejoin:round;stroke-miterlimit:10;}
	.st11{fill:#FF9930;stroke:#800000;stroke-width:0.155;stroke-miterlimit:10;}
	.st12{fill:#FF9930;stroke:#800000;stroke-width:0.127;stroke-miterlimit:10;}
	.st13{fill:#5B2A5D;}
	.st14{fill:#001754;}
	.st15{fill:none;stroke:#001754;stroke-width:3;stroke-miterlimit:10;}
	.st16{fill:#E4E4E4;}
</style>
<g>
	<g>
		<g>
			<path class="st13" d="M242.63,125.33c0,6.31-2.89,12.05-7.57,16.28c-4.94,4.46-11.89,7.23-19.57,7.23
				c-7.68,0-14.62-2.77-19.57-7.23c-4.69-4.22-7.57-9.97-7.57-16.28c0-10.8,8.44-19.9,19.9-22.66h0.01c2.3-0.55,4.73-0.84,7.24-0.84
				c2.5,0,4.93,0.29,7.24,0.84h0.01C234.19,105.43,242.63,114.54,242.63,125.33z"/>
		</g>
		<g>
			<path class="st13" d="M229.22,91.02c0,3.92-1.64,7.45-4.27,9.94c-2.97-0.89-6.15-1.37-9.46-1.37s-6.49,0.48-9.46,1.37
				c-2.63-2.49-4.27-6.02-4.27-9.94c0-7.58,6.15-13.73,13.73-13.73C223.07,77.29,229.22,83.43,229.22,91.02z"/>
		</g>
		<g>
			<path class="st13" d="M327.12,275.33c3.04,5.05,4.58,11.01,3.96,16.88c-1.05,11.66-11.02,21.4-22.68,22.54
				c-18.71,2.1-32.49-19.74-20.82-35.15c1.93-2.54,4.49-4.61,7.37-6.03c1.92-1.19,4.15-1.95,6.56-2.14
				c8.01-0.62,15.01,5.38,15.62,13.38c0.62,8.01-5.38,15.01-13.38,15.63c-0.56,0.04-1.11,0.05-1.66,0.03
				c4.74,3.49,12.16,1.52,15.96-2.91c3.68-3.93,4.57-9.78,3.18-14.89c-1.11-4.36-3.51-8.04-6.71-10.77
				c-22.74-6.99-63.18-7.71-84.67-7.54c-0.16,21.49,0.55,61.92,7.54,84.67c2.73,3.19,6.41,5.59,10.77,6.71
				c5.11,1.39,10.97,0.5,14.89-3.18c4.43-3.8,6.4-11.22,2.91-15.96c0.02,0.55,0.01,1.1-0.03,1.66c-0.62,8.01-7.62,14-15.63,13.38
				c-8.01-0.61-14-7.61-13.38-15.62c0.19-2.41,0.95-4.64,2.14-6.56c1.42-2.89,3.49-5.44,6.03-7.37
				c15.41-11.67,37.25,2.12,35.15,20.82c-1.14,11.66-10.89,21.62-22.54,22.68c-5.88,0.62-11.83-0.93-16.88-3.96
				c-0.77-1.14-1.63-2.22-2.58-3.24c-1.85-1.99-4.03-3.72-6.47-5.14c-4.67-2.74-10.27-4.33-16.28-4.33
				c-6.02,0-11.62,1.59-16.28,4.33c-2.44,1.42-4.61,3.16-6.47,5.14c-0.95,1.02-1.81,2.1-2.58,3.24c-5.05,3.04-11.01,4.58-16.88,3.96
				c-11.66-1.05-21.4-11.02-22.54-22.68c-2.1-18.71,19.73-32.49,35.15-20.82c2.56,1.94,4.63,4.51,6.05,7.41
				c0,0.01,0.01,0.01,0.01,0.02c1.17,1.91,1.92,4.11,2.11,6.5c0.62,8.01-5.38,15.01-13.38,15.62c-8.01,0.62-15.01-5.38-15.63-13.38
				c-0.04-0.55-0.05-1.11-0.04-1.65c-3.48,4.74-1.51,12.16,2.92,15.96c3.93,3.68,9.78,4.57,14.89,3.18
				c4.37-1.12,8.05-3.52,10.78-6.72c6.98-22.74,7.71-63.16,7.54-84.65c-21.49-0.16-61.93,0.55-84.67,7.54
				c-3.19,2.73-5.59,6.41-6.71,10.77c-1.39,5.11-0.5,10.97,3.18,14.89c3.8,4.43,11.22,6.4,15.96,2.91c-0.55,0.02-1.1,0.01-1.66-0.03
				c-8.01-0.62-14-7.62-13.38-15.63c0.61-8.01,7.61-14,15.62-13.38c2.41,0.19,4.64,0.95,6.56,2.14c2.89,1.42,5.44,3.49,7.37,6.03
				c11.67,15.41-2.12,37.25-20.82,35.15c-11.66-1.14-21.62-10.89-22.68-22.54c-0.62-5.88,0.93-11.83,3.96-16.88
				c1.14-0.77,2.22-1.63,3.24-2.58c1.99-1.85,3.72-4.03,5.14-6.47c2.74-4.67,4.33-10.27,4.33-16.28c0-6.02-1.59-11.62-4.33-16.28
				c-1.42-2.44-3.16-4.61-5.14-6.47c-1.02-0.95-2.1-1.81-3.24-2.58c-3.04-5.05-4.58-11.01-3.96-16.88
				c1.05-11.66,11.02-21.4,22.68-22.54c18.71-2.1,32.49,19.73,20.82,35.15c-1.94,2.56-4.51,4.63-7.41,6.05
				c-0.01,0-0.01,0.01-0.02,0.01c-1.91,1.17-4.11,1.92-6.5,2.11c-8.01,0.62-15.01-5.38-15.62-13.38
				c-0.62-8.01,5.38-15.01,13.38-15.63c0.55-0.04,1.11-0.05,1.65-0.04c-4.74-3.48-12.16-1.51-15.96,2.92
				c-3.68,3.93-4.57,9.78-3.18,14.89c1.12,4.37,3.52,8.05,6.72,10.78c22.74,6.99,63.17,7.71,84.66,7.54
				c0.17-21.49-0.55-61.91-7.54-84.66c-2.73-3.2-6.42-5.6-10.78-6.72c-5.11-1.39-10.97-0.5-14.89,3.18
				c-4.43,3.8-6.4,11.22-2.92,15.96c-0.01-0.55-0.01-1.1,0.04-1.65c0.62-8.01,7.62-14,15.63-13.38c8.01,0.61,14,7.61,13.38,15.62
				c-0.19,2.39-0.93,4.59-2.11,6.5c-0.01,0.01-0.01,0.01-0.01,0.02c-1.42,2.9-3.49,5.47-6.05,7.41
				c-15.42,11.67-37.25-2.12-35.15-20.82c1.14-11.66,10.89-21.62,22.54-22.68c5.88-0.62,11.83,0.93,16.88,3.96
				c0.77,1.14,1.63,2.22,2.58,3.24c1.85,1.99,4.03,3.72,6.47,5.14c4.67,2.74,10.27,4.33,16.28,4.33c6.02,0,11.62-1.59,16.28-4.33
				c2.44-1.42,4.61-3.16,6.47-5.14c0.95-1.02,1.81-2.1,2.58-3.24c5.05-3.04,11.01-4.58,16.88-3.96
				c11.66,1.05,21.4,11.02,22.54,22.68c2.1,18.71-19.74,32.49-35.15,20.82c-2.54-1.93-4.61-4.49-6.03-7.37
				c-1.19-1.92-1.95-4.15-2.14-6.56c-0.62-8.01,5.38-15.01,13.38-15.62c8.01-0.62,15.01,5.38,15.63,13.38
				c0.04,0.56,0.05,1.11,0.03,1.66c3.49-4.74,1.52-12.16-2.91-15.96c-3.93-3.68-9.78-4.57-14.89-3.18
				c-4.36,1.11-8.04,3.51-10.77,6.71c-6.99,22.74-7.71,63.19-7.54,84.67c21.49,0.17,61.91-0.55,84.65-7.54
				c3.2-2.73,5.6-6.41,6.72-10.78c1.39-5.11,0.5-10.97-3.18-14.89c-3.8-4.43-11.22-6.4-15.96-2.92c0.55-0.01,1.1-0.01,1.65,0.04
				c8.01,0.62,14,7.62,13.38,15.63c-0.61,8.01-7.61,14-15.62,13.38c-2.39-0.19-4.59-0.93-6.5-2.11c-0.01-0.01-0.01-0.01-0.02-0.01
				c-2.9-1.42-5.47-3.49-7.41-6.05c-11.67-15.42,2.12-37.25,20.82-35.15c11.66,1.14,21.62,10.89,22.68,22.54
				c0.62,5.88-0.93,11.83-3.96,16.88c-1.14,0.77-2.22,1.63-3.24,2.58c-1.99,1.85-3.72,4.03-5.14,6.47
				c-2.74,4.67-4.33,10.27-4.33,16.28c0,6.02,1.59,11.62,4.33,16.28c1.42,2.44,3.16,4.61,5.14,6.47
				C324.9,273.7,325.98,274.56,327.12,275.33z"/>
		</g>
		<g>
			<path class="st13" d="M242.63,374.67c0-6.31-2.89-12.05-7.57-16.28c-4.94-4.46-11.89-7.23-19.57-7.23
				c-7.68,0-14.62,2.77-19.57,7.23c-4.69,4.22-7.57,9.97-7.57,16.28c0,10.8,8.44,19.9,19.9,22.66h0.01c2.3,0.55,4.73,0.84,7.24,0.84
				c2.5,0,4.93-0.29,7.24-0.84h0.01C234.19,394.57,242.63,385.46,242.63,374.67z"/>
		</g>
		<g>
			<path class="st13" d="M229.22,408.98c0-3.92-1.64-7.45-4.27-9.94c-2.97,0.89-6.15,1.37-9.46,1.37s-6.49-0.48-9.46-1.37
				c-2.63,2.49-4.27,6.02-4.27,9.94c0,7.58,6.15,13.73,13.73,13.73C223.07,422.71,229.22,416.57,229.22,408.98z"/>
		</g>
		<g>
			<g>
				<g>
					<path class="st13" d="M340.16,277.14c-6.31,0-12.05-2.89-16.28-7.57c-4.46-4.94-7.23-11.89-7.23-19.57
						c0-7.68,2.77-14.62,7.23-19.57c4.22-4.69,9.97-7.57,16.28-7.57c10.8,0,19.9,8.44,22.66,19.9v0.01c0.55,2.3,0.84,4.73,0.84,7.24
						c0,2.5-0.29,4.93-0.84,7.24v0.01C360.06,268.7,350.95,277.14,340.16,277.14z"/>
				</g>
				<g>
					<path class="st13" d="M374.47,263.73c-3.92,0-7.45-1.64-9.94-4.27c0.89-2.97,1.37-6.15,1.37-9.46s-0.48-6.49-1.37-9.46
						c2.49-2.63,6.02-4.27,9.94-4.27c7.58,0,13.73,6.15,13.73,13.73C388.2,257.58,382.06,263.73,374.47,263.73z"/>
				</g>
			</g>
			<g>
				<g>
					<path class="st13" d="M90.82,277.14c6.31,0,12.05-2.89,16.28-7.57c4.46-4.94,7.23-11.89,7.23-19.57
						c0-7.68-2.77-14.62-7.23-19.57c-4.22-4.69-9.97-7.57-16.28-7.57c-10.8,0-19.9,8.44-22.66,19.9v0.01
						c-0.55,2.3-0.84,4.73-0.84,7.24c0,2.5,0.29,4.93,0.84,7.24v0.01C70.92,268.7,80.03,277.14,90.82,277.14z"/>
				</g>
				<g>
					<path class="st13" d="M56.51,263.73c3.92,0,7.45-1.64,9.94-4.27c-0.89-2.97-1.37-6.15-1.37-9.46s0.48-6.49,1.37-9.46
						c-2.49-2.63-6.02-4.27-9.94-4.27c-7.58,0-13.73,6.15-13.73,13.73C42.78,257.58,48.92,263.73,56.51,263.73z"/>
				</g>
			</g>
		</g>
	</g>
	<g>
		<g>
			<g>
				<path class="st13" d="M495.91,250.58c-7.9,0-14.7-0.99-20.4-2.96c-5.7-1.97-10.2-3.79-13.51-5.44
					c0.73-4.04,1.08-8.25,1.03-12.61c-0.05-4.36-0.62-8.7-1.72-13.02h4.82c0.46,5.7,1.91,10.77,4.34,15.23
					c2.43,4.46,5.79,7.95,10.06,10.47c4.27,2.53,9.39,3.79,15.37,3.79c2.66,0,5.42-0.53,8.27-1.59c2.85-1.06,5.26-2.78,7.24-5.17
					c1.97-2.39,2.96-5.51,2.96-9.37c0-3.4-0.71-6.2-2.14-8.41c-1.43-2.2-3.95-4.25-7.58-6.13c-3.63-1.88-8.75-3.93-15.37-6.13
					c-8.36-2.85-14.75-6.27-19.16-10.27c-4.41-4-6.61-9.67-6.61-17.02c0-4.78,1.17-9.21,3.51-13.3c2.34-4.09,5.83-7.39,10.47-9.92
					c4.64-2.53,10.31-3.79,17.02-3.79c3.67,0,6.68,0.37,9.03,1.1c2.34,0.74,4.34,1.52,5.99,2.34c1.38,0.64,2.62,1.22,3.72,1.72
					c1.1,0.51,2.25,0.76,3.45,0.76l4.41-0.83l0.41,0.28c-0.18,0.92-0.32,2.02-0.41,3.31c-0.09,1.29-0.14,2.48-0.14,3.58
					c0,2.85,0.21,5.63,0.62,8.34c0.41,2.71,1.03,5.77,1.86,9.16h-3.72c-1.38-5.33-3.33-9.85-5.86-13.58
					c-2.53-3.72-5.44-6.59-8.75-8.61c-3.31-2.02-6.94-3.03-10.89-3.03c-3.58,0-6.64,0.78-9.16,2.34c-2.53,1.56-4.43,3.54-5.72,5.93
					c-1.29,2.39-1.93,4.87-1.93,7.44c0,3.22,0.6,5.84,1.79,7.86c1.19,2.02,3.47,3.86,6.82,5.51c3.35,1.65,8.2,3.54,14.54,5.65
					c6.71,2.2,11.99,4.59,15.85,7.17c3.86,2.57,6.61,5.51,8.27,8.82c1.65,3.31,2.48,7.26,2.48,11.85c0,5.79-1.31,10.82-3.93,15.09
					c-2.62,4.27-6.27,7.58-10.96,9.92C507.63,249.41,502.16,250.58,495.91,250.58z"/>
			</g>
			<g>
				<path class="st13" d="M597.21,249.89l-33.9-74.7l-4,61.19c-0.09,2.3,0.5,4.02,1.79,5.17c1.29,1.15,3.17,1.95,5.65,2.41
					l10.06,2.07v3.03h-37.9v-3.03l7.99-1.79c1.65-0.37,3.01-0.85,4.07-1.45c1.06-0.6,1.86-1.4,2.41-2.41c0.55-1.01,0.87-2.34,0.97-4
					l4.13-67.39c0.18-2.94-0.21-4.87-1.17-5.79c-0.96-0.92-3.06-1.7-6.27-2.34l-7.03-1.52v-3.03l32.39,0.14l29.08,63.81l25.77-63.95
					h33.35v3.03l-7.03,1.52c-3.12,0.64-5.17,1.43-6.13,2.34c-0.97,0.92-1.4,2.85-1.31,5.79l2.76,67.39c0.09,1.93,0.32,3.4,0.69,4.41
					c0.37,1.01,1.06,1.77,2.07,2.27c1.01,0.51,2.57,0.99,4.69,1.45l7.03,1.52v3.03h-48.23v-3.03l7.03-1.52
					c3.21-0.73,5.31-1.56,6.27-2.48c0.96-0.92,1.35-2.8,1.17-5.65l-3.03-64.36l-31.28,77.86H597.21z"/>
			</g>
			<g>
				<path class="st13" d="M731.44,250.44c-7.99,0-15.32-1.19-21.98-3.58c-6.66-2.39-12.4-5.72-17.23-9.99
					c-4.82-4.27-8.57-9.23-11.23-14.88c-2.67-5.65-4-11.74-4-18.26c0-6.98,1.33-13.44,4-19.36c2.66-5.93,6.43-11.09,11.3-15.5
					c4.87-4.41,10.59-7.83,17.16-10.27c6.57-2.43,13.71-3.65,21.43-3.65c5.24,0,9.35,0.39,12.33,1.17c2.98,0.78,5.49,1.63,7.51,2.55
					c1.65,0.74,3.24,1.4,4.75,2c1.52,0.6,3.28,0.9,5.31,0.9c1.01,0,1.91-0.07,2.69-0.21c0.78-0.14,1.63-0.3,2.55-0.48l0.55,0.41
					c-1.01,3.95-1.22,8.09-0.62,12.4c0.6,4.32,1.35,8.73,2.27,13.23h-3.72c-2.2-5.33-4.89-10.04-8.06-14.13
					c-3.17-4.09-6.89-7.28-11.16-9.58c-4.27-2.3-9.26-3.45-14.95-3.45c-5.97,0-11.39,1.79-16.26,5.38
					c-4.87,3.58-8.75,8.66-11.64,15.23c-2.89,6.57-4.34,14.36-4.34,23.36c0,8.27,1.35,15.57,4.07,21.91
					c2.71,6.34,6.52,11.28,11.44,14.82c4.91,3.54,10.68,5.31,17.3,5.31c4.32,0,8.27-0.71,11.85-2.14c3.58-1.42,6.82-3.4,9.72-5.93
					c2.89-2.53,5.44-5.44,7.65-8.75c2.2-3.31,4.04-6.89,5.51-10.75h4.27c-1.29,4.41-2.3,8.91-3.03,13.51
					c-0.74,4.59-1.15,9.05-1.24,13.37h-0.96c-2.48,0-4.85,0.25-7.1,0.76c-2.25,0.51-4.43,1.03-6.55,1.59
					c-2.57,0.74-5.35,1.43-8.34,2.07C739.68,250.12,735.94,250.44,731.44,250.44z"/>
			</g>
		</g>
		<g>
			<g>
				<g>
					<path class="st13" d="M482.61,349.03l-15.59-37c-0.16-0.43-0.44-0.76-0.85-1c-0.41-0.24-0.85-0.39-1.32-0.47l-3.24-0.71v-1.29
						h21.17v1.29l-3,0.65c-0.98,0.2-1.71,0.46-2.18,0.79c-0.47,0.33-0.71,0.78-0.71,1.32c0,0.16,0.03,0.35,0.09,0.59
						c0.06,0.24,0.13,0.47,0.21,0.71l10.53,27.12h-1.59l11.12-27.29c0.08-0.2,0.14-0.37,0.18-0.53c0.04-0.16,0.06-0.31,0.06-0.47
						c0-0.51-0.22-0.91-0.65-1.21c-0.43-0.29-1.08-0.52-1.94-0.68l-4.41-1v-1.29h16.41v1.29l-3.71,0.76
						c-0.75,0.16-1.37,0.38-1.88,0.68c-0.51,0.29-0.9,0.78-1.18,1.44l-14.71,36.29H482.61z"/>
				</g>
				<g>
					<path class="st13" d="M520.73,348.15v-1.29l3-0.65c1.37-0.31,2.24-0.67,2.62-1.06c0.37-0.39,0.56-1.2,0.56-2.41v-28.76
						c0-1.26-0.19-2.08-0.56-2.47c-0.37-0.39-1.24-0.72-2.62-1l-3-0.65v-1.29h20.59v1.29l-3,0.65c-1.33,0.28-2.2,0.61-2.59,1
						c-0.39,0.39-0.59,1.22-0.59,2.47v28.76c0,1.22,0.2,2.02,0.59,2.41c0.39,0.39,1.25,0.75,2.59,1.06l3,0.65v1.29H520.73z"/>
				</g>
				<g>
					<path class="st13" d="M556.61,348.15v-1.29l3-0.65c1.37-0.31,2.24-0.67,2.62-1.06c0.37-0.39,0.56-1.2,0.56-2.41v-28.76
						c0-1.26-0.19-2.08-0.56-2.47c-0.37-0.39-1.24-0.72-2.62-1l-3-0.65v-1.29h33.7c-0.12,0.55-0.2,1.09-0.23,1.62
						c-0.04,0.53-0.06,1.07-0.06,1.62c0,1.22,0.1,2.4,0.29,3.56c0.2,1.16,0.39,2.36,0.59,3.62h-1.29c-0.63-1.57-1.45-2.99-2.47-4.26
						c-1.02-1.27-2.22-2.29-3.59-3.06c-1.37-0.76-2.94-1.15-4.71-1.15h-7.82v15.76h7.53c1.96,0,3.36-0.39,4.21-1.18
						c0.84-0.78,1.38-1.88,1.62-3.29l0.47-2.71h1.29v16.29h-1.29l-0.53-2.82c-0.24-1.37-0.76-2.44-1.59-3.21
						c-0.82-0.76-2.18-1.15-4.06-1.15h-7.65v12.94c0,1.14,0.06,2.09,0.18,2.85c0.12,0.76,0.46,1.32,1.03,1.68
						c0.57,0.35,1.52,0.53,2.85,0.53h4.35c1.41,0,2.67-0.21,3.76-0.62c1.1-0.41,2.1-1,3-1.76c0.9-0.76,1.72-1.68,2.47-2.74
						l2.53-3.53h1.29c-0.39,1.73-0.74,3.47-1.03,5.24s-0.44,3.55-0.44,5.35H556.61z"/>
				</g>
				<g>
					<path class="st13" d="M646.42,349.15l-29.94-33.12v26.7c0,0.98,0.26,1.72,0.79,2.21c0.53,0.49,1.32,0.83,2.38,1.03l4.29,0.88
						v1.29h-16.18v-1.29l3.41-0.76c1.06-0.24,1.85-0.59,2.38-1.06c0.53-0.47,0.79-1.24,0.79-2.29v-28.76c0-0.82-0.08-1.45-0.24-1.88
						c-0.16-0.43-0.46-0.75-0.91-0.97c-0.45-0.21-1.13-0.42-2.03-0.62l-3-0.65v-1.29h12.47l24.65,27.17v-21.76
						c0-0.98-0.27-1.72-0.79-2.21c-0.53-0.49-1.32-0.83-2.38-1.03l-4.29-0.88v-1.29h16.18v1.29l-3.41,0.76
						c-1.06,0.24-1.85,0.59-2.38,1.06c-0.53,0.47-0.79,1.23-0.79,2.29v35.17H646.42z"/>
				</g>
				<g>
					<path class="st13" d="M707.07,349.15l-29.94-33.12v26.7c0,0.98,0.26,1.72,0.79,2.21c0.53,0.49,1.32,0.83,2.38,1.03l4.29,0.88
						v1.29h-16.18v-1.29l3.41-0.76c1.06-0.24,1.85-0.59,2.38-1.06s0.79-1.24,0.79-2.29v-28.76c0-0.82-0.08-1.45-0.24-1.88
						c-0.16-0.43-0.46-0.75-0.91-0.97c-0.45-0.21-1.13-0.42-2.03-0.62l-3-0.65v-1.29h12.47l24.65,27.17v-21.76
						c0-0.98-0.27-1.72-0.79-2.21c-0.53-0.49-1.32-0.83-2.38-1.03l-4.29-0.88v-1.29h16.18v1.29l-3.41,0.76
						c-1.06,0.24-1.85,0.59-2.38,1.06c-0.53,0.47-0.79,1.23-0.79,2.29v35.17H707.07z"/>
				</g>
				<g>
					<path class="st13" d="M725.24,348.15v-1.29l3.41-0.76c0.86-0.2,1.52-0.48,1.97-0.85c0.45-0.37,0.81-0.87,1.09-1.5l12-28.41
						l-1.82-4.53c1.25-0.04,2.31-0.28,3.18-0.74c0.86-0.45,1.51-0.96,1.94-1.53c0.43-0.57,0.65-1.05,0.65-1.44h0.82l15.41,37.41
						c0.2,0.47,0.51,0.82,0.94,1.06c0.43,0.24,1.12,0.45,2.06,0.65l3,0.65v1.29H749.3v-1.29l3-0.65c0.86-0.2,1.5-0.44,1.91-0.74
						c0.41-0.29,0.62-0.7,0.62-1.21c0-0.2-0.03-0.39-0.09-0.59c-0.06-0.2-0.13-0.41-0.21-0.65l-10.47-26.23h1.29l-11.41,27
						c-0.04,0.12-0.07,0.24-0.09,0.35c-0.02,0.12-0.03,0.22-0.03,0.29c0,0.35,0.14,0.67,0.41,0.94c0.27,0.28,0.72,0.47,1.35,0.59
						l5.06,0.88v1.29H725.24z M737.65,334.86v-1.94h16.76v1.94H737.65z"/>
				</g>
			</g>
		</g>
	</g>
</g>
</svg>
