<?xml version="1.0" encoding="utf-8"?>
<!-- Generator: Adobe Illustrator 26.5.0, SVG Export Plug-In . SVG Version: 6.00 Build 0)  -->
<svg version="1.1" id="Layer_1" xmlns="http://www.w3.org/2000/svg" xmlns:xlink="http://www.w3.org/1999/xlink" x="0px" y="0px"
	 viewBox="0 0 358 359" style="enable-background:new 0 0 358 359;" xml:space="preserve">
<style type="text/css">
	.st0{fill:#5B2A5D;}
</style>
<g>
	<g>
		<path class="st0" d="M207.1,50.8c0,6.5-3,12.5-7.9,16.9c-5.1,4.6-12.3,7.5-20.3,7.5c-8,0-15.2-2.9-20.3-7.5
			c-4.9-4.4-7.9-10.3-7.9-16.9c0-11.2,8.8-20.6,20.6-23.5h0c2.4-0.6,4.9-0.9,7.5-0.9s5.1,0.3,7.5,0.9h0
			C198.4,30.2,207.1,39.6,207.1,50.8z"/>
	</g>
	<g>
		<path class="st0" d="M193.2,15.2c0,4.1-1.7,7.7-4.4,10.3c-3.1-0.9-6.4-1.4-9.8-1.4s-6.7,0.5-9.8,1.4c-2.7-2.6-4.4-6.2-4.4-10.3
			C164.8,7.4,171.2,1,179,1C186.9,1,193.2,7.4,193.2,15.2z"/>
	</g>
	<g>
		<path class="st0" d="M294.7,206.2c3.1,5.2,4.8,11.4,4.1,17.5c-1.1,12.1-11.4,22.2-23.5,23.4c-19.4,2.2-33.7-20.5-21.6-36.4
			c2-2.6,4.6-4.8,7.6-6.2c2-1.2,4.3-2,6.8-2.2c8.3-0.6,15.5,5.6,16.2,13.9s-5.6,15.5-13.9,16.2c-0.6,0-1.1,0-1.7,0
			c4.9,3.6,12.6,1.6,16.5-3c3.8-4.1,4.7-10.1,3.3-15.4c-1.1-4.5-3.6-8.3-7-11.2c-23.6-7.2-65.5-8-87.8-7.8
			c-0.2,22.3,0.6,64.2,7.8,87.8c2.8,3.3,6.6,5.8,11.2,7c5.3,1.4,11.4,0.5,15.4-3.3c4.6-3.9,6.6-11.6,3-16.5c0,0.6,0,1.1,0,1.7
			c-0.6,8.3-7.9,14.5-16.2,13.9c-8.3-0.6-14.5-7.9-13.9-16.2c0.2-2.5,1-4.8,2.2-6.8c1.5-3,3.6-5.6,6.2-7.6
			c16-12.1,38.6,2.2,36.4,21.6c-1.2,12.1-11.3,22.4-23.4,23.5c-6.1,0.6-12.3-1-17.5-4.1c-0.8-1.2-1.7-2.3-2.7-3.4
			c-1.9-2.1-4.2-3.9-6.7-5.3c-4.8-2.8-10.6-4.5-16.9-4.5c-6.2,0-12,1.6-16.9,4.5c-2.5,1.5-4.8,3.3-6.7,5.3c-1,1-1.9,2.2-2.7,3.4
			c-5.2,3.1-11.4,4.8-17.5,4.1c-12.1-1.1-22.2-11.4-23.4-23.5c-2.2-19.4,20.4-33.7,36.4-21.6c2.6,2,4.8,4.7,6.3,7.7c0,0,0,0,0,0
			c1.2,2,2,4.3,2.2,6.7c0.6,8.3-5.6,15.5-13.9,16.2c-8.3,0.6-15.6-5.6-16.2-13.9c-0.1-0.6-0.1-1.1,0-1.7c-3.6,4.9-1.6,12.6,3,16.5
			c4.1,3.8,10.1,4.7,15.4,3.3c4.5-1.2,8.4-3.6,11.2-7c7.2-23.6,8-65.5,7.8-87.7c-22.3-0.2-64.2,0.6-87.8,7.8
			c-3.3,2.8-5.8,6.6-6.9,11.2c-1.4,5.3-0.5,11.4,3.3,15.4c3.9,4.6,11.6,6.6,16.5,3c-0.6,0-1.1,0-1.7,0c-8.3-0.6-14.5-7.9-13.9-16.2
			c0.6-8.3,7.9-14.5,16.2-13.9c2.5,0.2,4.8,1,6.8,2.2c3,1.5,5.6,3.6,7.6,6.2c12.1,16-2.2,38.6-21.6,36.4
			c-12.1-1.2-22.4-11.3-23.5-23.4c-0.6-6.1,1-12.3,4.1-17.5c1.2-0.8,2.3-1.7,3.4-2.7c2.1-1.9,3.9-4.2,5.3-6.7
			c2.8-4.8,4.5-10.6,4.5-16.9c0-6.2-1.6-12-4.5-16.9c-1.5-2.5-3.3-4.8-5.3-6.7c-1.1-1-2.2-1.9-3.4-2.7c-3.1-5.2-4.8-11.4-4.1-17.5
			c1.1-12.1,11.4-22.2,23.5-23.4c19.4-2.2,33.7,20.4,21.6,36.4c-2,2.6-4.7,4.8-7.7,6.3c0,0,0,0,0,0c-2,1.2-4.3,2-6.7,2.2
			c-8.3,0.6-15.6-5.6-16.2-13.9c-0.6-8.3,5.6-15.6,13.9-16.2c0.6-0.1,1.1-0.1,1.7,0c-4.9-3.6-12.6-1.6-16.5,3
			c-3.8,4.1-4.7,10.1-3.3,15.4c1.2,4.5,3.6,8.4,7,11.2c23.6,7.2,65.5,8,87.7,7.8c0.2-22.3-0.6-64.2-7.8-87.7
			c-2.8-3.3-6.6-5.8-11.2-7c-5.3-1.4-11.4-0.5-15.4,3.3c-4.6,3.9-6.6,11.6-3,16.5c0-0.6,0-1.1,0-1.7c0.6-8.3,7.9-14.5,16.2-13.9
			c8.3,0.6,14.5,7.9,13.9,16.2c-0.2,2.5-1,4.8-2.2,6.7c0,0,0,0,0,0c-1.5,3-3.6,5.7-6.3,7.7c-16,12.1-38.6-2.2-36.4-21.6
			c1.2-12.1,11.3-22.4,23.4-23.5c6.1-0.6,12.3,1,17.5,4.1c0.8,1.2,1.7,2.3,2.7,3.4c1.9,2.1,4.2,3.9,6.7,5.3
			c4.8,2.8,10.6,4.5,16.9,4.5s12-1.6,16.9-4.5c2.5-1.5,4.8-3.3,6.7-5.3c1-1.1,1.9-2.2,2.7-3.4c5.2-3.1,11.4-4.8,17.5-4.1
			c12.1,1.1,22.2,11.4,23.4,23.5c2.2,19.4-20.5,33.7-36.4,21.6c-2.6-2-4.8-4.6-6.2-7.6c-1.2-2-2-4.3-2.2-6.8
			c-0.6-8.3,5.6-15.6,13.9-16.2s15.5,5.6,16.2,13.9c0,0.6,0,1.1,0,1.7c3.6-4.9,1.6-12.6-3-16.5c-4.1-3.8-10.1-4.7-15.4-3.3
			c-4.5,1.1-8.3,3.6-11.2,6.9c-7.2,23.6-8,65.5-7.8,87.8c22.3,0.2,64.2-0.6,87.7-7.8c3.3-2.8,5.8-6.6,7-11.2
			c1.4-5.3,0.5-11.4-3.3-15.4c-3.9-4.6-11.6-6.6-16.5-3c0.6,0,1.1,0,1.7,0c8.3,0.6,14.5,7.9,13.9,16.2c-0.6,8.3-7.9,14.5-16.2,13.9
			c-2.5-0.2-4.8-1-6.7-2.2c0,0,0,0,0,0c-3-1.5-5.7-3.6-7.7-6.3c-12.1-16,2.2-38.6,21.6-36.4c12.1,1.2,22.4,11.3,23.5,23.4
			c0.6,6.1-1,12.3-4.1,17.5c-1.2,0.8-2.3,1.7-3.4,2.7c-2.1,1.9-3.9,4.2-5.3,6.7c-2.8,4.8-4.5,10.6-4.5,16.9s1.6,12,4.5,16.9
			c1.5,2.5,3.3,4.8,5.3,6.7C292.4,204.6,293.5,205.5,294.7,206.2z"/>
	</g>
	<g>
		<path class="st0" d="M207.1,309.2c0-6.5-3-12.5-7.9-16.9c-5.1-4.6-12.3-7.5-20.3-7.5c-8,0-15.2,2.9-20.3,7.5
			c-4.9,4.4-7.9,10.3-7.9,16.9c0,11.2,8.8,20.6,20.6,23.5h0c2.4,0.6,4.9,0.9,7.5,0.9s5.1-0.3,7.5-0.9h0
			C198.4,329.8,207.1,320.4,207.1,309.2z"/>
	</g>
	<g>
		<path class="st0" d="M193.2,344.8c0-4.1-1.7-7.7-4.4-10.3c-3.1,0.9-6.4,1.4-9.8,1.4s-6.7-0.5-9.8-1.4c-2.7,2.6-4.4,6.2-4.4,10.3
			c0,7.9,6.4,14.2,14.2,14.2C186.9,359,193.2,352.6,193.2,344.8z"/>
	</g>
	<g>
		<g>
			<g>
				<path class="st0" d="M308.2,208.1c-6.5,0-12.5-3-16.9-7.9c-4.6-5.1-7.5-12.3-7.5-20.3c0-8,2.9-15.2,7.5-20.3
					c4.4-4.9,10.3-7.9,16.9-7.9c11.2,0,20.6,8.8,23.5,20.6v0c0.6,2.4,0.9,4.9,0.9,7.5s-0.3,5.1-0.9,7.5v0
					C328.8,199.4,319.4,208.1,308.2,208.1z"/>
			</g>
			<g>
				<path class="st0" d="M343.8,194.2c-4.1,0-7.7-1.7-10.3-4.4c0.9-3.1,1.4-6.4,1.4-9.8s-0.5-6.7-1.4-9.8c2.6-2.7,6.2-4.4,10.3-4.4
					c7.9,0,14.2,6.4,14.2,14.2C358,187.9,351.6,194.2,343.8,194.2z"/>
			</g>
		</g>
		<g>
			<g>
				<path class="st0" d="M49.8,208.1c6.5,0,12.5-3,16.9-7.9c4.6-5.1,7.5-12.3,7.5-20.3c0-8-2.9-15.2-7.5-20.3
					c-4.4-4.9-10.3-7.9-16.9-7.9c-11.2,0-20.6,8.8-23.5,20.6v0c-0.6,2.4-0.9,4.9-0.9,7.5s0.3,5.1,0.9,7.5v0
					C29.2,199.4,38.6,208.1,49.8,208.1z"/>
			</g>
			<g>
				<path class="st0" d="M14.2,194.2c4.1,0,7.7-1.7,10.3-4.4c-0.9-3.1-1.4-6.4-1.4-9.8s0.5-6.7,1.4-9.8c-2.6-2.7-6.2-4.4-10.3-4.4
					C6.4,165.8,0,172.1,0,180C0,187.9,6.4,194.2,14.2,194.2z"/>
			</g>
		</g>
	</g>
</g>
</svg>
