<?xml version="1.0" encoding="utf-8"?>
<!-- Generator: Adobe Adobe Illustrator 24.2.0, SVG Export Plug-In . SVG Version: 6.00 Build 0)  -->
<svg version="1.1" id="Layer_1" xmlns="http://www.w3.org/2000/svg" xmlns:xlink="http://www.w3.org/1999/xlink" x="0px" y="0px"
	 width="1285.67px" height="500px" viewBox="0 0 1285.67 500" style="enable-background:new 0 0 1285.67 500;" xml:space="preserve"
	>
<style type="text/css">
	.st0{fill:#060018;}
	.st1{fill:none;stroke:#000000;stroke-width:7;stroke-miterlimit:10;}
	.st2{stroke:#FFFFFF;stroke-miterlimit:10;}
	.st3{fill:#FF9A2C;}
	.st4{fill:#606060;}
	.st5{fill:#810000;}
	.st6{fill:#800000;}
	.st7{fill:#FF9930;}
	.st8{fill:#FF9930;stroke:#800000;stroke-width:0.512;stroke-miterlimit:10;}
	.st9{fill:#FF9930;stroke:#800000;stroke-width:0.183;stroke-miterlimit:10;}
	.st10{fill:#FF9930;stroke:#800000;stroke-width:0.512;stroke-linecap:round;stroke-linejoin:round;stroke-miterlimit:10;}
	.st11{fill:#FF9930;stroke:#800000;stroke-width:0.155;stroke-miterlimit:10;}
	.st12{fill:#FF9930;stroke:#800000;stroke-width:0.127;stroke-miterlimit:10;}
	.st13{fill:#5B2A5D;}
	.st14{fill:#001754;}
	.st15{fill:none;stroke:#001754;stroke-width:3;stroke-miterlimit:10;}
	.st16{fill:#E4E4E4;}
</style>
<g>
	<g>
		<g>
			<g>
				<g>
					<path class="st13" d="M349.55,254.85c2.44,4.06,3.68,8.84,3.18,13.56c-0.85,9.36-8.85,17.19-18.21,18.1
						c-15.02,1.69-26.1-15.85-16.72-28.23c1.55-2.04,3.6-3.7,5.92-4.85c1.54-0.95,3.33-1.57,5.27-1.72
						c6.43-0.5,12.05,4.32,12.54,10.75c0.5,6.43-4.32,12.05-10.75,12.55c-0.45,0.04-0.89,0.04-1.33,0.02
						c3.81,2.8,9.77,1.22,12.82-2.34c2.95-3.15,3.67-7.85,2.55-11.96c-0.89-3.5-2.82-6.46-5.39-8.65
						c-18.25-5.61-50.67-6.19-67.94-6.06c-0.25,25.09-0.14,84.01,6,104.02c2.19,2.56,5.15,4.49,8.65,5.39
						c4.11,1.12,8.81,0.4,11.96-2.55c3.55-3.05,5.14-9.01,2.34-12.82c0.02,0.44,0.01,0.88-0.02,1.33
						c-0.5,6.43-6.12,11.25-12.55,10.75c-6.43-0.49-11.25-6.11-10.75-12.54c0.15-1.93,0.76-3.72,1.72-5.27
						c1.14-2.32,2.8-4.37,4.85-5.92c12.38-9.37,29.92,1.7,28.23,16.72c-0.92,9.36-8.74,17.37-18.1,18.21
						c-4.72,0.5-9.5-0.74-13.56-3.18c-0.62-0.91-1.31-1.78-2.07-2.6c-1.49-1.6-3.24-2.99-5.19-4.13c-3.75-2.2-8.24-3.48-13.08-3.48
						s-9.33,1.28-13.08,3.48c-1.96,1.14-3.7,2.53-5.19,4.13c-0.76,0.82-1.45,1.69-2.07,2.6c-4.06,2.44-8.84,3.68-13.56,3.18
						c-9.36-0.85-17.19-8.85-18.1-18.21c-1.69-15.02,15.85-26.1,28.23-16.72c2.05,1.56,3.72,3.62,4.86,5.95
						c0,0.01,0.01,0.01,0.01,0.02c0.94,1.53,1.54,3.3,1.69,5.22c0.5,6.43-4.32,12.05-10.75,12.54c-6.43,0.5-12.05-4.32-12.55-10.75
						c-0.04-0.44-0.04-0.89-0.03-1.33c-2.8,3.81-1.21,9.76,2.34,12.81c3.15,2.95,7.85,3.67,11.96,2.55c3.51-0.9,6.47-2.83,8.66-5.4
						c6.15-20.01,6.25-78.92,6-104.01c-17.27-0.13-49.7,0.45-67.95,6.06c-2.56,2.19-4.49,5.15-5.39,8.65
						c-1.12,4.11-0.4,8.81,2.55,11.96c3.05,3.55,9.01,5.14,12.82,2.34c-0.44,0.02-0.88,0.01-1.33-0.02
						c-6.43-0.5-11.25-6.12-10.75-12.55c0.49-6.43,6.11-11.25,12.54-10.75c1.93,0.15,3.72,0.76,5.27,1.72
						c2.32,1.14,4.37,2.8,5.92,4.85c9.37,12.38-1.7,29.92-16.72,28.23c-9.36-0.92-17.37-8.74-18.21-18.1
						c-0.5-4.72,0.74-9.5,3.18-13.56c0.91-0.62,1.78-1.31,2.6-2.07c1.6-1.49,2.99-3.24,4.13-5.19c2.2-3.75,3.48-8.24,3.48-13.08
						c0-4.83-1.28-9.33-3.48-13.08c-1.14-1.96-2.53-3.7-4.13-5.19c-0.82-0.76-1.69-1.45-2.6-2.07c-2.44-4.06-3.68-8.84-3.18-13.56
						c0.85-9.36,8.85-17.19,18.21-18.1c15.02-1.69,26.1,15.85,16.72,28.23c-1.56,2.05-3.62,3.72-5.95,4.86
						c-0.01,0-0.01,0.01-0.02,0.01c-1.53,0.94-3.3,1.54-5.22,1.69c-6.43,0.5-12.05-4.32-12.54-10.75
						c-0.5-6.43,4.32-12.05,10.75-12.55c0.44-0.04,0.89-0.04,1.33-0.03c-3.81-2.8-9.76-1.21-12.81,2.34
						c-2.95,3.15-3.67,7.85-2.55,11.96c0.9,3.51,2.83,6.47,5.4,8.66c18.27,5.61,50.73,6.19,67.99,6.05
						c0.14-17.26-0.44-49.72-6.05-67.99c-2.19-2.57-5.15-4.5-8.66-5.4c-4.11-1.12-8.81-0.4-11.96,2.55
						c-3.55,3.05-5.14,9.01-2.34,12.81c-0.01-0.44-0.01-0.88,0.03-1.33c0.5-6.43,6.12-11.25,12.55-10.75
						c6.43,0.49,11.25,6.11,10.75,12.54c-0.15,1.92-0.75,3.69-1.69,5.22c-0.01,0.01-0.01,0.01-0.01,0.02
						c-1.14,2.33-2.8,4.4-4.86,5.95c-12.38,9.37-29.92-1.7-28.23-16.72c0.92-9.36,8.74-17.37,18.1-18.21
						c4.72-0.5,9.5,0.74,13.56,3.18c0.62,0.91,1.31,1.78,2.07,2.6c1.49,1.6,3.24,2.99,5.19,4.13c3.75,2.2,8.24,3.48,13.08,3.48
						s9.33-1.28,13.08-3.48c1.96-1.14,3.7-2.53,5.19-4.13c0.76-0.82,1.45-1.69,2.07-2.6c4.06-2.44,8.84-3.68,13.56-3.18
						c9.36,0.85,17.19,8.85,18.1,18.21c1.69,15.02-15.85,26.1-28.23,16.72c-2.04-1.55-3.7-3.6-4.85-5.92
						c-0.95-1.54-1.57-3.33-1.72-5.27c-0.5-6.43,4.32-12.05,10.75-12.54c6.43-0.5,12.05,4.32,12.55,10.75
						c0.04,0.45,0.04,0.89,0.02,1.33c2.8-3.81,1.22-9.77-2.34-12.82c-3.15-2.95-7.85-3.67-11.96-2.55c-3.5,0.89-6.45,2.82-8.65,5.39
						c-5.61,18.27-6.19,50.75-6.06,68c17.26,0.14,49.72-0.44,67.98-6.05c2.57-2.19,4.5-5.15,5.4-8.66c1.12-4.11,0.4-8.81-2.55-11.96
						c-3.05-3.55-9.01-5.14-12.81-2.34c0.44-0.01,0.88-0.01,1.33,0.03c6.43,0.5,11.25,6.12,10.75,12.55
						c-0.49,6.43-6.11,11.25-12.54,10.75c-1.92-0.15-3.69-0.75-5.22-1.69c-0.01-0.01-0.01-0.01-0.02-0.01
						c-2.33-1.14-4.4-2.8-5.95-4.86c-9.37-12.38,1.7-29.92,16.72-28.23c9.36,0.92,17.37,8.74,18.21,18.1
						c0.5,4.72-0.74,9.5-3.18,13.56c-0.91,0.62-1.78,1.31-2.6,2.07c-1.6,1.49-2.99,3.24-4.13,5.19c-2.2,3.75-3.48,8.24-3.48,13.08
						c0,4.83,1.28,9.33,3.48,13.08c1.14,1.96,2.53,3.7,4.13,5.19C347.77,253.54,348.64,254.23,349.55,254.85z"/>
				</g>
				<g>
					<path class="st13" d="M281.7,134.38c0,5.07-2.32,9.68-6.08,13.07c-3.97,3.58-9.55,5.81-15.71,5.81
						c-6.17,0-11.75-2.23-15.71-5.81c-3.76-3.39-6.08-8-6.08-13.07c0-8.67,6.78-15.98,15.98-18.2h0.01c1.85-0.44,3.8-0.68,5.81-0.68
						c2.01,0,3.96,0.23,5.81,0.68h0.01C274.92,118.4,281.7,125.71,281.7,134.38z"/>
				</g>
				<g>
					<path class="st13" d="M270.92,106.82c0,3.15-1.32,5.98-3.43,7.98c-2.38-0.71-4.94-1.1-7.6-1.1c-2.66,0-5.21,0.38-7.6,1.1
						c-2.11-2-3.43-4.83-3.43-7.98c0-6.09,4.94-11.02,11.02-11.02C265.99,95.79,270.92,100.73,270.92,106.82z"/>
				</g>
				<g>
					<g>
						<path class="st13" d="M281.7,370.65c0-5.07-2.32-9.68-6.08-13.07c-3.97-3.58-9.55-5.81-15.71-5.81
							c-6.17,0-11.75,2.23-15.71,5.81c-3.76,3.39-6.08,8-6.08,13.07c0,8.67,6.78,15.98,15.98,18.2h0.01
							c1.85,0.44,3.8,0.68,5.81,0.68c2.01,0,3.96-0.23,5.81-0.68h0.01C274.92,386.64,281.7,379.32,281.7,370.65z"/>
					</g>
					<g>
						<path class="st13" d="M270.92,398.21c0-3.15-1.32-5.98-3.43-7.98c-2.38,0.71-4.94,1.1-7.6,1.1c-2.66,0-5.21-0.38-7.6-1.1
							c-2.11,2-3.43,4.83-3.43,7.98c0,6.09,4.94,11.02,11.02,11.02C265.99,409.24,270.92,404.3,270.92,398.21z"/>
					</g>
				</g>
				<g>
					<g>
						<path class="st13" d="M360.02,256.3c-5.07,0-9.68-2.32-13.07-6.08c-3.58-3.97-5.81-9.55-5.81-15.71
							c0-6.17,2.23-11.75,5.81-15.71c3.39-3.76,8-6.08,13.07-6.08c8.67,0,15.98,6.78,18.2,15.98v0.01c0.44,1.85,0.68,3.8,0.68,5.81
							c0,2.01-0.23,3.96-0.68,5.81v0.01C376.01,249.52,368.69,256.3,360.02,256.3z"/>
					</g>
					<g>
						<path class="st13" d="M387.58,245.53c-3.15,0-5.98-1.32-7.98-3.43c0.71-2.38,1.1-4.94,1.1-7.6c0-2.66-0.38-5.21-1.1-7.6
							c2-2.11,4.83-3.43,7.98-3.43c6.09,0,11.02,4.94,11.02,11.02C398.61,240.59,393.67,245.53,387.58,245.53z"/>
					</g>
				</g>
				<g>
					<path class="st13" d="M159.78,256.3c5.07,0,9.68-2.32,13.07-6.08c3.58-3.97,5.81-9.55,5.81-15.71c0-6.17-2.23-11.75-5.81-15.71
						c-3.39-3.76-8-6.08-13.07-6.08c-8.67,0-15.98,6.78-18.2,15.98v0.01c-0.44,1.85-0.68,3.8-0.68,5.81c0,2.01,0.23,3.96,0.68,5.81
						v0.01C143.79,249.52,151.11,256.3,159.78,256.3z"/>
				</g>
				<g>
					<path class="st13" d="M132.22,245.53c3.15,0,5.98-1.32,7.98-3.43c-0.71-2.38-1.1-4.94-1.1-7.6c0-2.66,0.38-5.21,1.1-7.6
						c-2-2.11-4.83-3.43-7.98-3.43c-6.09,0-11.02,4.94-11.02,11.02C121.19,240.59,126.13,245.53,132.22,245.53z"/>
				</g>
			</g>
		</g>
		<g>
			<g>
				<g>
					<g>
						<g>
							<g>
								<g>
									<path class="st13" d="M241.14,387.03l0.77,3.25c0,0-21.02-0.03-22.75-0.09c-8.09-0.29-25.86-1.46-38.66-6.15
										c-17.07-6.26-32.04-21.38-28.91-37.68c3.62,5.31,5.62,6.91,10.84,10.04c2.57-4.62,5.77-6.72,9.73-7.36
										c4.37-0.78,8.94,1.9,10.53,6.06c2.65,6.65-3.97,13.88-10.8,11.15c-1.12-0.46-2.13-1.18-2.93-2.08
										c-0.01-0.01-0.02-0.02-0.02-0.03c-0.63-0.57-1.13-1.31-1.44-2.17c-1.03-2.88,0.47-6.04,3.35-7.07
										c2.87-1.04,6.04,0.47,7.07,3.34c0.07,0.21,0.13,0.4,0.17,0.61c0.81-2.09-0.65-4.62-2.66-5.56
										c-1.81-0.96-4.04-0.69-5.78,0.33c-1.68,0.95-2.87,2.41-3.51,4.1c-2.1,6.17,1.71,16.56,17.78,22.36
										c14.58,5.26,28.44,6.56,35.22,6.88C221.03,387.02,241.14,387.03,241.14,387.03z"/>
								</g>
							</g>
						</g>
					</g>
					<g>
						<path class="st13" d="M175.31,313.2c-7.5-5.39-18.66-4.85-25.69,0.81c-1.25,0.95-2.36,2.04-3.33,3.24
							c0.55-1.59,0.93-3.25,1.14-4.95c1.57-10.86-4.76-22.88-15.04-27.39c-9.86-4.49-22.26-0.95-28.53,7.9
							c-10.27,14.08,0.97,35.19,18.71,32.87c2.98-0.39,5.87-1.54,8.36-3.25c1.79-0.99,3.37-2.41,4.6-4.2
							c4.17-6.15,2.56-14.53-3.6-18.7c-6.15-4.17-14.53-2.56-18.7,3.6c-0.29,0.43-0.55,0.87-0.79,1.31
							c-0.63-5.41,4.36-10.48,9.66-11.49c4.85-1.16,9.95,0.81,13.43,4.28c7.54,7.3,11.62,25.6-10.7,32.43
							c10.76,4.41,6.91,15.14,13,30.81c-5.22-14.36,5.88-18.69,12.92-15c-9.13-9.32-5.28-18.72-5.28-18.72
							c2.95-8.18,11.48-12.92,19.81-10.63c3.91,1.01,7.44,3.8,8.65,7.72c1.49,4.19,0,9.84-4.11,11.65c0.22-0.35,0.43-0.72,0.61-1.11
							c2.62-5.54,0.25-12.14-5.28-14.75c-5.54-2.61-12.14-0.25-14.75,5.29c-0.77,1.63-1.11,3.35-1.06,5.03
							c-0.16,2.48,0.24,5,1.21,7.26c5.79,13.54,25.43,12.66,31.1-0.51C185.3,328.56,182.62,318.3,175.31,313.2z"/>
					</g>
					<g>
						<path class="st13" d="M240.37,402.1c-8.72-0.03-20.74-0.06-21.97-0.09c-12.97-0.26-47.82,1.06-66.12,21.09
							c-6.52,7.14-10.97,14.1-14.1,20.68c-1.25,2.61-3.86,4.3-6.77,4.3h-7.33c4.13-10.21,9.68-20.95,17.1-30.2
							c9.2-11.47,26.7-17.09,43.2-19.81c-16.48-1.93-33.97-5.91-43.16-14.03c-19.35-17.07-25.9-41.27-28.18-47.53
							c-1.74-4.79-4.14-6.24-5.18-6.67c-0.31-0.13-0.51-0.42-0.51-0.76v-2.75c0-0.59,0.6-0.98,1.14-0.75
							c3.57,1.51,15.11,3.57,19.24,10.1c4.96,7.83,1.82,27.02,24.59,44.67c18.3,14.18,53.15,15.12,66.12,14.94
							c1.22-0.02,13.21-0.04,21.92-0.06c-0.04,0.15-0.06,0.3-0.08,0.47c-0.15,0.97-0.22,1.96-0.22,2.97c0,0.37,0.01,0.73,0.04,1.1
							C240.13,400.54,240.22,401.33,240.37,402.1z"/>
					</g>
					<g>
						<path class="st13" d="M241.19,392.03c-0.27,0.75-0.49,1.52-0.66,2.32c-8.62,0.02-21.69,0.04-22.39,0.06
							c-20.93,0.47-48.63-4.07-62.12-13.79c-14.24-10.24-18.22-26.75-16.25-29.6c1.55-2.12,4.9-5.15,7.16-3.12
							c0.36,5.93,3.06,20.86,20.48,31.58c17.59,10.83,41.98,12.36,51.35,12.53C219.65,392.03,232.64,392.03,241.19,392.03z"/>
					</g>
				</g>
				<g>
					<g>
						<path class="st13" d="M241.71,406.58c-8.53,0-22.07,0.01-23,0.04c-9.36,0.24-33.75,2.4-51.35,17.69
							c-6.92,6.02-11.52,12.97-14.57,19.69c-1.13,2.48-3.57,4.08-6.29,4.08h-4.88c2.49-8.26,7.08-17.98,14.36-25.38
							c13.51-13.73,41.2-20.15,62.13-19.46c0.7,0.03,13.88,0.05,22.5,0.09C240.89,404.45,241.25,405.54,241.71,406.58z"/>
					</g>
					<g>
						<path class="st13" d="M246.94,413.65c-7.58-0.01-25.67-0.02-27.84,0.13c-6.79,0.45-20.64,2.28-35.22,9.72
							c-9.4,4.79-13.89,12.45-15.99,19.35c-0.95,3.08-3.73,5.22-6.95,5.22h-3.94c4.18-9.49,12.22-24.38,23.47-30.2
							c12.81-6.64,30.58-8.28,38.67-8.68c1.81-0.09,15.28-0.12,23.9-0.13C244.09,410.79,245.41,412.34,246.94,413.65z"/>
					</g>
				</g>
			</g>
			<g>
				<g>
					<g>
						<g>
							<g>
								<g>
									<path class="st13" d="M278.66,387.03l-0.77,3.25c0,0,21.02-0.03,22.75-0.09c8.09-0.29,25.86-1.46,38.66-6.15
										c17.07-6.26,32.04-21.38,28.91-37.68c-3.62,5.31-5.62,6.91-10.84,10.04c-2.57-4.62-5.77-6.72-9.73-7.36
										c-4.37-0.78-8.94,1.9-10.53,6.06c-2.65,6.65,3.97,13.88,10.8,11.15c1.12-0.46,2.13-1.18,2.93-2.08
										c0.01-0.01,0.02-0.02,0.02-0.03c0.63-0.57,1.13-1.31,1.44-2.17c1.03-2.88-0.47-6.04-3.35-7.07
										c-2.87-1.04-6.04,0.47-7.07,3.34c-0.07,0.21-0.13,0.4-0.17,0.61c-0.81-2.09,0.65-4.62,2.66-5.56
										c1.81-0.96,4.04-0.69,5.78,0.33c1.68,0.95,2.87,2.41,3.51,4.1c2.1,6.17-1.71,16.56-17.78,22.36
										c-14.58,5.26-28.44,6.56-35.22,6.88C298.77,387.02,278.66,387.03,278.66,387.03z"/>
								</g>
							</g>
						</g>
					</g>
					<g>
						<path class="st13" d="M415.94,292.81c-6.27-8.85-18.68-12.39-28.53-7.9c-10.29,4.51-16.62,16.53-15.04,27.39
							c0.21,1.7,0.59,3.35,1.14,4.95c-0.97-1.2-2.08-2.29-3.33-3.24c-7.03-5.66-18.19-6.21-25.69-0.81
							c-7.31,5.11-9.99,15.37-6.35,23.5c5.67,13.17,25.31,14.05,31.1,0.51c0.97-2.26,1.37-4.79,1.21-7.26
							c0.05-1.68-0.29-3.4-1.06-5.03c-2.61-5.54-9.21-7.9-14.75-5.29c-5.53,2.61-7.9,9.21-5.28,14.75c0.18,0.38,0.38,0.76,0.61,1.11
							c-4.11-1.82-5.6-7.47-4.11-11.65c1.21-3.92,4.74-6.71,8.65-7.72c8.33-2.29,16.86,2.44,19.81,10.63c0,0,3.85,9.41-5.28,18.72
							c7.04-3.69,18.14,0.64,12.92,15c6.09-15.67,2.24-26.4,13-30.81c-22.33-6.83-18.24-25.13-10.7-32.43
							c3.48-3.46,8.59-5.44,13.43-4.28c5.3,1.01,10.29,6.08,9.66,11.49c-0.23-0.45-0.5-0.89-0.79-1.31
							c-4.17-6.15-12.55-7.76-18.7-3.6c-6.15,4.17-7.76,12.55-3.6,18.7c1.23,1.8,2.81,3.21,4.6,4.2c2.5,1.71,5.38,2.85,8.36,3.25
							C414.98,328,426.21,306.89,415.94,292.81z"/>
					</g>
					<g>
						<path class="st13" d="M279.43,402.1c8.72-0.03,20.74-0.06,21.97-0.09c12.97-0.26,47.82,1.06,66.12,21.09
							c6.52,7.14,10.97,14.1,14.1,20.68c1.25,2.61,3.86,4.3,6.77,4.3h7.33c-4.13-10.21-9.68-20.95-17.1-30.2
							c-9.2-11.47-26.7-17.09-43.2-19.81c16.48-1.93,33.97-5.91,43.16-14.03c19.35-17.07,25.9-41.27,28.18-47.53
							c1.74-4.79,4.14-6.24,5.18-6.67c0.31-0.13,0.51-0.42,0.51-0.76v-2.75c0-0.59-0.6-0.98-1.14-0.75
							c-3.57,1.51-15.11,3.57-19.24,10.1c-4.96,7.83-1.82,27.02-24.59,44.67c-18.3,14.18-53.15,15.12-66.12,14.94
							c-1.22-0.02-13.21-0.04-21.92-0.06c0.04,0.15,0.06,0.3,0.08,0.47c0.15,0.97,0.22,1.96,0.22,2.97c0,0.37-0.01,0.73-0.04,1.1
							C279.67,400.54,279.58,401.33,279.43,402.1z"/>
					</g>
					<g>
						<path class="st13" d="M278.61,392.03c0.27,0.75,0.49,1.52,0.66,2.32c8.62,0.02,21.69,0.04,22.39,0.06
							c20.93,0.47,48.63-4.07,62.12-13.79c14.24-10.24,18.22-26.75,16.25-29.6c-1.55-2.12-4.9-5.15-7.16-3.12
							c-0.36,5.93-3.06,20.86-20.48,31.58c-17.59,10.83-41.98,12.36-51.35,12.53C300.15,392.03,287.16,392.03,278.61,392.03z"/>
					</g>
				</g>
				<g>
					<g>
						<path class="st13" d="M278.09,406.58c8.53,0,22.07,0.01,23,0.04c9.36,0.24,33.75,2.4,51.35,17.69
							c6.92,6.02,11.52,12.97,14.57,19.69c1.13,2.48,3.57,4.08,6.29,4.08h4.88c-2.49-8.26-7.08-17.98-14.36-25.38
							c-13.51-13.73-41.2-20.15-62.13-19.46c-0.7,0.03-13.88,0.05-22.5,0.09C278.91,404.45,278.55,405.54,278.09,406.58z"/>
					</g>
					<g>
						<path class="st13" d="M272.86,413.65c7.58-0.01,25.67-0.02,27.84,0.13c6.79,0.45,20.64,2.28,35.22,9.72
							c9.4,4.79,13.89,12.45,15.99,19.35c0.95,3.08,3.73,5.22,6.95,5.22h3.94c-4.18-9.49-12.22-24.38-23.47-30.2
							c-12.81-6.64-30.58-8.28-38.67-8.68c-1.81-0.09-15.28-0.12-23.9-0.13C275.71,410.79,274.39,412.34,272.86,413.65z"/>
					</g>
				</g>
			</g>
		</g>
		<g>
			<rect x="220.77" y="418.8" class="st13" width="78.25" height="7.52"/>
		</g>
		<g>
			<rect x="204.26" y="429.68" class="st13" width="111.28" height="7.52"/>
		</g>
		<g>
			<rect x="186.48" y="440.56" class="st13" width="146.83" height="7.52"/>
		</g>
		<g>
			<path class="st13" d="M282.7,62.73c-0.32-1.35-2-1.84-3-0.87c-3.74,3.61-7.83,5.14-12.02,5.57c-0.55-1.22-1.23-2.3-2.02-3.2
				c0.42-3.14,1.6-5.94,3.27-8.05c0.56-0.71,0.34-1.75-0.46-2.18c-2.41-1.31-5.37-2.07-8.57-2.07c-3.2,0-6.15,0.77-8.57,2.07
				c-0.79,0.43-1.02,1.47-0.46,2.18c1.67,2.11,2.85,4.91,3.27,8.06c-0.79,0.9-1.47,1.98-2.02,3.2c-4.19-0.43-8.28-1.96-12.02-5.57
				c-1-0.97-2.69-0.48-3,0.87c-2.07,8.87,7.4,23.73,10.83,22.57c1.7-0.58,4.14-0.63,6.31-0.51c0.65,0.72,1.37,1.32,2.14,1.77
				c-0.32,0.74-0.51,1.6-0.51,2.51c0,2.28,1.14,4.21,2.73,4.9l0.73,2.97c0.14,0.59,0.98,0.59,1.13,0l0.73-2.97
				c1.59-0.69,2.73-2.62,2.73-4.9c0-0.91-0.18-1.77-0.51-2.51c0.77-0.45,1.49-1.05,2.14-1.77c2.17-0.12,4.61-0.07,6.31,0.51
				C275.3,86.45,284.77,71.59,282.7,62.73z"/>
		</g>
	</g>
	<g>
		<g>
			<g>
				<path class="st13" d="M532.1,237.68c-6.7,0-12.47-0.84-17.3-2.51c-4.83-1.67-8.65-3.21-11.45-4.62
					c0.62-3.43,0.91-6.99,0.88-10.7c-0.04-3.7-0.53-7.38-1.46-11.05h4.09c0.39,4.83,1.62,9.14,3.68,12.91
					c2.06,3.78,4.91,6.74,8.53,8.88c3.62,2.14,7.97,3.21,13.03,3.21c2.26,0,4.6-0.45,7.01-1.34c2.41-0.9,4.46-2.36,6.14-4.38
					c1.67-2.03,2.51-4.68,2.51-7.95c0-2.88-0.6-5.26-1.81-7.13c-1.21-1.87-3.35-3.6-6.43-5.2c-3.08-1.6-7.42-3.33-13.03-5.2
					c-7.09-2.41-12.51-5.32-16.25-8.71c-3.74-3.39-5.61-8.2-5.61-14.43c0-4.05,0.99-7.81,2.98-11.28c1.99-3.47,4.95-6.27,8.88-8.42
					c3.93-2.14,8.75-3.21,14.43-3.21c3.12,0,5.67,0.31,7.66,0.93c1.99,0.62,3.68,1.29,5.09,1.99c1.17,0.55,2.22,1.03,3.16,1.46
					c0.93,0.43,1.91,0.64,2.92,0.64l3.74-0.7l0.35,0.23c-0.16,0.78-0.27,1.72-0.35,2.8c-0.08,1.09-0.12,2.1-0.12,3.04
					c0,2.42,0.17,4.77,0.53,7.07s0.88,4.89,1.58,7.77h-3.16c-1.17-4.52-2.82-8.36-4.97-11.51c-2.14-3.16-4.62-5.59-7.42-7.31
					c-2.81-1.71-5.88-2.57-9.23-2.57c-3.04,0-5.63,0.66-7.77,1.99c-2.15,1.33-3.76,3-4.85,5.03c-1.09,2.03-1.64,4.13-1.64,6.31
					c0,2.73,0.51,4.95,1.52,6.66c1.01,1.72,2.94,3.27,5.79,4.68c2.84,1.4,6.95,3,12.33,4.79c5.69,1.87,10.17,3.9,13.44,6.08
					c3.27,2.18,5.61,4.68,7.01,7.48c1.4,2.8,2.1,6.16,2.1,10.05c0,4.91-1.11,9.18-3.33,12.8c-2.22,3.62-5.32,6.43-9.29,8.42
					C542.03,236.69,537.39,237.68,532.1,237.68z"/>
			</g>
			<g>
				<path class="st13" d="M574.41,266.79c-2.73,0-4.79-0.82-6.19-2.45c-1.4-1.64-2.1-3.39-2.1-5.26c0-2.1,0.64-3.92,1.93-5.43
					c1.29-1.52,2.94-2.28,4.97-2.28c1.25,0,2.3,0.19,3.16,0.58c0.86,0.39,1.56,0.89,2.1,1.52c0.54,0.54,1.01,0.93,1.4,1.17
					c0.39,0.23,0.78,0.35,1.17,0.35c1.17,0,2.26-1.13,3.27-3.39l7.36-16.36l-18.82-45.24c-0.31-0.7-0.74-1.23-1.29-1.58
					c-0.55-0.35-1.29-0.64-2.22-0.88l-3.62-0.82v-1.99h28.87v1.99l-2.45,0.58c-1.25,0.31-2.26,0.86-3.04,1.64
					c-0.78,0.78-0.9,1.95-0.35,3.51l11.92,30.97h-3.16l13.91-32.03c0.47-1.09,0.56-1.93,0.29-2.51c-0.27-0.58-1.07-0.99-2.4-1.23
					l-5.26-0.94v-1.99h21.51v1.99l-4.79,1.4c-1.01,0.31-1.75,0.64-2.22,0.99c-0.47,0.35-0.86,0.88-1.17,1.58l-28.87,63.82
					c-1.48,3.35-3.02,5.9-4.62,7.66c-1.6,1.75-3.18,2.96-4.73,3.62C577.41,266.46,575.89,266.79,574.41,266.79z"/>
			</g>
			<g>
				<path class="st13" d="M629.46,236.4v-1.99l3.74-1.4c1.17-0.47,1.99-1.05,2.45-1.75c0.47-0.7,0.7-1.67,0.7-2.92V194.9
					c0-1.64-0.27-2.73-0.82-3.27c-0.55-0.54-1.33-0.93-2.34-1.17l-3.74-0.93v-2.1c3.04-0.47,5.63-0.88,7.77-1.23
					c2.14-0.35,4.19-0.78,6.14-1.29c1.95-0.51,4.05-1.15,6.31-1.93l1.17,0.93c-0.55,0.86-0.96,2.18-1.23,3.97
					c-0.27,1.79-0.41,3.74-0.41,5.84v1.17l0.82,2.57v31.67c0,0.86,0.31,1.6,0.94,2.22c0.62,0.62,1.56,1.17,2.8,1.64l4.32,1.4v1.99
					H629.46z M650.03,206.12l-1.99-11.92l13.91-8.65c1.25-0.78,2.3-1.29,3.16-1.52c0.86-0.23,1.67-0.35,2.46-0.35
					c1.95,0,3.72,0.82,5.32,2.46c1.6,1.64,2.4,3.66,2.4,6.08c0,1.95-0.76,3.72-2.28,5.32c-1.52,1.6-3.53,2.4-6.02,2.4
					c-1.48,0-2.75-0.35-3.8-1.05c-1.05-0.7-1.97-1.44-2.75-2.22c-0.55-0.62-1.13-1.23-1.75-1.81c-0.62-0.58-1.33-0.88-2.1-0.88
					c-0.7,0-1.56,0.27-2.57,0.82c-1.01,0.55-1.93,1.7-2.75,3.45C650.44,199.99,650.03,202.62,650.03,206.12z"/>
			</g>
			<g>
				<path class="st13" d="M704.5,237.33c-5.22,0-9.82-1.17-13.79-3.51c-3.97-2.34-7.05-5.49-9.23-9.47
					c-2.18-3.97-3.27-8.45-3.27-13.44c0-5.38,1.09-10.11,3.27-14.2c2.18-4.09,5.26-7.29,9.23-9.58c3.97-2.3,8.57-3.45,13.79-3.45
					c5.3,0,9.94,1.15,13.91,3.45c3.97,2.3,7.05,5.43,9.23,9.41c2.18,3.97,3.27,8.46,3.27,13.44c0,5.3-1.09,10.01-3.27,14.14
					c-2.18,4.13-5.26,7.36-9.23,9.7C714.44,236.16,709.8,237.33,704.5,237.33z M704.62,233.59c3.74,0,6.56-1.81,8.47-5.43
					c1.91-3.62,2.86-9.25,2.86-16.89c0-7.87-0.95-13.81-2.86-17.82c-1.91-4.01-4.81-6.02-8.71-6.02c-3.66,0-6.45,1.79-8.36,5.38
					c-1.91,3.58-2.86,9.2-2.86,16.83c0,7.87,0.95,13.83,2.86,17.88C697.93,231.57,700.8,233.59,704.62,233.59z"/>
			</g>
		</g>
		<g>
			<g>
				<path class="st13" d="M812.39,237.1l-28.75-63.35l-3.39,51.9c-0.08,1.95,0.43,3.41,1.52,4.38c1.09,0.98,2.69,1.66,4.79,2.05
					l8.53,1.75v2.57h-32.14v-2.57l6.78-1.52c1.4-0.31,2.55-0.72,3.45-1.23c0.9-0.51,1.58-1.19,2.05-2.05
					c0.47-0.86,0.74-1.99,0.82-3.39l3.51-57.16c0.16-2.49-0.18-4.13-0.99-4.91c-0.82-0.78-2.59-1.44-5.32-1.99l-5.96-1.29v-2.57
					l27.47,0.12l24.66,54.12l21.86-54.23h28.29v2.57l-5.96,1.29c-2.65,0.55-4.38,1.21-5.2,1.99c-0.82,0.78-1.19,2.42-1.11,4.91
					l2.34,57.16c0.08,1.64,0.27,2.88,0.58,3.74c0.31,0.86,0.89,1.5,1.75,1.93c0.86,0.43,2.18,0.84,3.97,1.23l5.96,1.29v2.57h-40.91
					v-2.57l5.96-1.29c2.73-0.62,4.5-1.32,5.32-2.1c0.82-0.78,1.15-2.38,0.99-4.79l-2.57-54.59l-26.53,66.04H812.39z"/>
			</g>
			<g>
				<path class="st13" d="M893.28,237.22c-3.04,0-5.73-0.8-8.07-2.4c-2.34-1.6-4.17-3.7-5.49-6.31c-1.33-2.61-1.99-5.43-1.99-8.47
					c0-1.4,0.14-2.4,0.41-2.98c0.27-0.58,0.72-0.99,1.34-1.23l24.08-9c1.4-0.54,2.32-1.13,2.75-1.75c0.43-0.62,0.64-1.52,0.64-2.69
					v-4.33c0-3.43-0.8-6.06-2.4-7.89s-4.03-2.75-7.31-2.75c-2.18,0-3.94,0.45-5.26,1.34c-1.32,0.9-1.99,1.89-1.99,2.98
					c0,0.55,0.16,1.07,0.47,1.58c0.31,0.51,0.66,1.03,1.05,1.58c0.62,0.78,1.13,1.58,1.52,2.4c0.39,0.82,0.58,1.7,0.58,2.63
					c0,1.87-0.68,3.33-2.05,4.38c-1.36,1.05-3.06,1.58-5.08,1.58c-2.1,0-3.74-0.58-4.91-1.75c-1.17-1.17-1.75-2.81-1.75-4.91
					c0-2.88,1.03-5.51,3.1-7.89c2.06-2.38,4.71-4.27,7.95-5.67c3.23-1.4,6.52-2.1,9.88-2.1c3.51,0,6.76,0.57,9.76,1.7
					c3,1.13,5.43,2.86,7.31,5.2c1.87,2.34,2.8,5.42,2.8,9.23v25.36c0,1.48,0.16,2.75,0.47,3.8c0.31,1.05,1.17,1.58,2.57,1.58
					c1.17,0,2.8-0.31,4.91-0.94v2.92c-1.56,0.94-3.58,1.95-6.08,3.04c-2.49,1.09-4.75,1.64-6.78,1.64c-1.56,0-2.9-0.31-4.03-0.94
					c-1.13-0.62-2.01-1.69-2.63-3.21c-0.62-1.52-0.98-3.53-1.05-6.02v-1.75l3.27,2.69c-1.79,1.48-3.68,2.94-5.67,4.38
					c-1.99,1.44-4.01,2.63-6.08,3.56C897.46,236.75,895.38,237.22,893.28,237.22z M899.82,230.2c1.09,0,2.06-0.19,2.92-0.58
					c0.86-0.39,1.83-0.93,2.92-1.64c0.86-0.62,1.29-1.71,1.29-3.27V210.8c0-0.23-0.06-0.41-0.17-0.53c-0.12-0.12-0.29-0.1-0.53,0.06
					l-13.91,5.03c-0.47,0.16-0.8,0.47-0.99,0.93c-0.19,0.47-0.29,1.33-0.29,2.57c0,1.87,0.39,3.66,1.17,5.38
					c0.78,1.72,1.85,3.14,3.21,4.27C896.8,229.64,898.26,230.2,899.82,230.2z"/>
			</g>
			<g>
				<path class="st13" d="M933.25,236.4v-1.99l3.74-1.4c1.09-0.39,1.89-0.99,2.4-1.81c0.51-0.82,0.76-1.77,0.76-2.86v-63
					c0-1.64-0.27-2.73-0.82-3.27c-0.55-0.54-1.33-0.93-2.34-1.17l-3.74-0.93v-2.1c4.44-0.62,8.22-1.21,11.34-1.75
					c3.12-0.54,6.35-1.44,9.7-2.69l1.17,0.93c-0.55,0.86-0.95,2.18-1.23,3.97c-0.27,1.79-0.41,3.74-0.41,5.84v64.99
					c0,1.09,0.37,1.95,1.11,2.57c0.74,0.62,1.42,1.05,2.05,1.29l3.74,1.4v1.99H933.25z"/>
			</g>
			<g>
				<path class="st13" d="M980.36,237.22c-3.04,0-5.73-0.8-8.06-2.4c-2.34-1.6-4.17-3.7-5.49-6.31c-1.33-2.61-1.99-5.43-1.99-8.47
					c0-1.4,0.14-2.4,0.41-2.98c0.27-0.58,0.72-0.99,1.34-1.23l24.08-9c1.4-0.54,2.32-1.13,2.75-1.75c0.43-0.62,0.64-1.52,0.64-2.69
					v-4.33c0-3.43-0.8-6.06-2.4-7.89s-4.03-2.75-7.31-2.75c-2.18,0-3.94,0.45-5.26,1.34c-1.32,0.9-1.99,1.89-1.99,2.98
					c0,0.55,0.16,1.07,0.47,1.58c0.31,0.51,0.66,1.03,1.05,1.58c0.62,0.78,1.13,1.58,1.52,2.4c0.39,0.82,0.58,1.7,0.58,2.63
					c0,1.87-0.68,3.33-2.05,4.38c-1.36,1.05-3.06,1.58-5.08,1.58c-2.1,0-3.74-0.58-4.91-1.75c-1.17-1.17-1.75-2.81-1.75-4.91
					c0-2.88,1.03-5.51,3.1-7.89c2.06-2.38,4.71-4.27,7.95-5.67c3.23-1.4,6.52-2.1,9.88-2.1c3.51,0,6.76,0.57,9.76,1.7
					c3,1.13,5.43,2.86,7.31,5.2c1.87,2.34,2.8,5.42,2.8,9.23v25.36c0,1.48,0.16,2.75,0.47,3.8c0.31,1.05,1.17,1.58,2.57,1.58
					c1.17,0,2.8-0.31,4.91-0.94v2.92c-1.56,0.94-3.58,1.95-6.08,3.04c-2.49,1.09-4.75,1.64-6.78,1.64c-1.56,0-2.9-0.31-4.03-0.94
					c-1.13-0.62-2.01-1.69-2.63-3.21c-0.62-1.52-0.98-3.53-1.05-6.02v-1.75l3.27,2.69c-1.79,1.48-3.68,2.94-5.67,4.38
					c-1.99,1.44-4.01,2.63-6.08,3.56C984.54,236.75,982.46,237.22,980.36,237.22z M986.9,230.2c1.09,0,2.06-0.19,2.92-0.58
					c0.86-0.39,1.83-0.93,2.92-1.64c0.86-0.62,1.29-1.71,1.29-3.27V210.8c0-0.23-0.06-0.41-0.17-0.53c-0.12-0.12-0.29-0.1-0.53,0.06
					l-13.91,5.03c-0.47,0.16-0.8,0.47-0.99,0.93c-0.19,0.47-0.29,1.33-0.29,2.57c0,1.87,0.39,3.66,1.17,5.38
					c0.78,1.72,1.85,3.14,3.21,4.27C983.88,229.64,985.34,230.2,986.9,230.2z"/>
			</g>
			<g>
				<path class="st13" d="M1027.34,237.8l-2.46-0.35v-72.12c0-1.64-0.27-2.73-0.82-3.27c-0.55-0.54-1.33-0.93-2.34-1.17l-3.74-0.93
					v-2.1c4.44-0.62,8.22-1.21,11.34-1.75c3.11-0.54,6.35-1.44,9.7-2.69l1.17,0.93c-0.55,0.86-0.96,2.18-1.23,3.97
					c-0.27,1.79-0.41,3.74-0.41,5.84v26.18l9.35-5.26c0.54-0.31,1.23-0.6,2.05-0.88c0.82-0.27,1.62-0.41,2.4-0.41
					c5.84,0,10.65,1.21,14.43,3.62c3.78,2.42,6.59,5.59,8.42,9.53c1.83,3.94,2.75,8.16,2.75,12.68c0,4.52-0.99,8.92-2.98,13.21
					c-1.99,4.29-5.03,7.79-9.12,10.52c-4.09,2.73-9.29,4.09-15.6,4.09c-3.35,0-6.64-0.64-9.88-1.93c-3.23-1.29-5.86-2.86-7.89-4.73
					c-0.94,1.01-1.81,2.1-2.63,3.27C1029.04,235.23,1028.2,236.47,1027.34,237.8z M1050.25,233.36c2.96,0,5.38-0.91,7.25-2.75
					c1.87-1.83,3.25-4.23,4.15-7.19c0.9-2.96,1.34-6.08,1.34-9.35c0-3.82-0.51-7.38-1.52-10.7c-1.01-3.31-2.57-6.02-4.68-8.12
					c-2.1-2.1-4.83-3.16-8.18-3.16c-3.12,0-5.57,1.01-7.36,3.04c-1.79,2.03-2.69,4.4-2.69,7.13v16.01c0,2.73,0.54,5.24,1.64,7.54
					c1.09,2.3,2.53,4.13,4.32,5.49C1046.32,232.68,1048.23,233.36,1050.25,233.36z"/>
			</g>
			<g>
				<path class="st13" d="M1099.93,237.22c-3.04,0-5.73-0.8-8.07-2.4c-2.34-1.6-4.17-3.7-5.49-6.31c-1.33-2.61-1.99-5.43-1.99-8.47
					c0-1.4,0.14-2.4,0.41-2.98c0.27-0.58,0.72-0.99,1.34-1.23l24.08-9c1.4-0.54,2.32-1.13,2.75-1.75c0.43-0.62,0.64-1.52,0.64-2.69
					v-4.33c0-3.43-0.8-6.06-2.4-7.89s-4.03-2.75-7.31-2.75c-2.18,0-3.94,0.45-5.26,1.34c-1.32,0.9-1.99,1.89-1.99,2.98
					c0,0.55,0.16,1.07,0.47,1.58c0.31,0.51,0.66,1.03,1.05,1.58c0.62,0.78,1.13,1.58,1.52,2.4c0.39,0.82,0.58,1.7,0.58,2.63
					c0,1.87-0.68,3.33-2.05,4.38c-1.36,1.05-3.06,1.58-5.08,1.58c-2.1,0-3.74-0.58-4.91-1.75c-1.17-1.17-1.75-2.81-1.75-4.91
					c0-2.88,1.03-5.51,3.1-7.89c2.06-2.38,4.71-4.27,7.95-5.67c3.23-1.4,6.52-2.1,9.88-2.1c3.51,0,6.76,0.57,9.76,1.7
					c3,1.13,5.43,2.86,7.31,5.2c1.87,2.34,2.8,5.42,2.8,9.23v25.36c0,1.48,0.16,2.75,0.47,3.8c0.31,1.05,1.17,1.58,2.57,1.58
					c1.17,0,2.8-0.31,4.91-0.94v2.92c-1.56,0.94-3.58,1.95-6.08,3.04c-2.49,1.09-4.75,1.64-6.78,1.64c-1.56,0-2.9-0.31-4.03-0.94
					c-1.13-0.62-2.01-1.69-2.63-3.21c-0.62-1.52-0.98-3.53-1.05-6.02v-1.75l3.27,2.69c-1.79,1.48-3.68,2.94-5.67,4.38
					c-1.99,1.44-4.01,2.63-6.08,3.56C1104.12,236.75,1102.03,237.22,1099.93,237.22z M1106.47,230.2c1.09,0,2.06-0.19,2.92-0.58
					c0.86-0.39,1.83-0.93,2.92-1.64c0.86-0.62,1.29-1.71,1.29-3.27V210.8c0-0.23-0.06-0.41-0.17-0.53c-0.12-0.12-0.29-0.1-0.53,0.06
					l-13.91,5.03c-0.47,0.16-0.8,0.47-0.99,0.93c-0.19,0.47-0.29,1.33-0.29,2.57c0,1.87,0.39,3.66,1.17,5.38
					c0.78,1.72,1.85,3.14,3.21,4.27C1103.45,229.64,1104.91,230.2,1106.47,230.2z"/>
			</g>
			<g>
				<path class="st13" d="M1139.9,236.4v-1.99l3.74-1.4c1.17-0.47,1.99-1.05,2.45-1.75c0.47-0.7,0.7-1.67,0.7-2.92V194.9
					c0-1.64-0.27-2.73-0.82-3.27c-0.55-0.54-1.33-0.93-2.34-1.17l-3.74-0.93v-2.1c3.04-0.47,5.63-0.88,7.77-1.23
					c2.14-0.35,4.19-0.78,6.14-1.29c1.95-0.51,4.05-1.15,6.31-1.93l1.17,0.93c-0.55,0.86-0.96,2.18-1.23,3.97
					c-0.27,1.79-0.41,3.74-0.41,5.84v1.17l0.82,2.57v31.67c0,0.86,0.31,1.6,0.94,2.22c0.62,0.62,1.56,1.17,2.8,1.64l4.32,1.4v1.99
					H1139.9z M1160.47,206.12l-1.99-11.92l13.91-8.65c1.25-0.78,2.3-1.29,3.16-1.52c0.86-0.23,1.67-0.35,2.46-0.35
					c1.95,0,3.72,0.82,5.32,2.46c1.6,1.64,2.4,3.66,2.4,6.08c0,1.95-0.76,3.72-2.28,5.32c-1.52,1.6-3.53,2.4-6.02,2.4
					c-1.48,0-2.75-0.35-3.8-1.05c-1.05-0.7-1.97-1.44-2.75-2.22c-0.55-0.62-1.13-1.23-1.75-1.81c-0.62-0.58-1.33-0.88-2.1-0.88
					c-0.7,0-1.56,0.27-2.57,0.82c-1.01,0.55-1.93,1.7-2.75,3.45C1160.88,199.99,1160.47,202.62,1160.47,206.12z"/>
			</g>
		</g>
		<g>
			<g>
				<path class="st13" d="M547.76,367.29c-6.78,0-12.99-1.01-18.64-3.04c-5.65-2.03-10.52-4.85-14.61-8.47
					c-4.09-3.62-7.27-7.83-9.53-12.62c-2.26-4.79-3.39-9.95-3.39-15.49c0-5.92,1.13-11.4,3.39-16.42c2.26-5.03,5.45-9.41,9.58-13.15
					c4.13-3.74,8.98-6.64,14.55-8.71c5.57-2.06,11.63-3.1,18.18-3.1c4.44,0,7.93,0.33,10.46,0.99c2.53,0.66,4.66,1.38,6.37,2.16
					c1.4,0.62,2.75,1.19,4.03,1.69c1.29,0.51,2.79,0.76,4.5,0.76c0.86,0,1.62-0.06,2.28-0.17c0.66-0.12,1.38-0.25,2.16-0.41
					l0.47,0.35c-0.86,3.35-1.03,6.86-0.53,10.52c0.51,3.66,1.15,7.4,1.93,11.22h-3.16c-1.87-4.52-4.15-8.51-6.84-11.98
					c-2.69-3.47-5.85-6.17-9.47-8.12c-3.62-1.95-7.85-2.92-12.68-2.92c-5.07,0-9.66,1.52-13.79,4.56
					c-4.13,3.04-7.42,7.35-9.88,12.92c-2.46,5.57-3.68,12.18-3.68,19.81c0,7.01,1.15,13.21,3.45,18.59c2.3,5.38,5.53,9.57,9.7,12.57
					c4.17,3,9.06,4.5,14.67,4.5c3.66,0,7.01-0.6,10.05-1.81c3.04-1.21,5.79-2.88,8.24-5.03c2.45-2.14,4.62-4.62,6.49-7.42
					c1.87-2.8,3.43-5.84,4.68-9.12h3.62c-1.09,3.74-1.95,7.56-2.57,11.45c-0.62,3.9-0.98,7.68-1.05,11.34h-0.82
					c-2.1,0-4.11,0.22-6.02,0.64c-1.91,0.43-3.76,0.88-5.55,1.34c-2.18,0.62-4.54,1.21-7.07,1.75
					C554.75,367.01,551.58,367.29,547.76,367.29z"/>
			</g>
			<g>
				<path class="st13" d="M612.51,367.05c-5.22,0-9.82-1.17-13.79-3.51c-3.97-2.34-7.05-5.49-9.23-9.47
					c-2.18-3.97-3.27-8.45-3.27-13.44c0-5.38,1.09-10.11,3.27-14.2c2.18-4.09,5.26-7.29,9.23-9.58c3.97-2.3,8.57-3.45,13.79-3.45
					c5.3,0,9.94,1.15,13.91,3.45c3.97,2.3,7.05,5.43,9.23,9.41c2.18,3.97,3.27,8.46,3.27,13.44c0,5.3-1.09,10.01-3.27,14.14
					c-2.18,4.13-5.26,7.36-9.23,9.7C622.45,365.88,617.81,367.05,612.51,367.05z M612.63,363.31c3.74,0,6.56-1.81,8.47-5.43
					c1.91-3.62,2.86-9.25,2.86-16.89c0-7.87-0.95-13.81-2.86-17.82c-1.91-4.01-4.81-6.02-8.71-6.02c-3.66,0-6.45,1.79-8.36,5.38
					c-1.91,3.58-2.86,9.2-2.86,16.83c0,7.87,0.95,13.83,2.86,17.88C605.95,361.29,608.81,363.31,612.63,363.31z"/>
			</g>
			<g>
				<path class="st13" d="M645.36,366.12v-1.99l3.74-1.4c1.09-0.39,1.89-0.99,2.4-1.81c0.51-0.82,0.76-1.77,0.76-2.86v-33.43
					c0-1.64-0.27-2.73-0.82-3.27c-0.55-0.54-1.33-0.93-2.34-1.17l-3.74-0.93v-2.1c3.04-0.47,5.63-0.88,7.77-1.23
					c2.14-0.35,4.19-0.78,6.14-1.29c1.95-0.51,4.05-1.15,6.31-1.93l1.17,0.93c-0.55,0.86-0.96,2.18-1.23,3.97
					c-0.27,1.79-0.41,3.74-0.41,5.84v1.17l0.82,2.57v31.67c0,1.09,0.37,1.95,1.11,2.57c0.74,0.62,1.42,1.05,2.05,1.29l3.74,1.4v1.99
					H645.36z M677.73,366.12v-1.99l3.74-1.4c1.09-0.39,1.89-0.99,2.4-1.81c0.51-0.82,0.76-1.77,0.76-2.86v-24.31
					c0-3.43-0.8-6.08-2.4-7.95c-1.6-1.87-3.88-2.81-6.84-2.81c-2.96,0-5.28,0.99-6.96,2.98c-1.68,1.99-2.51,4.58-2.51,7.77
					l-1.75-12.04h1.64c2.18-1.09,4.54-2.3,7.07-3.62c2.53-1.32,4.89-2.65,7.07-3.97c0.7-0.47,1.36-0.7,1.99-0.7
					c5.14,0,9.15,1.38,12.04,4.15c2.88,2.77,4.33,6.8,4.33,12.1v29.22c0,1.09,0.37,1.95,1.11,2.57c0.74,0.62,1.42,1.05,2.05,1.29
					l3.74,1.4v1.99H677.73z M710.11,366.12v-1.99l3.74-1.4c1.09-0.39,1.89-0.99,2.4-1.81c0.51-0.82,0.76-1.77,0.76-2.86v-24.31
					c0-3.43-0.8-6.08-2.4-7.95c-1.6-1.87-3.88-2.81-6.84-2.81c-2.96,0-5.28,0.99-6.95,2.98c-1.68,1.99-2.51,4.58-2.51,7.77
					l-1.75-12.04h1.64c2.18-1.09,4.54-2.3,7.07-3.62c2.53-1.32,4.89-2.65,7.07-3.97c0.7-0.47,1.36-0.7,1.99-0.7
					c5.14,0,9.15,1.38,12.04,4.15c2.88,2.77,4.32,6.8,4.32,12.1v29.22c0,1.09,0.37,1.95,1.11,2.57c0.74,0.62,1.42,1.05,2.05,1.29
					l3.74,1.4v1.99H710.11z"/>
			</g>
			<g>
				<path class="st13" d="M742.25,366.12v-1.99l3.74-1.4c1.09-0.39,1.89-0.99,2.4-1.81c0.51-0.82,0.76-1.77,0.76-2.86v-33.43
					c0-1.64-0.27-2.73-0.82-3.27c-0.55-0.54-1.33-0.93-2.34-1.17l-3.74-0.93v-2.1c3.04-0.47,5.63-0.88,7.77-1.23
					c2.14-0.35,4.19-0.78,6.14-1.29c1.95-0.51,4.05-1.15,6.31-1.93l1.17,0.93c-0.55,0.86-0.96,2.18-1.23,3.97
					c-0.27,1.79-0.41,3.74-0.41,5.84v1.17l0.82,2.57v31.67c0,1.09,0.37,1.95,1.11,2.57c0.74,0.62,1.42,1.05,2.05,1.29l3.74,1.4v1.99
					H742.25z M774.63,366.12v-1.99l3.74-1.4c1.09-0.39,1.89-0.99,2.4-1.81c0.51-0.82,0.76-1.77,0.76-2.86v-24.31
					c0-3.43-0.8-6.08-2.4-7.95c-1.6-1.87-3.88-2.81-6.84-2.81c-2.96,0-5.28,0.99-6.96,2.98c-1.68,1.99-2.51,4.58-2.51,7.77
					l-1.75-12.04h1.64c2.18-1.09,4.54-2.3,7.07-3.62c2.53-1.32,4.89-2.65,7.07-3.97c0.7-0.47,1.36-0.7,1.99-0.7
					c5.14,0,9.15,1.38,12.04,4.15c2.88,2.77,4.33,6.8,4.33,12.1v29.22c0,1.09,0.37,1.95,1.11,2.57c0.74,0.62,1.42,1.05,2.05,1.29
					l3.74,1.4v1.99H774.63z M807.01,366.12v-1.99l3.74-1.4c1.09-0.39,1.89-0.99,2.4-1.81c0.51-0.82,0.76-1.77,0.76-2.86v-24.31
					c0-3.43-0.8-6.08-2.4-7.95c-1.6-1.87-3.88-2.81-6.84-2.81c-2.96,0-5.28,0.99-6.95,2.98c-1.68,1.99-2.51,4.58-2.51,7.77
					l-1.75-12.04h1.64c2.18-1.09,4.54-2.3,7.07-3.62c2.53-1.32,4.89-2.65,7.07-3.97c0.7-0.47,1.36-0.7,1.99-0.7
					c5.14,0,9.15,1.38,12.04,4.15c2.88,2.77,4.32,6.8,4.32,12.1v29.22c0,1.09,0.37,1.95,1.11,2.57c0.74,0.62,1.42,1.05,2.05,1.29
					l3.74,1.4v1.99H807.01z"/>
			</g>
			<g>
				<path class="st13" d="M860.54,367.05c-5.3,0-9.43-1.4-12.39-4.21s-4.44-6.82-4.44-12.04v-27.7c0-1.64-0.27-2.75-0.82-3.33
					c-0.55-0.58-1.33-0.99-2.34-1.23l-3.74-0.93v-2.1c3.12-0.23,5.79-0.47,8.01-0.7s4.32-0.54,6.31-0.93
					c1.99-0.39,4.23-0.86,6.72-1.4l1.17,0.93c-0.55,0.86-0.96,2.18-1.23,3.97c-0.27,1.79-0.41,3.74-0.41,5.84v23.26
					c0,3.43,0.84,6.08,2.51,7.95c1.67,1.87,4.07,2.8,7.19,2.8c3.19,0,5.65-0.99,7.36-2.98c1.71-1.99,2.57-4.58,2.57-7.77l1.75,12.27
					h-1.64c-2.42,1.01-4.93,2.22-7.54,3.62c-2.61,1.4-5.05,2.77-7.31,4.09C861.67,366.86,861.09,367.05,860.54,367.05z
					 M880.41,367.05l-1.17-0.58l-1.4-9.47l-0.82-3.74V323.1c0-1.64-0.27-2.75-0.82-3.33c-0.55-0.58-1.32-0.99-2.34-1.23l-3.74-0.93
					v-2.1c3.12-0.23,5.79-0.47,8.01-0.7c2.22-0.23,4.32-0.54,6.31-0.93c1.99-0.39,4.23-0.86,6.72-1.4l1.17,0.93
					c-0.55,0.86-0.95,2.18-1.23,3.97c-0.27,1.79-0.41,3.74-0.41,5.84v31.68c0,2.57,0.66,4.4,1.99,5.49
					c1.32,1.09,3.54,1.64,6.66,1.64v3.04c-3.35,0.08-6.49,0.33-9.41,0.76C887.02,366.25,883.84,366.66,880.41,367.05z"/>
			</g>
			<g>
				<path class="st13" d="M906.36,366.12v-1.99l3.74-1.4c1.09-0.39,1.89-0.99,2.4-1.81c0.51-0.82,0.76-1.77,0.76-2.86v-33.43
					c0-1.64-0.27-2.73-0.82-3.27c-0.55-0.54-1.33-0.93-2.34-1.17l-3.74-0.93v-2.1c3.04-0.47,5.63-0.88,7.77-1.23
					c2.14-0.35,4.19-0.78,6.14-1.29c1.95-0.51,4.05-1.15,6.31-1.93l1.17,0.93c-0.55,0.86-0.96,2.18-1.23,3.97
					c-0.27,1.79-0.41,3.74-0.41,5.84v1.17l0.82,2.57v31.67c0,1.09,0.37,1.95,1.11,2.57c0.74,0.62,1.42,1.05,2.05,1.29l3.74,1.4v1.99
					H906.36z M940.84,366.12v-1.99l3.74-1.4c1.09-0.39,1.89-0.99,2.4-1.81c0.51-0.82,0.76-1.77,0.76-2.86v-24.43
					c0-3.43-0.88-6.06-2.63-7.89c-1.75-1.83-4.31-2.75-7.66-2.75c-3.35,0-5.94,1.03-7.77,3.1c-1.83,2.06-2.75,4.69-2.75,7.89
					l-1.75-12.27h1.64c2.34-1.09,4.69-2.28,7.07-3.56c2.37-1.29,4.77-2.63,7.19-4.03c0.86-0.54,1.83-0.82,2.92-0.82
					c5.53,0,9.82,1.4,12.86,4.21c3.04,2.8,4.56,6.86,4.56,12.16v29.22c0,1.09,0.37,1.95,1.11,2.57c0.74,0.62,1.42,1.05,2.05,1.29
					l3.74,1.4v1.99H940.84z"/>
			</g>
			<g>
				<path class="st13" d="M972.98,366.12v-1.99l3.74-1.4c2.1-0.86,3.16-2.41,3.16-4.68v-33.43c0-1.64-0.27-2.73-0.82-3.27
					c-0.55-0.54-1.33-0.93-2.34-1.17l-3.74-0.93v-2.1c4.44-0.62,8.22-1.21,11.34-1.75c3.12-0.54,6.35-1.44,9.7-2.69l1.17,0.93
					c-0.55,0.86-0.95,2.18-1.23,3.97c-0.27,1.79-0.41,3.74-0.41,5.84v35.42c0,1.09,0.37,1.95,1.11,2.57
					c0.74,0.62,1.42,1.05,2.05,1.29l3.74,1.4v1.99H972.98z M986.54,302.42c-2.42,0-4.46-0.84-6.14-2.51
					c-1.68-1.67-2.51-3.72-2.51-6.14c0-2.41,0.84-4.46,2.51-6.14c1.67-1.67,3.72-2.51,6.14-2.51c2.41,0,4.46,0.84,6.14,2.51
					c1.68,1.68,2.51,3.72,2.51,6.14c0,2.42-0.84,4.46-2.51,6.14C991,301.58,988.96,302.42,986.54,302.42z"/>
			</g>
			<g>
				<path class="st13" d="M1023.71,367.05c-7.79,0-11.69-4.71-11.69-14.14v-34.6h-7.48v-3.16c5.3-0.7,9.39-2.51,12.27-5.43
					c2.88-2.92,4.83-7.03,5.85-12.33h3.04v17.06h13.44l-1.17,3.86h-12.27v33.66c0,2.96,0.47,4.93,1.4,5.9
					c0.93,0.97,2.14,1.46,3.62,1.46c1.09,0,2.36-0.27,3.8-0.82c1.44-0.55,2.9-1.25,4.38-2.1l1.64,3.04
					c-3.12,2.49-6.16,4.38-9.12,5.67C1028.46,366.41,1025.89,367.05,1023.71,367.05z"/>
			</g>
			<g>
				<path class="st13" d="M1053.4,396.51c-2.73,0-4.79-0.82-6.19-2.45c-1.4-1.64-2.1-3.39-2.1-5.26c0-2.1,0.64-3.92,1.93-5.43
					c1.29-1.52,2.94-2.28,4.97-2.28c1.25,0,2.3,0.19,3.16,0.58c0.86,0.39,1.56,0.89,2.1,1.52c0.54,0.54,1.01,0.93,1.4,1.17
					c0.39,0.23,0.78,0.35,1.17,0.35c1.17,0,2.26-1.13,3.27-3.39l7.36-16.36l-18.82-45.24c-0.31-0.7-0.74-1.23-1.29-1.58
					c-0.55-0.35-1.29-0.64-2.22-0.88l-3.62-0.82v-1.99h28.87v1.99l-2.45,0.58c-1.25,0.31-2.26,0.86-3.04,1.64
					c-0.78,0.78-0.9,1.95-0.35,3.51l11.92,30.97h-3.16l13.91-32.03c0.47-1.09,0.56-1.93,0.29-2.51c-0.27-0.58-1.07-0.99-2.4-1.23
					l-5.26-0.94v-1.99h21.51v1.99l-4.79,1.4c-1.01,0.31-1.75,0.64-2.22,0.99c-0.47,0.35-0.86,0.88-1.17,1.58l-28.87,63.82
					c-1.48,3.35-3.02,5.9-4.62,7.66c-1.6,1.75-3.18,2.96-4.73,3.62C1056.4,396.18,1054.88,396.51,1053.4,396.51z"/>
			</g>
		</g>
		<g>
			<g>
				<g>
					<path class="st13" d="M519.39,447.99l-12.18-28.91c-0.12-0.34-0.35-0.6-0.67-0.78c-0.32-0.18-0.67-0.31-1.03-0.37l-2.53-0.55
						v-1.01h16.55v1.01l-2.34,0.5c-0.77,0.15-1.33,0.36-1.7,0.62c-0.37,0.26-0.55,0.6-0.55,1.03c0,0.12,0.02,0.28,0.07,0.46
						c0.05,0.18,0.1,0.37,0.16,0.55l8.23,21.19h-1.24l8.69-21.33c0.06-0.15,0.11-0.29,0.14-0.41c0.03-0.12,0.05-0.24,0.05-0.37
						c0-0.4-0.17-0.71-0.5-0.94c-0.34-0.23-0.84-0.41-1.52-0.53l-3.45-0.78v-1.01h12.82v1.01l-2.9,0.6
						c-0.58,0.12-1.07,0.3-1.47,0.53c-0.4,0.23-0.7,0.6-0.92,1.12l-11.49,28.36H519.39z"/>
				</g>
				<g>
					<path class="st13" d="M549.17,447.3v-1.01l2.34-0.51c1.07-0.25,1.75-0.52,2.05-0.83c0.29-0.31,0.44-0.93,0.44-1.88V420.6
						c0-0.98-0.15-1.62-0.44-1.93s-0.97-0.57-2.05-0.78l-2.34-0.5v-1.01h16.09v1.01l-2.34,0.5c-1.04,0.22-1.72,0.48-2.02,0.78
						s-0.46,0.95-0.46,1.93v22.47c0,0.95,0.15,1.58,0.46,1.88c0.31,0.31,0.98,0.58,2.02,0.83l2.34,0.51v1.01H549.17z"/>
				</g>
				<g>
					<path class="st13" d="M577.21,447.3v-1.01l2.34-0.51c1.07-0.25,1.75-0.52,2.05-0.83c0.29-0.31,0.44-0.93,0.44-1.88V420.6
						c0-0.98-0.15-1.62-0.44-1.93s-0.97-0.57-2.05-0.78l-2.34-0.5v-1.01h26.33c-0.09,0.43-0.15,0.85-0.18,1.26
						c-0.03,0.41-0.05,0.84-0.05,1.26c0,0.95,0.08,1.88,0.23,2.78c0.15,0.9,0.31,1.85,0.46,2.83h-1.01
						c-0.49-1.22-1.13-2.34-1.93-3.33c-0.8-1-1.73-1.79-2.8-2.39c-1.07-0.6-2.3-0.9-3.68-0.9h-6.11v12.32h5.88
						c1.53,0,2.63-0.31,3.29-0.92c0.66-0.61,1.08-1.47,1.26-2.57l0.37-2.11h1.01v12.73h-1.01l-0.41-2.21
						c-0.18-1.07-0.6-1.91-1.24-2.5c-0.64-0.6-1.7-0.9-3.17-0.9h-5.97v10.11c0,0.89,0.05,1.63,0.14,2.23
						c0.09,0.6,0.36,1.03,0.8,1.31c0.44,0.28,1.19,0.41,2.23,0.41h3.4c1.1,0,2.08-0.16,2.94-0.48c0.86-0.32,1.64-0.78,2.34-1.38
						c0.7-0.6,1.35-1.31,1.93-2.14l1.98-2.76h1.01c-0.31,1.35-0.58,2.71-0.8,4.09c-0.23,1.38-0.35,2.77-0.35,4.18H577.21z"/>
				</g>
				<g>
					<path class="st13" d="M647.39,448.08l-23.39-25.88v20.87c0,0.77,0.21,1.34,0.62,1.72c0.41,0.38,1.03,0.65,1.86,0.8l3.35,0.69
						v1.01h-12.64v-1.01l2.67-0.6c0.83-0.18,1.45-0.46,1.86-0.83c0.41-0.37,0.62-0.97,0.62-1.79V420.6c0-0.64-0.06-1.13-0.18-1.47
						c-0.12-0.34-0.36-0.59-0.71-0.76c-0.35-0.17-0.88-0.33-1.59-0.48l-2.34-0.5v-1.01h9.74l19.26,21.23V420.6
						c0-0.77-0.21-1.34-0.62-1.72c-0.41-0.38-1.03-0.65-1.86-0.8l-3.35-0.69v-1.01h12.64v1.01l-2.67,0.6
						c-0.83,0.18-1.45,0.46-1.86,0.83c-0.41,0.37-0.62,0.97-0.62,1.79v27.48H647.39z"/>
				</g>
				<g>
					<path class="st13" d="M694.77,448.08l-23.39-25.88v20.87c0,0.77,0.21,1.34,0.62,1.72c0.41,0.38,1.03,0.65,1.86,0.8l3.35,0.69
						v1.01h-12.64v-1.01l2.67-0.6c0.83-0.18,1.45-0.46,1.86-0.83c0.41-0.37,0.62-0.97,0.62-1.79V420.6c0-0.64-0.06-1.13-0.18-1.47
						c-0.12-0.34-0.36-0.59-0.71-0.76c-0.35-0.17-0.88-0.33-1.59-0.48l-2.34-0.5v-1.01h9.74l19.26,21.23V420.6
						c0-0.77-0.21-1.34-0.62-1.72c-0.41-0.38-1.03-0.65-1.86-0.8l-3.35-0.69v-1.01h12.64v1.01l-2.67,0.6
						c-0.83,0.18-1.45,0.46-1.86,0.83c-0.41,0.37-0.62,0.97-0.62,1.79v27.48H694.77z"/>
				</g>
				<g>
					<path class="st13" d="M708.97,447.3v-1.01l2.67-0.6c0.67-0.15,1.19-0.37,1.54-0.67c0.35-0.29,0.64-0.68,0.85-1.17l9.38-22.2
						l-1.42-3.54c0.98-0.03,1.81-0.22,2.48-0.57c0.67-0.35,1.18-0.75,1.52-1.2c0.34-0.44,0.5-0.82,0.5-1.13h0.64l12.04,29.23
						c0.15,0.37,0.4,0.64,0.74,0.83c0.34,0.18,0.87,0.35,1.61,0.51l2.34,0.51v1.01h-16.09v-1.01l2.34-0.51
						c0.67-0.15,1.17-0.35,1.49-0.58c0.32-0.23,0.48-0.54,0.48-0.94c0-0.15-0.02-0.31-0.07-0.46c-0.05-0.15-0.1-0.32-0.16-0.51
						l-8.18-20.5h1.01l-8.92,21.1c-0.03,0.09-0.05,0.18-0.07,0.28c-0.02,0.09-0.02,0.17-0.02,0.23c0,0.27,0.11,0.52,0.32,0.73
						c0.21,0.22,0.57,0.37,1.06,0.46l3.95,0.69v1.01H708.97z M718.67,436.91v-1.52h13.1v1.52H718.67z"/>
				</g>
			</g>
		</g>
	</g>
</g>
</svg>
