<?xml version="1.0" encoding="utf-8"?>
<!-- Generator: Adobe Adobe Illustrator 24.2.0, SVG Export Plug-In . SVG Version: 6.00 Build 0)  -->
<svg version="1.1" id="Layer_1" xmlns="http://www.w3.org/2000/svg" xmlns:xlink="http://www.w3.org/1999/xlink" x="0px" y="0px"
	 width="500px" height="500px" viewBox="0 0 500 500" style="enable-background:new 0 0 500 500;" xml:space="preserve">
<style type="text/css">
	.st0{fill:#060018;}
	.st1{fill:none;stroke:#000000;stroke-width:7;stroke-miterlimit:10;}
	.st2{stroke:#FFFFFF;stroke-miterlimit:10;}
	.st3{fill:#FF9A2C;}
	.st4{fill:#606060;}
	.st5{fill:#810000;}
	.st6{fill:#800000;}
	.st7{fill:#FF9930;}
	.st8{fill:#FF9930;stroke:#800000;stroke-width:0.512;stroke-miterlimit:10;}
	.st9{fill:#FF9930;stroke:#800000;stroke-width:0.183;stroke-miterlimit:10;}
	.st10{fill:#FF9930;stroke:#800000;stroke-width:0.512;stroke-linecap:round;stroke-linejoin:round;stroke-miterlimit:10;}
	.st11{fill:#FF9930;stroke:#800000;stroke-width:0.155;stroke-miterlimit:10;}
	.st12{fill:#FF9930;stroke:#800000;stroke-width:0.127;stroke-miterlimit:10;}
	.st13{fill:#5B2A5D;}
	.st14{fill:#001754;}
	.st15{fill:none;stroke:#001754;stroke-width:3;stroke-miterlimit:10;}
	.st16{fill:#E4E4E4;}
</style>
<g>
	<g>
		<g>
			<g>
				<path class="st13" d="M342.17,254.98c2.51,4.17,3.78,9.09,3.27,13.94c-0.87,9.62-9.1,17.67-18.72,18.61
					c-15.45,1.73-26.83-16.3-17.19-29.02c1.59-2.1,3.7-3.81,6.09-4.98c1.59-0.98,3.43-1.61,5.41-1.77
					c6.61-0.51,12.39,4.44,12.9,11.05c0.51,6.61-4.44,12.39-11.05,12.9c-0.46,0.04-0.92,0.04-1.37,0.02
					c3.91,2.88,10.04,1.25,13.18-2.4c3.04-3.24,3.77-8.07,2.62-12.3c-0.92-3.6-2.9-6.64-5.54-8.89
					c-18.76-5.77-52.09-6.36-69.85-6.23c-0.26,25.8-0.15,86.37,6.17,106.95c2.25,2.64,5.29,4.62,8.89,5.54
					c4.22,1.15,9.06,0.41,12.3-2.62c3.65-3.14,5.28-9.27,2.4-13.18c0.02,0.45,0.01,0.91-0.02,1.37c-0.51,6.61-6.29,11.56-12.9,11.05
					c-6.61-0.51-11.56-6.28-11.05-12.9c0.15-1.99,0.78-3.83,1.77-5.41c1.17-2.38,2.88-4.49,4.98-6.09
					c12.72-9.64,30.76,1.75,29.02,17.19c-0.94,9.62-8.99,17.85-18.61,18.72c-4.85,0.51-9.77-0.77-13.94-3.27
					c-0.64-0.94-1.35-1.83-2.13-2.67c-1.53-1.64-3.33-3.07-5.34-4.25c-3.85-2.26-8.48-3.57-13.45-3.57s-9.59,1.31-13.45,3.57
					c-2.01,1.17-3.81,2.61-5.34,4.25c-0.78,0.84-1.49,1.73-2.13,2.67c-4.17,2.51-9.09,3.78-13.94,3.27
					c-9.62-0.87-17.67-9.1-18.61-18.72c-1.73-15.45,16.29-26.83,29.02-17.19c2.11,1.6,3.82,3.72,4.99,6.12
					c0,0.01,0.01,0.01,0.01,0.02c0.97,1.57,1.59,3.4,1.74,5.36c0.51,6.61-4.44,12.39-11.05,12.9c-6.61,0.51-12.39-4.44-12.9-11.05
					c-0.04-0.46-0.04-0.91-0.03-1.36c-2.88,3.91-1.25,10.04,2.41,13.17c3.24,3.04,8.07,3.77,12.3,2.62c3.61-0.93,6.65-2.91,8.9-5.55
					c6.32-20.58,6.43-81.14,6.17-106.94c-17.75-0.14-51.1,0.46-69.86,6.23c-2.64,2.25-4.62,5.29-5.54,8.89
					c-1.15,4.22-0.41,9.06,2.62,12.3c3.14,3.65,9.27,5.28,13.18,2.4c-0.45,0.02-0.91,0.01-1.37-0.02
					c-6.61-0.51-11.56-6.29-11.05-12.9c0.51-6.61,6.28-11.56,12.9-11.05c1.99,0.15,3.83,0.78,5.41,1.77
					c2.38,1.17,4.49,2.88,6.09,4.98c9.64,12.72-1.75,30.76-17.19,29.02c-9.62-0.94-17.85-8.99-18.72-18.61
					c-0.51-4.85,0.77-9.77,3.27-13.94c0.94-0.64,1.83-1.35,2.67-2.13c1.64-1.53,3.07-3.33,4.25-5.34c2.26-3.85,3.57-8.48,3.57-13.45
					s-1.31-9.59-3.57-13.45c-1.17-2.01-2.61-3.81-4.25-5.34c-0.84-0.78-1.73-1.49-2.67-2.13c-2.51-4.17-3.78-9.09-3.27-13.94
					c0.87-9.62,9.1-17.67,18.72-18.61c15.45-1.73,26.83,16.29,17.19,29.02c-1.6,2.11-3.72,3.82-6.12,4.99
					c-0.01,0-0.01,0.01-0.02,0.01c-1.57,0.97-3.4,1.59-5.36,1.74c-6.61,0.51-12.39-4.44-12.9-11.05
					c-0.51-6.61,4.44-12.39,11.05-12.9c0.46-0.04,0.91-0.04,1.36-0.03c-3.91-2.88-10.04-1.25-13.17,2.41
					c-3.04,3.24-3.77,8.07-2.62,12.3c0.93,3.61,2.91,6.65,5.55,8.9c18.78,5.77,52.16,6.36,69.9,6.22
					c0.14-17.74-0.45-51.12-6.22-69.9c-2.25-2.64-5.3-4.62-8.9-5.55c-4.22-1.15-9.06-0.41-12.3,2.62
					c-3.65,3.14-5.28,9.26-2.41,13.17c-0.01-0.45-0.01-0.91,0.03-1.36c0.51-6.61,6.29-11.56,12.9-11.05
					c6.61,0.51,11.56,6.28,11.05,12.9c-0.15,1.97-0.77,3.79-1.74,5.36c-0.01,0.01-0.01,0.01-0.01,0.02
					c-1.17,2.4-2.88,4.52-4.99,6.12c-12.73,9.64-30.76-1.75-29.02-17.19c0.94-9.62,8.99-17.85,18.61-18.72
					c4.85-0.51,9.77,0.77,13.94,3.27c0.64,0.94,1.35,1.83,2.13,2.67c1.53,1.64,3.33,3.07,5.34,4.25c3.85,2.26,8.48,3.57,13.45,3.57
					s9.59-1.31,13.45-3.57c2.01-1.17,3.81-2.61,5.34-4.25c0.78-0.84,1.49-1.73,2.13-2.67c4.17-2.51,9.09-3.78,13.94-3.27
					c9.62,0.87,17.67,9.1,18.61,18.72c1.73,15.45-16.3,26.83-29.02,17.19c-2.1-1.59-3.81-3.7-4.98-6.09
					c-0.98-1.59-1.61-3.43-1.77-5.41c-0.51-6.61,4.44-12.39,11.05-12.9c6.61-0.51,12.39,4.44,12.9,11.05
					c0.04,0.46,0.04,0.92,0.02,1.37c2.88-3.91,1.25-10.04-2.4-13.18c-3.24-3.04-8.07-3.77-12.3-2.62c-3.6,0.92-6.64,2.9-8.89,5.54
					c-5.77,18.78-6.36,52.17-6.23,69.91c17.74,0.14,51.12-0.46,69.89-6.22c2.64-2.25,4.62-5.3,5.55-8.9
					c1.15-4.22,0.41-9.06-2.62-12.3c-3.14-3.65-9.26-5.28-13.17-2.41c0.45-0.01,0.91-0.01,1.36,0.03
					c6.61,0.51,11.56,6.29,11.05,12.9c-0.51,6.61-6.28,11.56-12.9,11.05c-1.97-0.15-3.79-0.77-5.36-1.74
					c-0.01-0.01-0.01-0.01-0.02-0.01c-2.4-1.17-4.52-2.88-6.12-4.99c-9.64-12.73,1.75-30.76,17.19-29.02
					c9.62,0.94,17.85,8.99,18.72,18.61c0.51,4.85-0.77,9.77-3.27,13.94c-0.94,0.64-1.83,1.35-2.67,2.13
					c-1.64,1.53-3.07,3.33-4.25,5.34c-2.26,3.85-3.57,8.48-3.57,13.45s1.31,9.59,3.57,13.45c1.17,2.01,2.61,3.81,4.25,5.34
					C340.33,253.64,341.23,254.35,342.17,254.98z"/>
			</g>
			<g>
				<path class="st13" d="M272.41,131.13c0,5.21-2.38,9.95-6.25,13.44c-4.08,3.68-9.82,5.97-16.16,5.97
					c-6.34,0-12.08-2.29-16.16-5.97c-3.87-3.49-6.25-8.23-6.25-13.44c0-8.91,6.97-16.43,16.43-18.71h0.01
					c1.9-0.46,3.91-0.7,5.98-0.7c2.07,0,4.07,0.24,5.98,0.7h0.01C265.44,114.7,272.41,122.22,272.41,131.13z"/>
			</g>
			<g>
				<path class="st13" d="M261.33,102.8c0,3.23-1.35,6.15-3.53,8.2c-2.45-0.73-5.07-1.13-7.81-1.13s-5.36,0.4-7.81,1.13
					c-2.17-2.06-3.53-4.97-3.53-8.2c0-6.26,5.07-11.33,11.33-11.33C256.26,91.46,261.33,96.54,261.33,102.8z"/>
			</g>
			<g>
				<g>
					<path class="st13" d="M272.41,374.04c0-5.21-2.38-9.95-6.25-13.44c-4.08-3.68-9.82-5.97-16.16-5.97
						c-6.34,0-12.08,2.29-16.16,5.97c-3.87,3.49-6.25,8.23-6.25,13.44c0,8.91,6.97,16.43,16.43,18.71h0.01
						c1.9,0.46,3.91,0.7,5.98,0.7c2.07,0,4.07-0.24,5.98-0.7h0.01C265.44,390.48,272.41,382.96,272.41,374.04z"/>
				</g>
				<g>
					<path class="st13" d="M261.33,402.38c0-3.23-1.35-6.15-3.53-8.2c-2.45,0.73-5.07,1.13-7.81,1.13s-5.36-0.4-7.81-1.13
						c-2.17,2.06-3.53,4.97-3.53,8.2c0,6.26,5.07,11.33,11.33,11.33C256.26,413.71,261.33,408.64,261.33,402.38z"/>
				</g>
			</g>
			<g>
				<g>
					<path class="st13" d="M352.93,256.48c-5.21,0-9.95-2.38-13.44-6.25c-3.68-4.08-5.97-9.82-5.97-16.16
						c0-6.34,2.29-12.08,5.97-16.16c3.49-3.87,8.23-6.25,13.44-6.25c8.91,0,16.43,6.97,18.71,16.43v0.01c0.46,1.9,0.7,3.91,0.7,5.98
						c0,2.07-0.24,4.07-0.7,5.98v0.01C369.37,249.51,361.85,256.48,352.93,256.48z"/>
				</g>
				<g>
					<path class="st13" d="M381.27,245.4c-3.23,0-6.15-1.35-8.2-3.53c0.73-2.45,1.13-5.07,1.13-7.81s-0.4-5.36-1.13-7.81
						c2.06-2.17,4.97-3.53,8.2-3.53c6.26,0,11.33,5.07,11.33,11.33C392.6,240.33,387.53,245.4,381.27,245.4z"/>
				</g>
			</g>
			<g>
				<path class="st13" d="M147.07,256.48c5.21,0,9.95-2.38,13.44-6.25c3.68-4.08,5.97-9.82,5.97-16.16c0-6.34-2.29-12.08-5.97-16.16
					c-3.49-3.87-8.23-6.25-13.44-6.25c-8.91,0-16.43,6.97-18.71,16.43v0.01c-0.46,1.9-0.7,3.91-0.7,5.98c0,2.07,0.24,4.07,0.7,5.98
					v0.01C130.63,249.51,138.15,256.48,147.07,256.48z"/>
			</g>
			<g>
				<path class="st13" d="M118.73,245.4c3.23,0,6.15-1.35,8.2-3.53c-0.73-2.45-1.13-5.07-1.13-7.81s0.4-5.36,1.13-7.81
					c-2.06-2.17-4.97-3.53-8.2-3.53c-6.26,0-11.33,5.07-11.33,11.33C107.4,240.33,112.47,245.4,118.73,245.4z"/>
			</g>
		</g>
	</g>
	<g>
		<g>
			<g>
				<g>
					<g>
						<g>
							<g>
								<path class="st13" d="M230.71,390.88l0.79,3.34c0,0-21.61-0.03-23.39-0.09c-8.31-0.29-26.58-1.5-39.75-6.33
									c-17.55-6.44-32.94-21.98-29.72-38.74c3.72,5.46,5.78,7.1,11.15,10.32c2.64-4.75,5.93-6.91,10.01-7.57
									c4.5-0.8,9.2,1.95,10.82,6.23c2.72,6.83-4.08,14.27-11.1,11.47c-1.15-0.47-2.19-1.21-3.02-2.14
									c-0.01-0.01-0.02-0.02-0.02-0.03c-0.64-0.59-1.16-1.35-1.48-2.23c-1.06-2.96,0.49-6.21,3.44-7.26
									c2.95-1.07,6.21,0.48,7.26,3.43c0.07,0.21,0.14,0.41,0.17,0.63c0.84-2.15-0.67-4.74-2.73-5.72
									c-1.86-0.98-4.16-0.71-5.94,0.34c-1.73,0.97-2.95,2.48-3.61,4.21c-2.16,6.34,1.76,17.02,18.28,22.99
									c14.99,5.41,29.24,6.75,36.21,7.07C210.04,390.87,230.71,390.88,230.71,390.88z"/>
							</g>
						</g>
					</g>
				</g>
				<g>
					<path class="st13" d="M163.03,314.97c-7.71-5.54-19.18-4.98-26.41,0.84c-1.29,0.97-2.43,2.1-3.42,3.33
						c0.56-1.64,0.96-3.34,1.17-5.09c1.62-11.16-4.89-23.52-15.47-28.16c-10.13-4.62-22.89-0.97-29.33,8.12
						c-10.56,14.47,0.99,36.17,19.24,33.79c3.06-0.4,6.03-1.58,8.6-3.34c1.84-1.02,3.47-2.47,4.73-4.32
						c4.28-6.33,2.63-14.94-3.7-19.23c-6.33-4.28-14.94-2.63-19.23,3.7c-0.29,0.44-0.57,0.89-0.81,1.35
						c-0.64-5.56,4.48-10.78,9.93-11.82c4.98-1.2,10.23,0.84,13.81,4.4c7.75,7.5,11.95,26.32-11,33.34
						c11.06,4.54,7.1,15.57,13.37,31.68c-5.37-14.76,6.04-19.22,13.28-15.42c-9.38-9.58-5.43-19.25-5.43-19.25
						c3.03-8.41,11.81-13.28,20.37-10.92c4.02,1.04,7.65,3.91,8.89,7.94c1.54,4.3,0,10.11-4.22,11.98c0.23-0.36,0.44-0.74,0.63-1.14
						c2.69-5.69,0.26-12.48-5.43-15.16c-5.69-2.68-12.48-0.26-15.16,5.43c-0.79,1.67-1.14,3.44-1.09,5.17
						c-0.17,2.55,0.25,5.14,1.24,7.47c5.95,13.92,26.14,13.01,31.97-0.52C173.3,330.77,170.55,320.22,163.03,314.97z"/>
				</g>
				<g>
					<path class="st13" d="M229.92,406.37c-8.97-0.03-21.32-0.06-22.58-0.09c-13.33-0.27-49.17,1.08-67.98,21.68
						c-6.7,7.34-11.27,14.5-14.5,21.26c-1.29,2.68-3.97,4.42-6.96,4.42h-7.53c4.25-10.5,9.95-21.54,17.58-31.05
						c9.46-11.79,27.45-17.57,44.41-20.37c-16.95-1.99-34.92-6.08-44.38-14.43c-19.9-17.55-26.63-42.43-28.97-48.86
						c-1.78-4.92-4.26-6.42-5.32-6.86c-0.32-0.13-0.52-0.43-0.52-0.78v-2.82c0-0.61,0.62-1.01,1.17-0.77
						c3.67,1.55,15.54,3.68,19.79,10.38c5.1,8.06,1.87,27.78,25.28,45.92c18.81,14.57,54.64,15.54,67.98,15.36
						c1.25-0.02,13.58-0.05,22.54-0.06c-0.04,0.16-0.06,0.31-0.08,0.48c-0.16,0.99-0.23,2.01-0.23,3.05c0,0.38,0.01,0.75,0.04,1.13
						C229.67,404.77,229.76,405.58,229.92,406.37z"/>
				</g>
				<g>
					<path class="st13" d="M230.77,396.02c-0.28,0.77-0.51,1.56-0.68,2.38c-8.86,0.02-22.3,0.05-23.02,0.06
						c-21.52,0.49-49.99-4.18-63.87-14.18c-14.64-10.53-18.73-27.5-16.71-30.43c1.6-2.18,5.04-5.3,7.36-3.21
						c0.37,6.1,3.14,21.44,21.06,32.47c18.09,11.14,43.16,12.71,52.79,12.88C208.62,396.02,221.98,396.02,230.77,396.02z"/>
				</g>
			</g>
			<g>
				<g>
					<path class="st13" d="M231.3,410.98c-8.77,0-22.69,0.01-23.64,0.04c-9.62,0.25-34.7,2.46-52.79,18.19
						c-7.12,6.19-11.84,13.33-14.98,20.25c-1.16,2.55-3.67,4.19-6.46,4.19h-5.02c2.56-8.5,7.28-18.48,14.76-26.1
						c13.88-14.11,42.35-20.72,63.88-20.01c0.72,0.03,14.27,0.06,23.14,0.09C230.45,408.79,230.83,409.91,231.3,410.98z"/>
				</g>
				<g>
					<path class="st13" d="M236.68,418.25c-7.8-0.01-26.39-0.02-28.62,0.14c-6.98,0.46-21.22,2.34-36.21,10
						c-9.66,4.92-14.28,12.8-16.44,19.89c-0.97,3.16-3.83,5.37-7.14,5.37h-4.06c4.29-9.76,12.56-25.07,24.13-31.05
						c13.17-6.82,31.44-8.51,39.75-8.93c1.86-0.09,15.71-0.12,24.57-0.13C233.75,415.31,235.11,416.9,236.68,418.25z"/>
				</g>
			</g>
		</g>
		<g>
			<g>
				<g>
					<g>
						<g>
							<g>
								<path class="st13" d="M269.29,390.88l-0.79,3.34c0,0,21.61-0.03,23.39-0.09c8.31-0.29,26.58-1.5,39.75-6.33
									c17.55-6.44,32.94-21.98,29.72-38.74c-3.73,5.46-5.78,7.1-11.15,10.32c-2.64-4.75-5.93-6.91-10.01-7.57
									c-4.5-0.8-9.2,1.95-10.82,6.23c-2.72,6.83,4.08,14.27,11.1,11.47c1.15-0.47,2.19-1.21,3.02-2.14
									c0.01-0.01,0.02-0.02,0.02-0.03c0.64-0.59,1.16-1.35,1.48-2.23c1.06-2.96-0.49-6.21-3.44-7.26
									c-2.95-1.07-6.21,0.48-7.26,3.43c-0.07,0.21-0.14,0.41-0.17,0.63c-0.84-2.15,0.67-4.74,2.73-5.72
									c1.86-0.98,4.16-0.71,5.94,0.34c1.73,0.97,2.95,2.48,3.61,4.21c2.16,6.34-1.76,17.02-18.28,22.99
									c-14.99,5.41-29.24,6.75-36.21,7.07C289.96,390.87,269.29,390.88,269.29,390.88z"/>
							</g>
						</g>
					</g>
				</g>
				<g>
					<path class="st13" d="M410.43,294.01c-6.45-9.09-19.2-12.74-29.33-8.12c-10.57,4.63-17.08,16.99-15.47,28.16
						c0.21,1.75,0.61,3.45,1.17,5.09c-0.99-1.23-2.13-2.35-3.42-3.33c-7.23-5.82-18.7-6.38-26.41-0.84
						c-7.51,5.25-10.27,15.8-6.53,24.17c5.83,13.54,26.02,14.45,31.97,0.52c0.99-2.33,1.41-4.92,1.24-7.47
						c0.06-1.73-0.29-3.49-1.09-5.17c-2.68-5.69-9.47-8.12-15.16-5.43c-5.68,2.69-8.12,9.47-5.43,15.16c0.18,0.4,0.4,0.78,0.63,1.14
						c-4.22-1.87-5.76-7.68-4.22-11.98c1.24-4.03,4.87-6.9,8.89-7.94c8.56-2.35,17.33,2.51,20.37,10.92c0,0,3.95,9.67-5.43,19.25
						c7.24-3.8,18.65,0.66,13.28,15.42c6.26-16.11,2.3-27.14,13.37-31.68c-22.95-7.02-18.75-25.84-11-33.34
						c3.58-3.56,8.83-5.59,13.81-4.4c5.45,1.04,10.57,6.25,9.93,11.82c-0.24-0.46-0.51-0.91-0.81-1.35
						c-4.29-6.33-12.9-7.98-19.23-3.7c-6.33,4.29-7.98,12.9-3.7,19.23c1.26,1.85,2.89,3.3,4.73,4.32c2.57,1.76,5.54,2.93,8.6,3.34
						C409.43,330.19,420.98,308.49,410.43,294.01z"/>
				</g>
				<g>
					<path class="st13" d="M270.08,406.37c8.97-0.03,21.32-0.06,22.58-0.09c13.33-0.27,49.17,1.08,67.98,21.68
						c6.7,7.34,11.27,14.5,14.5,21.26c1.29,2.68,3.97,4.42,6.96,4.42h7.53c-4.25-10.5-9.95-21.54-17.58-31.05
						c-9.46-11.79-27.45-17.57-44.41-20.37c16.95-1.99,34.92-6.08,44.38-14.43c19.9-17.55,26.63-42.43,28.97-48.86
						c1.78-4.92,4.26-6.42,5.32-6.86c0.32-0.13,0.52-0.43,0.52-0.78v-2.82c0-0.61-0.62-1.01-1.17-0.77
						c-3.67,1.55-15.54,3.68-19.79,10.38c-5.1,8.06-1.87,27.78-25.28,45.92c-18.81,14.57-54.64,15.54-67.98,15.36
						c-1.25-0.02-13.58-0.05-22.54-0.06c0.04,0.16,0.06,0.31,0.08,0.48c0.16,0.99,0.23,2.01,0.23,3.05c0,0.38-0.01,0.75-0.04,1.13
						C270.33,404.77,270.24,405.58,270.08,406.37z"/>
				</g>
				<g>
					<path class="st13" d="M269.23,396.02c0.28,0.77,0.51,1.56,0.68,2.38c8.86,0.02,22.3,0.05,23.02,0.06
						c21.52,0.49,49.99-4.18,63.87-14.18c14.64-10.53,18.73-27.5,16.71-30.43c-1.6-2.18-5.04-5.3-7.36-3.21
						c-0.37,6.1-3.14,21.44-21.06,32.47c-18.09,11.14-43.16,12.71-52.79,12.88C291.38,396.02,278.02,396.02,269.23,396.02z"/>
				</g>
			</g>
			<g>
				<g>
					<path class="st13" d="M268.7,410.98c8.77,0,22.69,0.01,23.64,0.04c9.62,0.25,34.7,2.46,52.79,18.19
						c7.12,6.19,11.84,13.33,14.98,20.25c1.16,2.55,3.67,4.19,6.46,4.19h5.02c-2.56-8.5-7.28-18.48-14.76-26.1
						c-13.88-14.11-42.35-20.72-63.88-20.01c-0.72,0.03-14.27,0.06-23.14,0.09C269.55,408.79,269.17,409.91,268.7,410.98z"/>
				</g>
				<g>
					<path class="st13" d="M263.32,418.25c7.8-0.01,26.39-0.02,28.62,0.14c6.98,0.46,21.22,2.34,36.21,10
						c9.66,4.92,14.28,12.8,16.44,19.89c0.97,3.16,3.83,5.37,7.14,5.37h4.06c-4.29-9.76-12.56-25.07-24.13-31.05
						c-13.17-6.82-31.44-8.51-39.75-8.93c-1.86-0.09-15.71-0.12-24.57-0.13C266.25,415.31,264.89,416.9,263.32,418.25z"/>
				</g>
			</g>
		</g>
	</g>
	<g>
		<rect x="209.78" y="423.54" class="st13" width="80.45" height="7.73"/>
	</g>
	<g>
		<rect x="192.8" y="434.73" class="st13" width="114.41" height="7.73"/>
	</g>
	<g>
		<rect x="174.52" y="445.92" class="st13" width="150.96" height="7.73"/>
	</g>
	<g>
		<path class="st13" d="M273.44,57.46c-0.32-1.39-2.06-1.89-3.09-0.89c-3.85,3.71-8.05,5.28-12.36,5.72
			c-0.56-1.25-1.26-2.36-2.08-3.29c0.44-3.23,1.64-6.11,3.36-8.28c0.58-0.73,0.35-1.8-0.47-2.24c-2.48-1.34-5.53-2.13-8.81-2.13
			c-3.29,0-6.33,0.79-8.81,2.13c-0.82,0.44-1.05,1.51-0.47,2.24c1.72,2.17,2.93,5.05,3.36,8.28c-0.81,0.93-1.51,2.04-2.07,3.29
			c-4.31-0.44-8.51-2.02-12.36-5.72c-1.03-1-2.76-0.5-3.09,0.89c-2.13,9.12,7.61,24.39,11.13,23.2c1.75-0.59,4.25-0.64,6.49-0.52
			c0.67,0.74,1.41,1.36,2.2,1.82c-0.33,0.77-0.52,1.65-0.52,2.58c0,2.34,1.18,4.33,2.81,5.04l0.75,3.06c0.15,0.61,1.01,0.61,1.16,0
			l0.75-3.06c1.63-0.71,2.81-2.7,2.81-5.04c0-0.94-0.19-1.82-0.52-2.58c0.79-0.47,1.53-1.08,2.2-1.82c2.24-0.12,4.74-0.07,6.49,0.52
			C265.83,81.86,275.57,66.58,273.44,57.46z"/>
	</g>
</g>
</svg>
