<?xml version="1.0" encoding="utf-8"?>
<!-- Generator: Adobe Illustrator 26.5.0, SVG Export Plug-In . SVG Version: 6.00 Build 0)  -->
<svg version="1.1" id="Layer_1" xmlns="http://www.w3.org/2000/svg" xmlns:xlink="http://www.w3.org/1999/xlink" x="0px" y="0px"
	 viewBox="0 0 1085.8 396.2" style="enable-background:new 0 0 1085.8 396.2;" xml:space="preserve">
<style type="text/css">
	.st0{fill:#5B2A5D;}
</style>
<g>
	<g>
		<g>
			<g>
				<g>
					<path class="st0" d="M249.6,202.9c2.4,4.1,3.7,8.8,3.2,13.6c-0.9,9.4-8.9,17.2-18.2,18.1c-15,1.7-26.1-15.9-16.7-28.2
						c1.5-2,3.6-3.7,5.9-4.9c1.5-0.9,3.3-1.6,5.3-1.7c6.4-0.5,12,4.3,12.5,10.8c0.5,6.4-4.3,12-10.8,12.5c-0.5,0-0.9,0-1.3,0
						c3.8,2.8,9.8,1.2,12.8-2.3c3-3.1,3.7-7.9,2.5-12c-0.9-3.5-2.8-6.5-5.4-8.6c-18.2-5.6-50.7-6.2-67.9-6.1c-0.2,25.1-0.1,84,6,104
						c2.2,2.6,5.1,4.5,8.6,5.4c4.1,1.1,8.8,0.4,12-2.5c3.5-3,5.1-9,2.3-12.8c0,0.4,0,0.9,0,1.3c-0.5,6.4-6.1,11.2-12.5,10.8
						c-6.4-0.5-11.2-6.1-10.8-12.5c0.1-1.9,0.8-3.7,1.7-5.3c1.1-2.3,2.8-4.4,4.9-5.9c12.4-9.4,29.9,1.7,28.2,16.7
						c-0.9,9.4-8.7,17.4-18.1,18.2c-4.7,0.5-9.5-0.7-13.6-3.2c-0.6-0.9-1.3-1.8-2.1-2.6c-1.5-1.6-3.2-3-5.2-4.1
						c-3.8-2.2-8.2-3.5-13.1-3.5s-9.3,1.3-13.1,3.5c-2,1.1-3.7,2.5-5.2,4.1c-0.8,0.8-1.4,1.7-2.1,2.6c-4.1,2.4-8.8,3.7-13.6,3.2
						c-9.4-0.9-17.2-8.9-18.1-18.2c-1.7-15,15.9-26.1,28.2-16.7c2.1,1.6,3.7,3.6,4.9,6c0,0,0,0,0,0c0.9,1.5,1.5,3.3,1.7,5.2
						c0.5,6.4-4.3,12-10.8,12.5c-6.4,0.5-12.1-4.3-12.6-10.8c0-0.4,0-0.9,0-1.3c-2.8,3.8-1.2,9.8,2.3,12.8c3.1,3,7.9,3.7,12,2.5
						c3.5-0.9,6.5-2.8,8.7-5.4c6.1-20,6.2-78.9,6-104c-17.3-0.1-49.7,0.4-67.9,6.1c-2.6,2.2-4.5,5.1-5.4,8.6
						c-1.1,4.1-0.4,8.8,2.6,12c3.1,3.5,9,5.1,12.8,2.3c-0.4,0-0.9,0-1.3,0c-6.4-0.5-11.2-6.1-10.8-12.5c0.5-6.4,6.1-11.2,12.5-10.8
						c1.9,0.1,3.7,0.8,5.3,1.7c2.3,1.1,4.4,2.8,5.9,4.9c9.4,12.4-1.7,29.9-16.7,28.2c-9.4-0.9-17.4-8.7-18.2-18.1
						c-0.5-4.7,0.7-9.5,3.2-13.6c0.9-0.6,1.8-1.3,2.6-2.1c1.6-1.5,3-3.2,4.1-5.2c2.2-3.8,3.5-8.2,3.5-13.1c0-4.8-1.3-9.3-3.5-13.1
						c-1.1-2-2.5-3.7-4.1-5.2c-0.8-0.8-1.7-1.4-2.6-2.1c-2.4-4.1-3.7-8.8-3.2-13.6c0.9-9.4,8.9-17.2,18.2-18.1
						c15-1.7,26.1,15.9,16.7,28.2c-1.6,2.1-3.6,3.7-5.9,4.9c0,0,0,0,0,0c-1.5,0.9-3.3,1.5-5.2,1.7c-6.4,0.5-12.1-4.3-12.5-10.8
						c-0.5-6.4,4.3-12.1,10.8-12.6c0.4,0,0.9,0,1.3,0c-3.8-2.8-9.8-1.2-12.8,2.3c-2.9,3.1-3.7,7.9-2.6,12c0.9,3.5,2.8,6.5,5.4,8.7
						c18.3,5.6,50.7,6.2,68,6.1c0.1-17.3-0.4-49.7-6.1-68c-2.2-2.6-5.1-4.5-8.7-5.4c-4.1-1.1-8.8-0.4-12,2.6
						c-3.6,3.1-5.1,9-2.3,12.8c0-0.4,0-0.9,0-1.3c0.5-6.4,6.1-11.2,12.6-10.8c6.4,0.5,11.2,6.1,10.8,12.5c-0.1,1.9-0.8,3.7-1.7,5.2
						c0,0,0,0,0,0c-1.1,2.3-2.8,4.4-4.9,5.9c-12.4,9.4-29.9-1.7-28.2-16.7c0.9-9.4,8.7-17.4,18.1-18.2c4.7-0.5,9.5,0.7,13.6,3.2
						c0.6,0.9,1.3,1.8,2.1,2.6c1.5,1.6,3.2,3,5.2,4.1c3.8,2.2,8.2,3.5,13.1,3.5c4.8,0,9.3-1.3,13.1-3.5c2-1.1,3.7-2.5,5.2-4.1
						c0.8-0.8,1.5-1.7,2.1-2.6c4.1-2.4,8.8-3.7,13.6-3.2c9.4,0.9,17.2,8.9,18.1,18.2c1.7,15-15.9,26.1-28.2,16.7
						c-2-1.6-3.7-3.6-4.9-5.9c-1-1.5-1.6-3.3-1.7-5.3c-0.5-6.4,4.3-12.1,10.8-12.5c6.4-0.5,12,4.3,12.5,10.8c0,0.4,0,0.9,0,1.3
						c2.8-3.8,1.2-9.8-2.3-12.8c-3.1-2.9-7.9-3.7-12-2.6c-3.5,0.9-6.5,2.8-8.6,5.4c-5.6,18.3-6.2,50.8-6.1,68
						c17.3,0.1,49.7-0.4,68-6.1c2.6-2.2,4.5-5.1,5.4-8.7c1.1-4.1,0.4-8.8-2.5-12c-3-3.6-9-5.1-12.8-2.3c0.4,0,0.9,0,1.3,0
						c6.4,0.5,11.2,6.1,10.8,12.6c-0.5,6.4-6.1,11.2-12.5,10.8c-1.9-0.1-3.7-0.8-5.2-1.7c0,0,0,0,0,0c-2.3-1.1-4.4-2.8-6-4.9
						c-9.4-12.4,1.7-29.9,16.7-28.2c9.4,0.9,17.4,8.7,18.2,18.1c0.5,4.7-0.7,9.5-3.2,13.6c-0.9,0.6-1.8,1.3-2.6,2.1
						c-1.6,1.5-3,3.2-4.1,5.2c-2.2,3.8-3.5,8.2-3.5,13.1c0,4.8,1.3,9.3,3.5,13.1c1.1,2,2.5,3.7,4.1,5.2
						C247.8,201.6,248.7,202.3,249.6,202.9z"/>
				</g>
				<g>
					<path class="st0" d="M181.8,82.4c0,5.1-2.3,9.7-6.1,13.1c-4,3.6-9.5,5.8-15.7,5.8c-6.2,0-11.8-2.2-15.7-5.8
						c-3.8-3.4-6.1-8-6.1-13.1c0-8.7,6.8-16,16-18.2h0c1.9-0.4,3.8-0.7,5.8-0.7s4,0.2,5.8,0.7h0C175,66.5,181.8,73.8,181.8,82.4z"/>
				</g>
				<g>
					<path class="st0" d="M171,54.9c0,3.2-1.3,6-3.4,8c-2.4-0.7-4.9-1.1-7.6-1.1s-5.2,0.4-7.6,1.1c-2.1-2-3.4-4.8-3.4-8
						c0-6.1,4.9-11,11-11C166,43.9,171,48.8,171,54.9z"/>
				</g>
				<g>
					<g>
						<path class="st0" d="M181.8,318.7c0-5.1-2.3-9.7-6.1-13.1c-4-3.6-9.5-5.8-15.7-5.8c-6.2,0-11.8,2.2-15.7,5.8
							c-3.8,3.4-6.1,8-6.1,13.1c0,8.7,6.8,16,16,18.2h0c1.9,0.4,3.8,0.7,5.8,0.7s4-0.2,5.8-0.7h0C175,334.7,181.8,327.4,181.8,318.7
							z"/>
					</g>
					<g>
						<path class="st0" d="M171,346.3c0-3.1-1.3-6-3.4-8c-2.4,0.7-4.9,1.1-7.6,1.1s-5.2-0.4-7.6-1.1c-2.1,2-3.4,4.8-3.4,8
							c0,6.1,4.9,11,11,11C166,357.3,171,352.4,171,346.3z"/>
					</g>
				</g>
				<g>
					<g>
						<path class="st0" d="M260.1,204.4c-5.1,0-9.7-2.3-13.1-6.1c-3.6-4-5.8-9.6-5.8-15.7c0-6.2,2.2-11.8,5.8-15.7
							c3.4-3.8,8-6.1,13.1-6.1c8.7,0,16,6.8,18.2,16v0c0.4,1.9,0.7,3.8,0.7,5.8s-0.2,4-0.7,5.8v0
							C276.1,197.6,268.7,204.4,260.1,204.4z"/>
					</g>
					<g>
						<path class="st0" d="M287.6,193.6c-3.1,0-6-1.3-8-3.4c0.7-2.4,1.1-4.9,1.1-7.6s-0.4-5.2-1.1-7.6c2-2.1,4.8-3.4,8-3.4
							c6.1,0,11,4.9,11,11C298.7,188.7,293.7,193.6,287.6,193.6z"/>
					</g>
				</g>
				<g>
					<path class="st0" d="M59.8,204.4c5.1,0,9.7-2.3,13.1-6.1c3.6-4,5.8-9.6,5.8-15.7c0-6.2-2.2-11.8-5.8-15.7
						c-3.4-3.8-8-6.1-13.1-6.1c-8.7,0-16,6.8-18.2,16v0c-0.4,1.9-0.7,3.8-0.7,5.8s0.2,4,0.7,5.8v0C43.8,197.6,51.2,204.4,59.8,204.4
						z"/>
				</g>
				<g>
					<path class="st0" d="M32.3,193.6c3.1,0,6-1.3,8-3.4c-0.7-2.4-1.1-4.9-1.1-7.6s0.4-5.2,1.1-7.6c-2-2.1-4.8-3.4-8-3.4
						c-6.1,0-11,4.9-11,11C21.2,188.7,26.2,193.6,32.3,193.6z"/>
				</g>
			</g>
		</g>
		<g>
			<g>
				<g>
					<g>
						<g>
							<g>
								<g>
									<path class="st0" d="M141.2,335.1l0.8,3.2c0,0-21,0-22.8-0.1c-8.1-0.3-25.9-1.5-38.7-6.1c-17.1-6.3-32-21.4-28.9-37.7
										c3.6,5.3,5.6,6.9,10.8,10c2.6-4.6,5.8-6.7,9.7-7.4c4.4-0.8,8.9,1.9,10.5,6.1c2.6,6.6-4,13.9-10.8,11.1
										c-1.1-0.5-2.1-1.2-2.9-2.1c0,0,0,0,0,0c-0.6-0.6-1.1-1.3-1.4-2.2c-1-2.9,0.5-6,3.4-7.1c2.9-1,6,0.5,7.1,3.3
										c0.1,0.2,0.1,0.4,0.2,0.6c0.8-2.1-0.6-4.6-2.7-5.6c-1.8-1-4-0.7-5.8,0.3c-1.7,1-2.9,2.4-3.5,4.1
										c-2.1,6.2,1.7,16.6,17.8,22.4c14.6,5.3,28.4,6.6,35.2,6.9C121.1,335.1,141.2,335.1,141.2,335.1z"/>
								</g>
							</g>
						</g>
					</g>
					<g>
						<path class="st0" d="M75.4,261.3c-7.5-5.4-18.7-4.9-25.7,0.8c-1.2,1-2.4,2-3.3,3.2c0.6-1.6,0.9-3.2,1.1-5
							c1.6-10.9-4.8-22.9-15-27.4c-9.9-4.5-22.3-1-28.5,7.9c-10.3,14.1,1,35.2,18.7,32.9c3-0.4,5.9-1.5,8.4-3.2
							c1.8-1,3.4-2.4,4.6-4.2c4.2-6.1,2.6-14.5-3.6-18.7c-6.2-4.2-14.5-2.6-18.7,3.6c-0.3,0.4-0.6,0.9-0.8,1.3
							c-0.6-5.4,4.4-10.5,9.7-11.5c4.8-1.2,9.9,0.8,13.4,4.3c7.5,7.3,11.6,25.6-10.7,32.4c10.8,4.4,6.9,15.1,13,30.8
							c-5.2-14.4,5.9-18.7,12.9-15c-9.1-9.3-5.3-18.7-5.3-18.7c2.9-8.2,11.5-12.9,19.8-10.6c3.9,1,7.4,3.8,8.6,7.7
							c1.5,4.2,0,9.8-4.1,11.6c0.2-0.4,0.4-0.7,0.6-1.1c2.6-5.5,0.2-12.1-5.3-14.8c-5.5-2.6-12.1-0.2-14.8,5.3
							c-0.8,1.6-1.1,3.4-1.1,5c-0.2,2.5,0.2,5,1.2,7.3c5.8,13.5,25.4,12.7,31.1-0.5C85.4,276.6,82.7,266.4,75.4,261.3z"/>
					</g>
					<g>
						<path class="st0" d="M140.4,350.2c-8.7,0-20.7-0.1-22-0.1c-13-0.3-47.8,1.1-66.1,21.1c-6.5,7.1-11,14.1-14.1,20.7
							c-1.2,2.6-3.9,4.3-6.8,4.3h-7.3c4.1-10.2,9.7-21,17.1-30.2c9.2-11.5,26.7-17.1,43.2-19.8c-16.5-1.9-34-5.9-43.2-14
							c-19.4-17.1-25.9-41.3-28.2-47.5c-1.7-4.8-4.1-6.2-5.2-6.7c-0.3-0.1-0.5-0.4-0.5-0.8v-2.8c0-0.6,0.6-1,1.1-0.8
							c3.6,1.5,15.1,3.6,19.2,10.1c5,7.8,1.8,27,24.6,44.7c18.3,14.2,53.1,15.1,66.1,14.9c1.2,0,13.2,0,21.9-0.1
							c0,0.1-0.1,0.3-0.1,0.5c-0.1,1-0.2,2-0.2,3c0,0.4,0,0.7,0,1.1C140.2,348.6,140.3,349.4,140.4,350.2z"/>
					</g>
					<g>
						<path class="st0" d="M141.2,340.1c-0.3,0.8-0.5,1.5-0.7,2.3c-8.6,0-21.7,0-22.4,0.1c-20.9,0.5-48.6-4.1-62.1-13.8
							c-14.2-10.2-18.2-26.8-16.2-29.6c1.6-2.1,4.9-5.1,7.2-3.1c0.4,5.9,3.1,20.9,20.5,31.6c17.6,10.8,42,12.4,51.4,12.5
							C119.7,340.1,132.7,340.1,141.2,340.1z"/>
					</g>
				</g>
				<g>
					<g>
						<path class="st0" d="M141.8,354.6c-8.5,0-22.1,0-23,0c-9.4,0.2-33.8,2.4-51.3,17.7c-6.9,6-11.5,13-14.6,19.7
							c-1.1,2.5-3.6,4.1-6.3,4.1h-4.9c2.5-8.3,7.1-18,14.4-25.4c13.5-13.7,41.2-20.1,62.1-19.5c0.7,0,13.9,0,22.5,0.1
							C140.9,352.5,141.3,353.6,141.8,354.6z"/>
					</g>
					<g>
						<path class="st0" d="M147,361.7c-7.6,0-25.7,0-27.8,0.1c-6.8,0.5-20.6,2.3-35.2,9.7c-9.4,4.8-13.9,12.5-16,19.4
							c-0.9,3.1-3.7,5.2-6.9,5.2h-3.9c4.2-9.5,12.2-24.4,23.5-30.2c12.8-6.6,30.6-8.3,38.7-8.7c1.8-0.1,15.3-0.1,23.9-0.1
							C144.1,358.9,145.5,360.4,147,361.7z"/>
					</g>
				</g>
			</g>
			<g>
				<g>
					<g>
						<g>
							<g>
								<g>
									<path class="st0" d="M178.7,335.1l-0.8,3.2c0,0,21,0,22.8-0.1c8.1-0.3,25.9-1.5,38.7-6.1c17.1-6.3,32-21.4,28.9-37.7
										c-3.6,5.3-5.6,6.9-10.8,10c-2.6-4.6-5.8-6.7-9.7-7.4c-4.4-0.8-8.9,1.9-10.5,6.1c-2.6,6.6,4,13.9,10.8,11.1
										c1.1-0.5,2.1-1.2,2.9-2.1c0,0,0,0,0,0c0.6-0.6,1.1-1.3,1.4-2.2c1-2.9-0.5-6-3.4-7.1c-2.9-1-6,0.5-7.1,3.3
										c-0.1,0.2-0.1,0.4-0.2,0.6c-0.8-2.1,0.6-4.6,2.7-5.6c1.8-1,4-0.7,5.8,0.3c1.7,1,2.9,2.4,3.5,4.1
										c2.1,6.2-1.7,16.6-17.8,22.4c-14.6,5.3-28.4,6.6-35.2,6.9C198.8,335.1,178.7,335.1,178.7,335.1z"/>
								</g>
							</g>
						</g>
					</g>
					<g>
						<path class="st0" d="M316,240.9c-6.3-8.9-18.7-12.4-28.5-7.9c-10.3,4.5-16.6,16.5-15,27.4c0.2,1.7,0.6,3.4,1.1,5
							c-1-1.2-2.1-2.3-3.3-3.2c-7-5.7-18.2-6.2-25.7-0.8c-7.3,5.1-10,15.4-6.4,23.5c5.7,13.2,25.3,14,31.1,0.5
							c1-2.3,1.4-4.8,1.2-7.3c0-1.7-0.3-3.4-1.1-5c-2.6-5.5-9.2-7.9-14.8-5.3c-5.5,2.6-7.9,9.2-5.3,14.8c0.2,0.4,0.4,0.8,0.6,1.1
							c-4.1-1.8-5.6-7.5-4.1-11.6c1.2-3.9,4.7-6.7,8.6-7.7c8.3-2.3,16.9,2.4,19.8,10.6c0,0,3.9,9.4-5.3,18.7c7-3.7,18.1,0.6,12.9,15
							c6.1-15.7,2.2-26.4,13-30.8c-22.3-6.8-18.2-25.1-10.7-32.4c3.5-3.5,8.6-5.4,13.4-4.3c5.3,1,10.3,6.1,9.7,11.5
							c-0.2-0.5-0.5-0.9-0.8-1.3c-4.2-6.1-12.5-7.8-18.7-3.6c-6.1,4.2-7.8,12.6-3.6,18.7c1.2,1.8,2.8,3.2,4.6,4.2
							c2.5,1.7,5.4,2.9,8.4,3.2C315,276.1,326.3,255,316,240.9z"/>
					</g>
					<g>
						<path class="st0" d="M179.5,350.2c8.7,0,20.7-0.1,22-0.1c13-0.3,47.8,1.1,66.1,21.1c6.5,7.1,11,14.1,14.1,20.7
							c1.2,2.6,3.9,4.3,6.8,4.3h7.3c-4.1-10.2-9.7-21-17.1-30.2c-9.2-11.5-26.7-17.1-43.2-19.8c16.5-1.9,34-5.9,43.2-14
							c19.4-17.1,25.9-41.3,28.2-47.5c1.7-4.8,4.1-6.2,5.2-6.7c0.3-0.1,0.5-0.4,0.5-0.8v-2.8c0-0.6-0.6-1-1.1-0.8
							c-3.6,1.5-15.1,3.6-19.2,10.1c-5,7.8-1.8,27-24.6,44.7c-18.3,14.2-53.1,15.1-66.1,14.9c-1.2,0-13.2,0-21.9-0.1
							c0,0.1,0.1,0.3,0.1,0.5c0.1,1,0.2,2,0.2,3c0,0.4,0,0.7,0,1.1C179.7,348.6,179.6,349.4,179.5,350.2z"/>
					</g>
					<g>
						<path class="st0" d="M178.7,340.1c0.3,0.8,0.5,1.5,0.7,2.3c8.6,0,21.7,0,22.4,0.1c20.9,0.5,48.6-4.1,62.1-13.8
							c14.2-10.2,18.2-26.8,16.2-29.6c-1.5-2.1-4.9-5.1-7.2-3.1c-0.4,5.9-3.1,20.9-20.5,31.6c-17.6,10.8-42,12.4-51.4,12.5
							C200.2,340.1,187.2,340.1,178.7,340.1z"/>
					</g>
				</g>
				<g>
					<g>
						<path class="st0" d="M178.1,354.6c8.5,0,22.1,0,23,0c9.4,0.2,33.8,2.4,51.4,17.7c6.9,6,11.5,13,14.6,19.7
							c1.1,2.5,3.6,4.1,6.3,4.1h4.9c-2.5-8.3-7.1-18-14.4-25.4c-13.5-13.7-41.2-20.1-62.1-19.5c-0.7,0-13.9,0-22.5,0.1
							C179,352.5,178.6,353.6,178.1,354.6z"/>
					</g>
					<g>
						<path class="st0" d="M172.9,361.7c7.6,0,25.7,0,27.8,0.1c6.8,0.5,20.6,2.3,35.2,9.7c9.4,4.8,13.9,12.5,16,19.4
							c1,3.1,3.7,5.2,7,5.2h3.9c-4.2-9.5-12.2-24.4-23.5-30.2c-12.8-6.6-30.6-8.3-38.7-8.7c-1.8-0.1-15.3-0.1-23.9-0.1
							C175.8,358.9,174.4,360.4,172.9,361.7z"/>
					</g>
				</g>
			</g>
		</g>
		<g>
			<rect x="120.8" y="366.9" class="st0" width="78.3" height="7.5"/>
		</g>
		<g>
			<rect x="104.3" y="377.8" class="st0" width="111.3" height="7.5"/>
		</g>
		<g>
			<rect x="86.5" y="388.6" class="st0" width="146.8" height="7.5"/>
		</g>
		<g>
			<path class="st0" d="M182.8,10.8c-0.3-1.3-2-1.8-3-0.9c-3.7,3.6-7.8,5.1-12,5.6c-0.5-1.2-1.2-2.3-2-3.2c0.4-3.1,1.6-5.9,3.3-8
				c0.6-0.7,0.3-1.8-0.5-2.2C166.1,0.8,163.2,0,160,0s-6.1,0.8-8.6,2.1c-0.8,0.4-1,1.5-0.5,2.2c1.7,2.1,2.9,4.9,3.3,8.1
				c-0.8,0.9-1.5,2-2,3.2c-4.2-0.4-8.3-2-12-5.6c-1-1-2.7-0.5-3,0.9c-2.1,8.9,7.4,23.7,10.8,22.6c1.7-0.6,4.1-0.6,6.3-0.5
				c0.6,0.7,1.4,1.3,2.1,1.8c-0.3,0.7-0.5,1.6-0.5,2.5c0,2.3,1.1,4.2,2.7,4.9l0.7,3c0.1,0.6,1,0.6,1.1,0l0.7-3
				c1.6-0.7,2.7-2.6,2.7-4.9c0-0.9-0.2-1.8-0.5-2.5c0.8-0.4,1.5-1.1,2.1-1.8c2.2-0.1,4.6-0.1,6.3,0.5
				C175.4,34.5,184.8,19.7,182.8,10.8z"/>
		</g>
	</g>
	<g>
		<g>
			<g>
				<path class="st0" d="M432.2,185.7c-6.7,0-12.5-0.8-17.3-2.5c-4.8-1.7-8.6-3.2-11.5-4.6c0.6-3.4,0.9-7,0.9-10.7
					c0-3.7-0.5-7.4-1.5-11.1h4.1c0.4,4.8,1.6,9.1,3.7,12.9c2.1,3.8,4.9,6.7,8.5,8.9c3.6,2.1,8,3.2,13,3.2c2.3,0,4.6-0.4,7-1.3
					c2.4-0.9,4.5-2.4,6.1-4.4c1.7-2,2.5-4.7,2.5-7.9c0-2.9-0.6-5.3-1.8-7.1c-1.2-1.9-3.3-3.6-6.4-5.2c-3.1-1.6-7.4-3.3-13-5.2
					c-7.1-2.4-12.5-5.3-16.2-8.7s-5.6-8.2-5.6-14.4c0-4.1,1-7.8,3-11.3c2-3.5,4.9-6.3,8.9-8.4c3.9-2.1,8.8-3.2,14.4-3.2
					c3.1,0,5.7,0.3,7.7,0.9s3.7,1.3,5.1,2c1.2,0.6,2.2,1,3.2,1.5c0.9,0.4,1.9,0.6,2.9,0.6l3.7-0.7l0.3,0.2c-0.2,0.8-0.3,1.7-0.3,2.8
					c-0.1,1.1-0.1,2.1-0.1,3c0,2.4,0.2,4.8,0.5,7.1s0.9,4.9,1.6,7.8h-3.2c-1.2-4.5-2.8-8.4-5-11.5c-2.1-3.2-4.6-5.6-7.4-7.3
					c-2.8-1.7-5.9-2.6-9.2-2.6c-3,0-5.6,0.7-7.8,2c-2.2,1.3-3.8,3-4.8,5c-1.1,2-1.6,4.1-1.6,6.3c0,2.7,0.5,4.9,1.5,6.7
					c1,1.7,2.9,3.3,5.8,4.7c2.8,1.4,7,3,12.3,4.8c5.7,1.9,10.2,3.9,13.4,6.1c3.3,2.2,5.6,4.7,7,7.5s2.1,6.2,2.1,10.1
					c0,4.9-1.1,9.2-3.3,12.8c-2.2,3.6-5.3,6.4-9.3,8.4C442.1,184.8,437.4,185.7,432.2,185.7z"/>
			</g>
			<g>
				<path class="st0" d="M474.5,214.9c-2.7,0-4.8-0.8-6.2-2.5c-1.4-1.6-2.1-3.4-2.1-5.3c0-2.1,0.6-3.9,1.9-5.4
					c1.3-1.5,2.9-2.3,5-2.3c1.2,0,2.3,0.2,3.2,0.6s1.6,0.9,2.1,1.5c0.5,0.5,1,0.9,1.4,1.2c0.4,0.2,0.8,0.4,1.2,0.4
					c1.2,0,2.3-1.1,3.3-3.4l7.4-16.4l-18.8-45.2c-0.3-0.7-0.7-1.2-1.3-1.6s-1.3-0.6-2.2-0.9l-3.6-0.8v-2h28.9v2l-2.5,0.6
					c-1.2,0.3-2.3,0.9-3,1.6c-0.8,0.8-0.9,1.9-0.3,3.5l11.9,31h-3.2l13.9-32c0.5-1.1,0.6-1.9,0.3-2.5s-1.1-1-2.4-1.2l-5.3-0.9v-2
					h21.5v2l-4.8,1.4c-1,0.3-1.8,0.6-2.2,1s-0.9,0.9-1.2,1.6l-28.9,63.8c-1.5,3.4-3,5.9-4.6,7.7c-1.6,1.8-3.2,3-4.7,3.6
					C477.5,214.5,475.9,214.9,474.5,214.9z"/>
			</g>
			<g>
				<path class="st0" d="M529.5,184.5v-2l3.7-1.4c1.2-0.5,2-1.1,2.5-1.8c0.5-0.7,0.7-1.7,0.7-2.9V143c0-1.6-0.3-2.7-0.8-3.3
					c-0.5-0.5-1.3-0.9-2.3-1.2l-3.7-0.9v-2.1c3-0.5,5.6-0.9,7.8-1.2c2.1-0.4,4.2-0.8,6.1-1.3s4-1.1,6.3-1.9l1.2,0.9
					c-0.5,0.9-1,2.2-1.2,4c-0.3,1.8-0.4,3.7-0.4,5.8v1.2l0.8,2.6v31.7c0,0.9,0.3,1.6,0.9,2.2c0.6,0.6,1.6,1.2,2.8,1.6l4.3,1.4v2
					L529.5,184.5L529.5,184.5z M550.1,154.2l-2-11.9l13.9-8.6c1.2-0.8,2.3-1.3,3.2-1.5c0.9-0.2,1.7-0.4,2.5-0.4c2,0,3.7,0.8,5.3,2.5
					c1.6,1.6,2.4,3.7,2.4,6.1c0,1.9-0.8,3.7-2.3,5.3s-3.5,2.4-6,2.4c-1.5,0-2.8-0.4-3.8-1.1s-2-1.4-2.8-2.2
					c-0.5-0.6-1.1-1.2-1.8-1.8s-1.3-0.9-2.1-0.9c-0.7,0-1.6,0.3-2.6,0.8s-1.9,1.7-2.8,3.4C550.5,148.1,550.1,150.7,550.1,154.2z"/>
			</g>
			<g>
				<path class="st0" d="M604.6,185.4c-5.2,0-9.8-1.2-13.8-3.5s-7-5.5-9.2-9.5c-2.2-4-3.3-8.4-3.3-13.4c0-5.4,1.1-10.1,3.3-14.2
					s5.3-7.3,9.2-9.6c4-2.3,8.6-3.4,13.8-3.4c5.3,0,9.9,1.1,13.9,3.4s7,5.4,9.2,9.4c2.2,4,3.3,8.5,3.3,13.4c0,5.3-1.1,10-3.3,14.1
					s-5.3,7.4-9.2,9.7S609.9,185.4,604.6,185.4z M604.7,181.7c3.7,0,6.6-1.8,8.5-5.4s2.9-9.2,2.9-16.9c0-7.9-1-13.8-2.9-17.8
					s-4.8-6-8.7-6c-3.7,0-6.5,1.8-8.4,5.4c-1.9,3.6-2.9,9.2-2.9,16.8c0,7.9,1,13.8,2.9,17.9C598,179.6,600.9,181.7,604.7,181.7z"/>
			</g>
		</g>
		<g>
			<g>
				<path class="st0" d="M712.4,185.2l-28.8-63.4l-3.4,51.9c-0.1,1.9,0.4,3.4,1.5,4.4c1.1,1,2.7,1.7,4.8,2.1l8.5,1.8v2.6H663v-2.6
					l6.8-1.5c1.4-0.3,2.5-0.7,3.5-1.2s1.6-1.2,2-2.1s0.7-2,0.8-3.4l3.5-57.2c0.2-2.5-0.2-4.1-1-4.9c-0.8-0.8-2.6-1.4-5.3-2l-6-1.3
					v-2.6l27.5,0.1l24.7,54.1l21.9-54.2h28.3v2.6l-6,1.3c-2.7,0.6-4.4,1.2-5.2,2s-1.2,2.4-1.1,4.9l2.3,57.2c0.1,1.6,0.3,2.9,0.6,3.7
					s0.9,1.5,1.8,1.9s2.2,0.8,4,1.2l6,1.3v2.6H731v-2.6l6-1.3c2.7-0.6,4.5-1.3,5.3-2.1s1.2-2.4,1-4.8l-2.6-54.6l-26.5,66
					L712.4,185.2L712.4,185.2z"/>
			</g>
			<g>
				<path class="st0" d="M793.3,185.3c-3,0-5.7-0.8-8.1-2.4c-2.3-1.6-4.2-3.7-5.5-6.3c-1.3-2.6-2-5.4-2-8.5c0-1.4,0.1-2.4,0.4-3
					c0.3-0.6,0.7-1,1.3-1.2l24.1-9c1.4-0.5,2.3-1.1,2.8-1.8s0.6-1.5,0.6-2.7v-4.3c0-3.4-0.8-6.1-2.4-7.9s-4-2.8-7.3-2.8
					c-2.2,0-3.9,0.4-5.3,1.3c-1.3,0.9-2,1.9-2,3c0,0.6,0.2,1.1,0.5,1.6s0.7,1,1,1.6c0.6,0.8,1.1,1.6,1.5,2.4
					c0.4,0.8,0.6,1.7,0.6,2.6c0,1.9-0.7,3.3-2,4.4c-1.4,1.1-3.1,1.6-5.1,1.6c-2.1,0-3.7-0.6-4.9-1.8s-1.8-2.8-1.8-4.9
					c0-2.9,1-5.5,3.1-7.9c2.1-2.4,4.7-4.3,8-5.7c3.2-1.4,6.5-2.1,9.9-2.1c3.5,0,6.8,0.6,9.8,1.7c3,1.1,5.4,2.9,7.3,5.2
					c1.9,2.3,2.8,5.4,2.8,9.2v25.4c0,1.5,0.2,2.8,0.5,3.8s1.2,1.6,2.6,1.6c1.2,0,2.8-0.3,4.9-0.9v2.9c-1.6,0.9-3.6,1.9-6.1,3
					c-2.5,1.1-4.8,1.6-6.8,1.6c-1.6,0-2.9-0.3-4-0.9c-1.1-0.6-2-1.7-2.6-3.2s-1-3.5-1-6v-1.8l3.3,2.7c-1.8,1.5-3.7,2.9-5.7,4.4
					s-4,2.6-6.1,3.6C797.5,184.8,795.4,185.3,793.3,185.3z M799.9,178.3c1.1,0,2.1-0.2,2.9-0.6s1.8-0.9,2.9-1.6
					c0.9-0.6,1.3-1.7,1.3-3.3v-13.9c0-0.2-0.1-0.4-0.2-0.5c-0.1-0.1-0.3-0.1-0.5,0.1l-13.9,5c-0.5,0.2-0.8,0.5-1,0.9
					c-0.2,0.5-0.3,1.3-0.3,2.6c0,1.9,0.4,3.7,1.2,5.4c0.8,1.7,1.8,3.1,3.2,4.3C796.9,177.7,798.3,178.3,799.9,178.3z"/>
			</g>
			<g>
				<path class="st0" d="M833.3,184.5v-2l3.7-1.4c1.1-0.4,1.9-1,2.4-1.8c0.5-0.8,0.8-1.8,0.8-2.9v-63c0-1.6-0.3-2.7-0.8-3.3
					c-0.5-0.5-1.3-0.9-2.3-1.2l-3.7-0.9v-2.1c4.4-0.6,8.2-1.2,11.3-1.8c3.1-0.5,6.3-1.4,9.7-2.7l1.2,0.9c-0.5,0.9-1,2.2-1.2,4
					c-0.3,1.8-0.4,3.7-0.4,5.8v65c0,1.1,0.4,1.9,1.1,2.6c0.7,0.6,1.4,1.1,2,1.3l3.7,1.4v2L833.3,184.5L833.3,184.5z"/>
			</g>
			<g>
				<path class="st0" d="M880.4,185.3c-3,0-5.7-0.8-8.1-2.4c-2.3-1.6-4.2-3.7-5.5-6.3c-1.3-2.6-2-5.4-2-8.5c0-1.4,0.1-2.4,0.4-3
					c0.3-0.6,0.7-1,1.3-1.2l24.1-9c1.4-0.5,2.3-1.1,2.8-1.8s0.6-1.5,0.6-2.7v-4.3c0-3.4-0.8-6.1-2.4-7.9s-4-2.8-7.3-2.8
					c-2.2,0-3.9,0.4-5.3,1.3c-1.3,0.9-2,1.9-2,3c0,0.6,0.2,1.1,0.5,1.6s0.7,1,1,1.6c0.6,0.8,1.1,1.6,1.5,2.4
					c0.4,0.8,0.6,1.7,0.6,2.6c0,1.9-0.7,3.3-2,4.4c-1.4,1.1-3.1,1.6-5.1,1.6c-2.1,0-3.7-0.6-4.9-1.8s-1.8-2.8-1.8-4.9
					c0-2.9,1-5.5,3.1-7.9c2.1-2.4,4.7-4.3,8-5.7c3.2-1.4,6.5-2.1,9.9-2.1c3.5,0,6.8,0.6,9.8,1.7c3,1.1,5.4,2.9,7.3,5.2
					c1.9,2.3,2.8,5.4,2.8,9.2v25.4c0,1.5,0.2,2.8,0.5,3.8s1.2,1.6,2.6,1.6c1.2,0,2.8-0.3,4.9-0.9v2.9c-1.6,0.9-3.6,1.9-6.1,3
					c-2.5,1.1-4.8,1.6-6.8,1.6c-1.6,0-2.9-0.3-4-0.9c-1.1-0.6-2-1.7-2.6-3.2s-1-3.5-1-6v-1.8l3.3,2.7c-1.8,1.5-3.7,2.9-5.7,4.4
					s-4,2.6-6.1,3.6C884.6,184.8,882.5,185.3,880.4,185.3z M887,178.3c1.1,0,2.1-0.2,2.9-0.6s1.8-0.9,2.9-1.6
					c0.9-0.6,1.3-1.7,1.3-3.3v-13.9c0-0.2-0.1-0.4-0.2-0.5c-0.1-0.1-0.3-0.1-0.5,0.1l-13.9,5c-0.5,0.2-0.8,0.5-1,0.9
					c-0.2,0.5-0.3,1.3-0.3,2.6c0,1.9,0.4,3.7,1.2,5.4c0.8,1.7,1.8,3.1,3.2,4.3C883.9,177.7,885.4,178.3,887,178.3z"/>
			</g>
			<g>
				<path class="st0" d="M927.4,185.9l-2.5-0.4v-72.1c0-1.6-0.3-2.7-0.8-3.3c-0.5-0.5-1.3-0.9-2.3-1.2L918,108v-2.1
					c4.4-0.6,8.2-1.2,11.3-1.8c3.1-0.5,6.3-1.4,9.7-2.7l1.2,0.9c-0.6,0.9-1,2.2-1.2,4c-0.3,1.8-0.4,3.7-0.4,5.8v26.2l9.3-5.3
					c0.5-0.3,1.2-0.6,2.1-0.9c0.8-0.3,1.6-0.4,2.4-0.4c5.8,0,10.7,1.2,14.4,3.6c3.8,2.4,6.6,5.6,8.4,9.5c1.8,3.9,2.8,8.2,2.8,12.7
					s-1,8.9-3,13.2c-2,4.3-5,7.8-9.1,10.5c-4.1,2.7-9.3,4.1-15.6,4.1c-3.3,0-6.6-0.6-9.9-1.9c-3.2-1.3-5.9-2.9-7.9-4.7
					c-0.9,1-1.8,2.1-2.6,3.3C929.1,183.3,928.3,184.5,927.4,185.9z M950.3,181.4c3,0,5.4-0.9,7.2-2.8c1.9-1.8,3.2-4.2,4.2-7.2
					s1.3-6.1,1.3-9.4c0-3.8-0.5-7.4-1.5-10.7c-1-3.3-2.6-6-4.7-8.1c-2.1-2.1-4.8-3.2-8.2-3.2c-3.1,0-5.6,1-7.4,3s-2.7,4.4-2.7,7.1
					v16c0,2.7,0.5,5.2,1.6,7.5c1.1,2.3,2.5,4.1,4.3,5.5C946.4,180.7,948.3,181.4,950.3,181.4z"/>
			</g>
			<g>
				<path class="st0" d="M1000,185.3c-3,0-5.7-0.8-8.1-2.4c-2.3-1.6-4.2-3.7-5.5-6.3c-1.3-2.6-2-5.4-2-8.5c0-1.4,0.1-2.4,0.4-3
					s0.7-1,1.3-1.2l24.1-9c1.4-0.5,2.3-1.1,2.8-1.8s0.6-1.5,0.6-2.7v-4.3c0-3.4-0.8-6.1-2.4-7.9s-4-2.8-7.3-2.8
					c-2.2,0-3.9,0.4-5.3,1.3c-1.3,0.9-2,1.9-2,3c0,0.6,0.2,1.1,0.5,1.6c0.3,0.5,0.7,1,1.1,1.6c0.6,0.8,1.1,1.6,1.5,2.4
					c0.4,0.8,0.6,1.7,0.6,2.6c0,1.9-0.7,3.3-2.1,4.4c-1.4,1.1-3.1,1.6-5.1,1.6c-2.1,0-3.7-0.6-4.9-1.8s-1.8-2.8-1.8-4.9
					c0-2.9,1-5.5,3.1-7.9c2.1-2.4,4.7-4.3,7.9-5.7c3.2-1.4,6.5-2.1,9.9-2.1c3.5,0,6.8,0.6,9.8,1.7c3,1.1,5.4,2.9,7.3,5.2
					c1.9,2.3,2.8,5.4,2.8,9.2v25.4c0,1.5,0.2,2.8,0.5,3.8c0.3,1.1,1.2,1.6,2.6,1.6c1.2,0,2.8-0.3,4.9-0.9v2.9
					c-1.6,0.9-3.6,1.9-6.1,3c-2.5,1.1-4.8,1.6-6.8,1.6c-1.6,0-2.9-0.3-4-0.9c-1.1-0.6-2-1.7-2.6-3.2s-1-3.5-1.1-6v-1.8l3.3,2.7
					c-1.8,1.5-3.7,2.9-5.7,4.4s-4,2.6-6.1,3.6C1004.2,184.8,1002.1,185.3,1000,185.3z M1006.5,178.3c1.1,0,2.1-0.2,2.9-0.6
					s1.8-0.9,2.9-1.6c0.9-0.6,1.3-1.7,1.3-3.3v-13.9c0-0.2-0.1-0.4-0.2-0.5c-0.1-0.1-0.3-0.1-0.5,0.1l-13.9,5
					c-0.5,0.2-0.8,0.5-1,0.9c-0.2,0.5-0.3,1.3-0.3,2.6c0,1.9,0.4,3.7,1.2,5.4s1.8,3.1,3.2,4.3C1003.5,177.7,1005,178.3,1006.5,178.3
					z"/>
			</g>
			<g>
				<path class="st0" d="M1040,184.5v-2l3.7-1.4c1.2-0.5,2-1.1,2.4-1.8c0.5-0.7,0.7-1.7,0.7-2.9V143c0-1.6-0.3-2.7-0.8-3.3
					c-0.6-0.5-1.3-0.9-2.3-1.2l-3.7-0.9v-2.1c3-0.5,5.6-0.9,7.8-1.2c2.1-0.4,4.2-0.8,6.1-1.3c1.9-0.5,4.1-1.1,6.3-1.9l1.2,0.9
					c-0.6,0.9-1,2.2-1.2,4c-0.3,1.8-0.4,3.7-0.4,5.8v1.2l0.8,2.6v31.7c0,0.9,0.3,1.6,0.9,2.2c0.6,0.6,1.6,1.2,2.8,1.6l4.3,1.4v2
					L1040,184.5L1040,184.5z M1060.5,154.2l-2-11.9l13.9-8.6c1.2-0.8,2.3-1.3,3.2-1.5c0.9-0.2,1.7-0.4,2.5-0.4
					c1.9,0,3.7,0.8,5.3,2.5s2.4,3.7,2.4,6.1c0,1.9-0.8,3.7-2.3,5.3s-3.5,2.4-6,2.4c-1.5,0-2.8-0.4-3.8-1.1s-2-1.4-2.8-2.2
					c-0.6-0.6-1.1-1.2-1.8-1.8s-1.3-0.9-2.1-0.9c-0.7,0-1.6,0.3-2.6,0.8c-1,0.6-1.9,1.7-2.8,3.4
					C1060.9,148.1,1060.5,150.7,1060.5,154.2z"/>
			</g>
		</g>
		<g>
			<g>
				<path class="st0" d="M447.8,315.4c-6.8,0-13-1-18.6-3s-10.5-4.9-14.6-8.5c-4.1-3.6-7.3-7.8-9.5-12.6s-3.4-10-3.4-15.5
					c0-5.9,1.1-11.4,3.4-16.4c2.3-5,5.5-9.4,9.6-13.2c4.1-3.7,9-6.6,14.5-8.7c5.6-2.1,11.6-3.1,18.2-3.1c4.4,0,7.9,0.3,10.5,1
					s4.7,1.4,6.4,2.2c1.4,0.6,2.8,1.2,4,1.7c1.3,0.5,2.8,0.8,4.5,0.8c0.9,0,1.6-0.1,2.3-0.2c0.7-0.1,1.4-0.2,2.2-0.4l0.5,0.4
					c-0.9,3.4-1,6.9-0.5,10.5c0.5,3.7,1.2,7.4,1.9,11.2h-3.2c-1.9-4.5-4.2-8.5-6.8-12s-5.8-6.2-9.5-8.1c-3.6-2-7.8-2.9-12.7-2.9
					c-5.1,0-9.7,1.5-13.8,4.6s-7.4,7.4-9.9,12.9c-2.5,5.6-3.7,12.2-3.7,19.8c0,7,1.2,13.2,3.5,18.6s5.5,9.6,9.7,12.6
					s9.1,4.5,14.7,4.5c3.7,0,7-0.6,10-1.8s5.8-2.9,8.2-5c2.5-2.1,4.6-4.6,6.5-7.4c1.9-2.8,3.4-5.8,4.7-9.1h3.6
					c-1.1,3.7-2,7.6-2.6,11.5c-0.6,3.9-1,7.7-1,11.3H476c-2.1,0-4.1,0.2-6,0.6c-1.9,0.4-3.8,0.9-5.5,1.3c-2.2,0.6-4.5,1.2-7.1,1.8
					C454.8,315.1,451.6,315.4,447.8,315.4z"/>
			</g>
			<g>
				<path class="st0" d="M512.6,315.1c-5.2,0-9.8-1.2-13.8-3.5s-7-5.5-9.2-9.5c-2.2-4-3.3-8.5-3.3-13.4c0-5.4,1.1-10.1,3.3-14.2
					c2.2-4.1,5.3-7.3,9.2-9.6c4-2.3,8.6-3.5,13.8-3.5c5.3,0,9.9,1.1,13.9,3.5c4,2.3,7,5.4,9.2,9.4c2.2,4,3.3,8.5,3.3,13.4
					c0,5.3-1.1,10-3.3,14.1s-5.3,7.4-9.2,9.7C522.5,314,517.9,315.1,512.6,315.1z M512.7,311.4c3.7,0,6.6-1.8,8.5-5.4
					s2.9-9.2,2.9-16.9c0-7.9-1-13.8-2.9-17.8s-4.8-6-8.7-6c-3.7,0-6.5,1.8-8.4,5.4c-1.9,3.6-2.9,9.2-2.9,16.8c0,7.9,1,13.8,2.9,17.9
					C506,309.4,508.9,311.4,512.7,311.4z"/>
			</g>
			<g>
				<path class="st0" d="M545.4,314.2v-2l3.7-1.4c1.1-0.4,1.9-1,2.4-1.8s0.8-1.8,0.8-2.9v-33.4c0-1.6-0.3-2.7-0.8-3.3
					c-0.5-0.5-1.3-0.9-2.3-1.2l-3.7-0.9v-2.1c3-0.5,5.6-0.9,7.8-1.2s4.2-0.8,6.1-1.3s4-1.1,6.3-1.9l1.2,0.9c-0.5,0.9-1,2.2-1.2,4
					c-0.3,1.8-0.4,3.7-0.4,5.8v1.2l0.8,2.6v31.7c0,1.1,0.4,2,1.1,2.6s1.4,1,2,1.3l3.7,1.4v2L545.4,314.2L545.4,314.2z M577.8,314.2
					v-2l3.7-1.4c1.1-0.4,1.9-1,2.4-1.8s0.8-1.8,0.8-2.9v-24.3c0-3.4-0.8-6.1-2.4-8c-1.6-1.9-3.9-2.8-6.8-2.8s-5.3,1-7,3
					c-1.7,2-2.5,4.6-2.5,7.8l-1.8-12h1.6c2.2-1.1,4.5-2.3,7.1-3.6s4.9-2.6,7.1-4c0.7-0.5,1.4-0.7,2-0.7c5.1,0,9.2,1.4,12,4.1
					c2.9,2.8,4.3,6.8,4.3,12.1V307c0,1.1,0.4,2,1.1,2.6s1.4,1,2,1.3l3.7,1.4v2L577.8,314.2L577.8,314.2z M610.2,314.2v-2l3.7-1.4
					c1.1-0.4,1.9-1,2.4-1.8s0.8-1.8,0.8-2.9v-24.3c0-3.4-0.8-6.1-2.4-8c-1.6-1.9-3.9-2.8-6.8-2.8s-5.3,1-7,3c-1.7,2-2.5,4.6-2.5,7.8
					l-1.8-12h1.6c2.2-1.1,4.5-2.3,7.1-3.6s4.9-2.6,7.1-4c0.7-0.5,1.4-0.7,2-0.7c5.1,0,9.2,1.4,12,4.1c2.9,2.8,4.3,6.8,4.3,12.1V307
					c0,1.1,0.4,2,1.1,2.6s1.4,1,2,1.3l3.7,1.4v2L610.2,314.2L610.2,314.2z"/>
			</g>
			<g>
				<path class="st0" d="M642.3,314.2v-2l3.7-1.4c1.1-0.4,1.9-1,2.4-1.8s0.8-1.8,0.8-2.9v-33.4c0-1.6-0.3-2.7-0.8-3.3
					c-0.5-0.5-1.3-0.9-2.3-1.2l-3.7-0.9v-2.1c3-0.5,5.6-0.9,7.8-1.2s4.2-0.8,6.1-1.3s4-1.1,6.3-1.9l1.2,0.9c-0.5,0.9-1,2.2-1.2,4
					c-0.3,1.8-0.4,3.7-0.4,5.8v1.2l0.8,2.6v31.7c0,1.1,0.4,2,1.1,2.6s1.4,1,2,1.3l3.7,1.4v2L642.3,314.2L642.3,314.2z M674.7,314.2
					v-2l3.7-1.4c1.1-0.4,1.9-1,2.4-1.8s0.8-1.8,0.8-2.9v-24.3c0-3.4-0.8-6.1-2.4-8c-1.6-1.9-3.9-2.8-6.8-2.8s-5.3,1-7,3
					c-1.7,2-2.5,4.6-2.5,7.8l-1.8-12h1.6c2.2-1.1,4.5-2.3,7.1-3.6s4.9-2.6,7.1-4c0.7-0.5,1.4-0.7,2-0.7c5.1,0,9.2,1.4,12,4.1
					c2.9,2.8,4.3,6.8,4.3,12.1V307c0,1.1,0.4,2,1.1,2.6s1.4,1,2,1.3l3.7,1.4v2L674.7,314.2L674.7,314.2z M707.1,314.2v-2l3.7-1.4
					c1.1-0.4,1.9-1,2.4-1.8s0.8-1.8,0.8-2.9v-24.3c0-3.4-0.8-6.1-2.4-8c-1.6-1.9-3.9-2.8-6.8-2.8s-5.3,1-7,3c-1.7,2-2.5,4.6-2.5,7.8
					l-1.8-12h1.6c2.2-1.1,4.5-2.3,7.1-3.6s4.9-2.6,7.1-4c0.7-0.5,1.4-0.7,2-0.7c5.1,0,9.2,1.4,12,4.1c2.9,2.8,4.3,6.8,4.3,12.1V307
					c0,1.1,0.4,2,1.1,2.6s1.4,1,2,1.3l3.7,1.4v2L707.1,314.2L707.1,314.2z"/>
			</g>
			<g>
				<path class="st0" d="M760.6,315.1c-5.3,0-9.4-1.4-12.4-4.2s-4.4-6.8-4.4-12v-27.7c0-1.6-0.3-2.8-0.8-3.3s-1.3-1-2.3-1.2
					l-3.7-0.9v-2.1c3.1-0.2,5.8-0.5,8-0.7s4.3-0.5,6.3-0.9c2-0.4,4.2-0.9,6.7-1.4l1.2,0.9c-0.5,0.9-1,2.2-1.2,4
					c-0.3,1.8-0.4,3.7-0.4,5.8v23.3c0,3.4,0.8,6.1,2.5,8c1.7,1.9,4.1,2.8,7.2,2.8c3.2,0,5.7-1,7.4-3c1.7-2,2.6-4.6,2.6-7.8l1.8,12.3
					h-1.6c-2.4,1-4.9,2.2-7.5,3.6s-5,2.8-7.3,4.1C761.7,314.9,761.1,315.1,760.6,315.1z M780.5,315.1l-1.2-0.6l-1.4-9.5l-0.8-3.7
					v-30.2c0-1.6-0.3-2.8-0.8-3.3s-1.3-1-2.3-1.2l-3.7-0.9v-2.1c3.1-0.2,5.8-0.5,8-0.7c2.2-0.2,4.3-0.5,6.3-0.9
					c2-0.4,4.2-0.9,6.7-1.4l1.2,0.9c-0.5,0.9-1,2.2-1.2,4c-0.3,1.8-0.4,3.7-0.4,5.8V303c0,2.6,0.7,4.4,2,5.5
					c1.3,1.1,3.5,1.6,6.7,1.6v3c-3.3,0.1-6.5,0.3-9.4,0.8C787.1,314.3,783.9,314.7,780.5,315.1z"/>
			</g>
			<g>
				<path class="st0" d="M806.4,314.2v-2l3.7-1.4c1.1-0.4,1.9-1,2.4-1.8s0.8-1.8,0.8-2.9v-33.4c0-1.6-0.3-2.7-0.8-3.3
					c-0.5-0.5-1.3-0.9-2.3-1.2l-3.7-0.9v-2.1c3-0.5,5.6-0.9,7.8-1.2s4.2-0.8,6.1-1.3s4-1.1,6.3-1.9l1.2,0.9c-0.5,0.9-1,2.2-1.2,4
					c-0.3,1.8-0.4,3.7-0.4,5.8v1.2l0.8,2.6v31.7c0,1.1,0.4,2,1.1,2.6s1.4,1,2,1.3l3.7,1.4v2L806.4,314.2L806.4,314.2z M840.9,314.2
					v-2l3.7-1.4c1.1-0.4,1.9-1,2.4-1.8s0.8-1.8,0.8-2.9v-24.4c0-3.4-0.9-6.1-2.6-7.9c-1.8-1.8-4.3-2.8-7.7-2.8s-5.9,1-7.8,3.1
					c-1.8,2.1-2.8,4.7-2.8,7.9l-1.8-12.3h1.6c2.3-1.1,4.7-2.3,7.1-3.6c2.4-1.3,4.8-2.6,7.2-4c0.9-0.5,1.8-0.8,2.9-0.8
					c5.5,0,9.8,1.4,12.9,4.2c3,2.8,4.6,6.9,4.6,12.2V307c0,1.1,0.4,2,1.1,2.6s1.4,1,2,1.3l3.7,1.4v2L840.9,314.2L840.9,314.2z"/>
			</g>
			<g>
				<path class="st0" d="M873,314.2v-2l3.7-1.4c2.1-0.9,3.2-2.4,3.2-4.7v-33.4c0-1.6-0.3-2.7-0.8-3.3c-0.5-0.5-1.3-0.9-2.3-1.2
					l-3.7-0.9v-2.1c4.4-0.6,8.2-1.2,11.3-1.8c3.1-0.5,6.3-1.4,9.7-2.7l1.2,0.9c-0.5,0.9-1,2.2-1.2,4c-0.3,1.8-0.4,3.7-0.4,5.8v35.4
					c0,1.1,0.4,2,1.1,2.6s1.4,1,2,1.3l3.7,1.4v2H873z M886.6,250.5c-2.4,0-4.5-0.8-6.1-2.5s-2.5-3.7-2.5-6.1c0-2.4,0.8-4.5,2.5-6.1
					c1.7-1.7,3.7-2.5,6.1-2.5c2.4,0,4.5,0.8,6.1,2.5c1.7,1.7,2.5,3.7,2.5,6.1s-0.8,4.5-2.5,6.1C891.1,249.6,889,250.5,886.6,250.5z"
					/>
			</g>
			<g>
				<path class="st0" d="M923.8,315.1c-7.8,0-11.7-4.7-11.7-14.1v-34.6h-7.5v-3.2c5.3-0.7,9.4-2.5,12.3-5.4c2.9-2.9,4.8-7,5.8-12.3
					h3v17.1h13.4l-1.2,3.9h-12.3V300c0,3,0.5,4.9,1.4,5.9s2.1,1.5,3.6,1.5c1.1,0,2.4-0.3,3.8-0.8c1.4-0.5,2.9-1.2,4.4-2.1l1.6,3
					c-3.1,2.5-6.2,4.4-9.1,5.7C928.5,314.5,925.9,315.1,923.8,315.1z"/>
			</g>
			<g>
				<path class="st0" d="M953.5,344.6c-2.7,0-4.8-0.8-6.2-2.5c-1.4-1.6-2.1-3.4-2.1-5.3c0-2.1,0.6-3.9,1.9-5.4
					c1.3-1.5,2.9-2.3,5-2.3c1.2,0,2.3,0.2,3.2,0.6c0.9,0.4,1.6,0.9,2.1,1.5c0.5,0.5,1,0.9,1.4,1.2c0.4,0.2,0.8,0.4,1.2,0.4
					c1.2,0,2.3-1.1,3.3-3.4l7.4-16.4l-18.8-45.2c-0.3-0.7-0.7-1.2-1.3-1.6c-0.6-0.4-1.3-0.6-2.2-0.9l-3.6-0.8v-2h28.9v2l-2.4,0.6
					c-1.2,0.3-2.3,0.9-3,1.6c-0.8,0.8-0.9,2-0.3,3.5l11.9,31h-3.2l13.9-32c0.5-1.1,0.6-1.9,0.3-2.5c-0.3-0.6-1.1-1-2.4-1.2l-5.3-0.9
					v-2h21.5v2l-4.8,1.4c-1,0.3-1.8,0.6-2.2,1c-0.5,0.4-0.9,0.9-1.2,1.6l-28.9,63.8c-1.5,3.4-3,5.9-4.6,7.7c-1.6,1.8-3.2,3-4.7,3.6
					C956.5,344.2,954.9,344.6,953.5,344.6z"/>
			</g>
		</g>
		<g>
			<g>
				<g>
					<path class="st0" d="M419.4,396.1l-12.2-28.9c-0.1-0.3-0.4-0.6-0.7-0.8s-0.7-0.3-1-0.4l-2.5-0.5v-1h16.6v1l-2.3,0.5
						c-0.8,0.1-1.3,0.4-1.7,0.6s-0.5,0.6-0.5,1c0,0.1,0,0.3,0.1,0.5s0.1,0.4,0.2,0.5l8.2,21.2h-1.2l8.7-21.3
						c0.1-0.1,0.1-0.3,0.1-0.4s0-0.2,0-0.4c0-0.4-0.2-0.7-0.5-0.9c-0.3-0.2-0.8-0.4-1.5-0.5l-3.5-0.8v-1h12.8v1l-2.9,0.6
						c-0.6,0.1-1.1,0.3-1.5,0.5c-0.4,0.2-0.7,0.6-0.9,1.1L421.7,396L419.4,396.1L419.4,396.1z"/>
				</g>
				<g>
					<path class="st0" d="M449.2,395.4v-1l2.3-0.5c1.1-0.2,1.8-0.5,2-0.8c0.3-0.3,0.4-0.9,0.4-1.9v-22.5c0-1-0.2-1.6-0.4-1.9
						s-1-0.6-2-0.8l-2.3-0.5v-1h16.1v1L463,366c-1,0.2-1.7,0.5-2,0.8s-0.5,1-0.5,1.9v22.5c0,1,0.2,1.6,0.5,1.9c0.3,0.3,1,0.6,2,0.8
						l2.3,0.5v1L449.2,395.4L449.2,395.4z"/>
				</g>
				<g>
					<path class="st0" d="M477.3,395.4v-1l2.3-0.5c1.1-0.2,1.8-0.5,2-0.8c0.3-0.3,0.4-0.9,0.4-1.9v-22.5c0-1-0.2-1.6-0.4-1.9
						s-1-0.6-2-0.8l-2.3-0.5v-1h26.3c-0.1,0.4-0.2,0.9-0.2,1.3c0,0.4,0,0.8,0,1.3c0,1,0.1,1.9,0.2,2.8c0.2,0.9,0.3,1.9,0.5,2.8h-1
						c-0.5-1.2-1.1-2.3-1.9-3.3c-0.8-1-1.7-1.8-2.8-2.4s-2.3-0.9-3.7-0.9h-6.1v12.3h5.9c1.5,0,2.6-0.3,3.3-0.9
						c0.7-0.6,1.1-1.5,1.3-2.6l0.4-2.1h1v12.7h-1l-0.4-2.2c-0.2-1.1-0.6-1.9-1.2-2.5c-0.6-0.6-1.7-0.9-3.2-0.9h-6v10.1
						c0,0.9,0,1.6,0.1,2.2s0.4,1,0.8,1.3s1.2,0.4,2.2,0.4h3.4c1.1,0,2.1-0.2,2.9-0.5s1.6-0.8,2.3-1.4s1.3-1.3,1.9-2.1l2-2.8h1
						c-0.3,1.4-0.6,2.7-0.8,4.1c-0.2,1.4-0.3,2.8-0.3,4.2H477.3z"/>
				</g>
				<g>
					<path class="st0" d="M547.4,396.1l-23.4-25.9v20.9c0,0.8,0.2,1.3,0.6,1.7s1,0.6,1.9,0.8l3.3,0.7v1h-12.6v-1l2.7-0.6
						c0.8-0.2,1.5-0.5,1.9-0.8s0.6-1,0.6-1.8v-22.5c0-0.6-0.1-1.1-0.2-1.5s-0.4-0.6-0.7-0.8c-0.3-0.2-0.9-0.3-1.6-0.5l-2.3-0.5v-1
						h9.7l19.3,21.2v-17c0-0.8-0.2-1.3-0.6-1.7s-1-0.6-1.9-0.8l-3.3-0.7v-1h12.6v1l-2.7,0.6c-0.8,0.2-1.5,0.5-1.9,0.8
						s-0.6,1-0.6,1.8v27.5L547.4,396.1L547.4,396.1z"/>
				</g>
				<g>
					<path class="st0" d="M594.8,396.1l-23.4-25.9v20.9c0,0.8,0.2,1.3,0.6,1.7s1,0.6,1.9,0.8l3.3,0.7v1h-12.6v-1l2.7-0.6
						c0.8-0.2,1.5-0.5,1.9-0.8s0.6-1,0.6-1.8v-22.5c0-0.6-0.1-1.1-0.2-1.5s-0.4-0.6-0.7-0.8c-0.3-0.2-0.9-0.3-1.6-0.5l-2.3-0.5v-1
						h9.7l19.3,21.2v-17c0-0.8-0.2-1.3-0.6-1.7s-1-0.6-1.9-0.8l-3.3-0.7v-1h12.6v1l-2.7,0.6c-0.8,0.2-1.5,0.5-1.9,0.8
						s-0.6,1-0.6,1.8v27.5L594.8,396.1L594.8,396.1z"/>
				</g>
				<g>
					<path class="st0" d="M609,395.4v-1l2.7-0.6c0.7-0.1,1.2-0.4,1.5-0.7c0.3-0.3,0.6-0.7,0.8-1.2l9.4-22.2l-1.4-3.5
						c1,0,1.8-0.2,2.5-0.6s1.2-0.8,1.5-1.2c0.3-0.4,0.5-0.8,0.5-1.1h0.6l12,29.2c0.2,0.4,0.4,0.6,0.7,0.8c0.3,0.2,0.9,0.4,1.6,0.5
						l2.3,0.5v1h-16.1v-1l2.3-0.5c0.7-0.1,1.2-0.4,1.5-0.6c0.3-0.2,0.5-0.5,0.5-0.9c0-0.1,0-0.3-0.1-0.5s-0.1-0.3-0.2-0.5l-8.2-20.5
						h1l-8.9,21.1c0,0.1,0,0.2-0.1,0.3c0,0.1,0,0.2,0,0.2c0,0.3,0.1,0.5,0.3,0.7c0.2,0.2,0.6,0.4,1.1,0.5l4,0.7v1L609,395.4
						L609,395.4z M618.7,385v-1.5h13.1v1.5H618.7z"/>
				</g>
			</g>
		</g>
	</g>
</g>
</svg>
