<?xml version="1.0" encoding="utf-8"?>
<!-- Generator: Adobe Illustrator 26.5.0, SVG Export Plug-In . SVG Version: 6.00 Build 0)  -->
<svg version="1.1" id="Layer_1" xmlns="http://www.w3.org/2000/svg" xmlns:xlink="http://www.w3.org/1999/xlink" x="0px" y="0px"
	 viewBox="0 0 358 359" style="enable-background:new 0 0 358 359;" xml:space="preserve">
<style type="text/css">
	.st0{fill:url(#SVGID_1_);}
</style>
<linearGradient id="SVGID_1_" gradientUnits="userSpaceOnUse" x1="19.543" y1="98.0871" x2="338.457" y2="260.9129">
	<stop  offset="0" style="stop-color:#7B35CC"/>
	<stop  offset="1" style="stop-color:#26B7A4"/>
</linearGradient>
<path class="st0" d="M179,0.5C80.1,0.5,0,80.6,0,179.5s80.1,179,179,179s179-80.1,179-179S277.9,0.5,179,0.5z M179,51.5
	c5.7,0,10.2,4.6,10.2,10.2c0,3-1.2,5.5-3.2,7.4c-2.2-0.6-4.6-1-7.1-1s-4.8,0.4-7.1,1c-1.9-1.9-3.2-4.5-3.2-7.4
	C168.8,56.1,173.4,51.5,179,51.5z M173.5,70.5c1.7-0.4,3.5-0.6,5.4-0.6c1.9,0,3.7,0.2,5.4,0.6c8.7,2.1,15,8.9,15,16.9
	c0,4.7-2.2,9-5.7,12.2c-3.7,3.3-8.9,5.4-14.6,5.4c-5.8,0-11-2.1-14.6-5.4c-3.5-3.2-5.7-7.4-5.7-12.2
	C158.6,79.3,164.9,72.5,173.5,70.5z M67.7,187.6c-1.9,1.9-4.5,3.2-7.4,3.2c-5.6,0-10.2-4.5-10.2-10.2s4.6-10.2,10.2-10.2
	c3,0,5.5,1.2,7.4,3.2c-0.6,2.2-1,4.6-1,7.1C66.6,183,67,185.3,67.7,187.6z M69,185.8c-0.4-1.7-0.6-3.5-0.6-5.4
	c0-1.9,0.2-3.7,0.6-5.4c2.1-8.5,8.9-14.8,16.9-14.8c4.8,0,9,2.2,12.2,5.7c3.3,3.7,5.4,8.9,5.4,14.6c0,5.8-2.1,11-5.4,14.6
	c-3.2,3.5-7.5,5.7-12.2,5.7C77.8,200.8,71,194.5,69,185.8z M179,309.5c-5.6,0-10.2-4.5-10.2-10.2c0-3,1.2-5.5,3.2-7.4
	c2.2,0.6,4.6,1,7.1,1s4.8-0.4,7.1-1c1.9,1.9,3.2,4.5,3.2,7.4C189.2,304.9,184.7,309.5,179,309.5z M184.3,290.5
	c-1.7,0.4-3.5,0.6-5.4,0.6c-1.9,0-3.7-0.2-5.4-0.6c-8.5-2.1-14.8-8.9-14.8-16.9c0-4.8,2.2-9,5.7-12.2c3.7-3.3,8.9-5.4,14.6-5.4
	c5.8,0,11,2.1,14.6,5.4c3.5,3.2,5.7,7.5,5.7,12.2C199.3,281.7,193,288.5,184.3,290.5z M265.3,212c-0.8,8.7-8.2,16-16.9,16.9
	c-14,1.6-24.3-14.8-15.6-26.2c1.4-1.9,3.3-3.5,5.5-4.5c1.4-0.9,3.1-1.4,4.9-1.6c6-0.4,11.2,4,11.7,10c0.5,6-4,11.2-10,11.7
	c-0.4,0-0.8,0-1.2,0c3.5,2.6,9.1,1.2,11.9-2.2c2.7-3,3.4-7.3,2.4-11.1c-0.8-3.2-2.6-6-5-8.1c-17-5.2-47.2-5.8-63.3-5.6
	c-0.1,16.1,0.4,46.3,5.6,63.3c2,2.4,4.8,4.2,8.1,5c3.8,1,8.2,0.4,11.1-2.4c3.3-2.8,4.8-8.4,2.2-11.9c0,0.4,0,0.8,0,1.2
	c-0.4,6-5.7,10.4-11.7,10c-6-0.4-10.4-5.7-10-11.7c0.1-1.8,0.7-3.5,1.6-4.9c1.1-2.2,2.6-4,4.5-5.5c11.5-8.7,27.8,1.6,26.2,15.6
	c-0.9,8.7-8.1,16.1-16.9,16.9c-4.4,0.4-8.9-0.7-12.6-3c-0.6-0.9-1.2-1.7-1.9-2.5c-1.4-1.5-3-2.8-4.8-3.8c-3.5-2-7.6-3.2-12.2-3.2
	c-4.5,0-8.6,1.2-12.2,3.2c-1.8,1.1-3.5,2.4-4.8,3.8c-0.7,0.7-1.4,1.6-1.9,2.5c-3.7,2.2-8.2,3.5-12.6,3c-8.7-0.8-16-8.2-16.9-16.9
	c-1.6-14,14.7-24.3,26.2-15.6c1.9,1.4,3.5,3.4,4.5,5.5c0.9,1.4,1.4,3.1,1.6,4.8c0.4,6-4,11.2-10,11.7c-6,0.4-11.2-4-11.7-10
	c-0.1-0.4-0.1-0.8,0-1.2c-2.6,3.5-1.2,9.1,2.2,11.9c3,2.7,7.3,3.4,11.1,2.4c3.2-0.9,6.1-2.6,8.1-5c5.2-17,5.8-47.2,5.6-63.2
	c-16.1-0.1-46.3,0.4-63.3,5.6c-2.4,2-4.2,4.8-5,8.1c-1,3.8-0.4,8.2,2.4,11.1c2.8,3.3,8.4,4.8,11.9,2.2c-0.4,0-0.8,0-1.2,0
	c-6-0.4-10.4-5.7-10-11.7c0.4-6,5.7-10.4,11.7-10c1.8,0.1,3.5,0.7,4.9,1.6c2.2,1.1,4,2.6,5.5,4.5c8.7,11.5-1.6,27.8-15.6,26.2
	c-8.7-0.9-16.1-8.1-16.9-16.9c-0.4-4.4,0.7-8.9,3-12.6c0.9-0.6,1.7-1.2,2.5-1.9c1.5-1.4,2.8-3,3.8-4.8c2-3.5,3.2-7.6,3.2-12.2
	c0-4.5-1.2-8.6-3.2-12.2c-1.1-1.8-2.4-3.5-3.8-4.8c-0.8-0.7-1.6-1.4-2.5-1.9c-2.2-3.7-3.5-8.2-3-12.6c0.8-8.7,8.2-16,16.9-16.9
	c14-1.6,24.3,14.7,15.6,26.2c-1.4,1.9-3.4,3.5-5.5,4.5c-1.4,0.9-3.1,1.4-4.8,1.6c-6,0.4-11.2-4-11.7-10c-0.4-6,4-11.2,10-11.7
	c0.4-0.1,0.8-0.1,1.2,0c-3.5-2.6-9.1-1.2-11.9,2.2c-2.7,3-3.4,7.3-2.4,11.1c0.9,3.2,2.6,6.1,5,8.1c17,5.2,47.2,5.8,63.2,5.6
	c0.1-16.1-0.4-46.3-5.6-63.2c-2-2.4-4.8-4.2-8.1-5c-3.8-1-8.2-0.4-11.1,2.4c-3.3,2.8-4.8,8.4-2.2,11.9c0-0.4,0-0.8,0-1.2
	c0.4-6,5.7-10.4,11.7-10c6,0.4,10.4,5.7,10,11.7c-0.1,1.8-0.7,3.5-1.6,4.8c-1.1,2.2-2.6,4.1-4.5,5.5c-11.5,8.7-27.8-1.6-26.2-15.6
	c0.9-8.7,8.1-16.1,16.9-16.9c4.4-0.4,8.9,0.7,12.6,3c0.6,0.9,1.2,1.7,1.9,2.5c1.4,1.5,3,2.8,4.8,3.8c3.5,2,7.6,3.2,12.2,3.2
	s8.6-1.2,12.2-3.2c1.8-1.1,3.5-2.4,4.8-3.8c0.7-0.8,1.4-1.6,1.9-2.5c3.7-2.2,8.2-3.5,12.6-3c8.7,0.8,16,8.2,16.9,16.9
	c1.6,14-14.8,24.3-26.2,15.6c-1.9-1.4-3.5-3.3-4.5-5.5c-0.9-1.4-1.4-3.1-1.6-4.9c-0.4-6,4-11.2,10-11.7c6-0.4,11.2,4,11.7,10
	c0,0.4,0,0.8,0,1.2c2.6-3.5,1.2-9.1-2.2-11.9c-3-2.7-7.3-3.4-11.1-2.4c-3.2,0.8-6,2.6-8.1,5c-5.2,17-5.8,47.2-5.6,63.3
	c16.1,0.1,46.3-0.4,63.2-5.6c2.4-2,4.2-4.8,5-8.1c1-3.8,0.4-8.2-2.4-11.1c-2.8-3.3-8.4-4.8-11.9-2.2c0.4,0,0.8,0,1.2,0
	c6,0.4,10.4,5.7,10,11.7s-5.7,10.4-11.7,10c-1.8-0.1-3.5-0.7-4.8-1.6c-2.2-1.1-4.1-2.6-5.5-4.5c-8.7-11.5,1.6-27.8,15.6-26.2
	c8.7,0.9,16.1,8.1,16.9,16.9c0.4,4.4-0.7,8.9-3,12.6c-0.9,0.6-1.7,1.2-2.5,1.9c-1.5,1.4-2.8,3-3.8,4.8c-2,3.5-3.2,7.6-3.2,12.2
	s1.2,8.6,3.2,12.2c1.1,1.8,2.4,3.5,3.8,4.8c0.9,0.7,1.7,1.4,2.5,1.9C264.6,203.1,265.8,207.6,265.3,212z M289,185.8
	c-2.1,8.7-8.9,15-16.9,15c-4.7,0-9-2.2-12.2-5.7c-3.3-3.7-5.4-8.9-5.4-14.6c0-5.8,2.1-11,5.4-14.6c3.2-3.5,7.4-5.7,12.2-5.7
	c8.1,0,14.8,6.3,16.9,14.8c0.4,1.7,0.6,3.5,0.6,5.4C289.7,182.2,289.5,184,289,185.8z M297.8,190.7c-3,0-5.5-1.2-7.4-3.2
	c0.6-2.2,1-4.6,1-7.1c0-2.5-0.4-4.8-1-7.1c1.9-1.9,4.5-3.2,7.4-3.2c5.7,0,10.2,4.6,10.2,10.2C308,186.2,303.4,190.7,297.8,190.7z"/>
</svg>
